<svg width="217" height="59" viewBox="0 0 217 59" fill="none" xmlns="http://www.w3.org/2000/svg">
<path d="M2.97402 10.512H8.59002V21.096L18.49 10.512H25.834L14.494 22.356L26.806 36H18.958L8.59002 23.904V36H2.97402V10.512ZM44.6145 32.976C43.7505 34.08 42.6585 34.932 41.3385 35.532C40.0185 36.132 38.6505 36.432 37.2345 36.432C35.8905 36.432 34.6185 36.216 33.4185 35.784C32.2425 35.352 31.2105 34.74 30.3225 33.948C29.4585 33.132 28.7745 32.16 28.2705 31.032C27.7665 29.904 27.5145 28.644 27.5145 27.252C27.5145 25.86 27.7665 24.6 28.2705 23.472C28.7745 22.344 29.4585 21.384 30.3225 20.592C31.2105 19.776 32.2425 19.152 33.4185 18.72C34.6185 18.288 35.8905 18.072 37.2345 18.072C38.4825 18.072 39.6105 18.288 40.6185 18.72C41.6505 19.152 42.5145 19.776 43.2105 20.592C43.9305 21.384 44.4825 22.344 44.8665 23.472C45.2505 24.6 45.4425 25.86 45.4425 27.252V28.944H32.9145C33.1305 29.976 33.5985 30.804 34.3185 31.428C35.0385 32.028 35.9265 32.328 36.9825 32.328C37.8705 32.328 38.6145 32.136 39.2145 31.752C39.8385 31.344 40.3785 30.828 40.8345 30.204L44.6145 32.976ZM40.0425 25.272C40.0665 24.36 39.7665 23.58 39.1425 22.932C38.5185 22.284 37.7145 21.96 36.7305 21.96C36.1305 21.96 35.6025 22.056 35.1465 22.248C34.6905 22.44 34.2945 22.692 33.9585 23.004C33.6465 23.292 33.3945 23.64 33.2025 24.048C33.0345 24.432 32.9385 24.84 32.9145 25.272H40.0425ZM58.8064 38.844C58.4464 39.78 58.0984 40.608 57.7624 41.328C57.4264 42.048 56.9944 42.648 56.4664 43.128C55.9624 43.632 55.3144 44.004 54.5224 44.244C53.7304 44.508 52.6864 44.64 51.3904 44.64C49.9984 44.64 48.6544 44.424 47.3584 43.992L48.0784 39.564C48.8944 39.924 49.7344 40.104 50.5984 40.104C51.1984 40.104 51.6904 40.032 52.0744 39.888C52.4584 39.768 52.7704 39.576 53.0104 39.312C53.2744 39.072 53.4904 38.772 53.6584 38.412C53.8264 38.052 54.0064 37.632 54.1984 37.152L54.5944 36.144L46.9264 18.504H52.7584L57.2584 30.06H57.3304L61.1824 18.504H66.7264L58.8064 38.844ZM80.0666 10.512H89.5706C90.6746 10.512 91.7786 10.596 92.8826 10.764C94.0106 10.908 95.0186 11.22 95.9066 11.7C96.7946 12.156 97.5146 12.804 98.0666 13.644C98.6186 14.484 98.8946 15.6 98.8946 16.992C98.8946 18.432 98.4866 19.632 97.6706 20.592C96.8786 21.528 95.8226 22.2 94.5026 22.608V22.68C95.3426 22.8 96.0986 23.04 96.7706 23.4C97.4666 23.736 98.0546 24.18 98.5346 24.732C99.0386 25.26 99.4226 25.884 99.6866 26.604C99.9506 27.324 100.083 28.092 100.083 28.908C100.083 30.252 99.7946 31.38 99.2186 32.292C98.6426 33.18 97.8986 33.9 96.9866 34.452C96.0746 35.004 95.0426 35.4 93.8906 35.64C92.7626 35.88 91.6346 36 90.5066 36H80.0666V10.512ZM85.6826 20.7H89.7506C90.1826 20.7 90.6026 20.652 91.0106 20.556C91.4426 20.46 91.8266 20.304 92.1626 20.088C92.4986 19.872 92.7626 19.584 92.9546 19.224C93.1706 18.864 93.2786 18.432 93.2786 17.928C93.2786 17.4 93.1586 16.968 92.9186 16.632C92.7026 16.272 92.4146 15.996 92.0546 15.804C91.6946 15.612 91.2866 15.48 90.8306 15.408C90.3746 15.312 89.9306 15.264 89.4986 15.264H85.6826V20.7ZM85.6826 31.248H90.7226C91.1546 31.248 91.5866 31.2 92.0186 31.104C92.4746 31.008 92.8826 30.84 93.2426 30.6C93.6026 30.36 93.8906 30.048 94.1066 29.664C94.3466 29.28 94.4666 28.812 94.4666 28.26C94.4666 27.66 94.3106 27.18 93.9986 26.82C93.7106 26.436 93.3386 26.148 92.8826 25.956C92.4266 25.764 91.9346 25.632 91.4066 25.56C90.8786 25.488 90.3866 25.452 89.9306 25.452H85.6826V31.248ZM119.286 32.976C118.422 34.08 117.33 34.932 116.01 35.532C114.69 36.132 113.322 36.432 111.906 36.432C110.562 36.432 109.29 36.216 108.09 35.784C106.914 35.352 105.882 34.74 104.994 33.948C104.13 33.132 103.446 32.16 102.942 31.032C102.438 29.904 102.186 28.644 102.186 27.252C102.186 25.86 102.438 24.6 102.942 23.472C103.446 22.344 104.13 21.384 104.994 20.592C105.882 19.776 106.914 19.152 108.09 18.72C109.29 18.288 110.562 18.072 111.906 18.072C113.154 18.072 114.282 18.288 115.29 18.72C116.322 19.152 117.186 19.776 117.882 20.592C118.602 21.384 119.154 22.344 119.538 23.472C119.922 24.6 120.114 25.86 120.114 27.252V28.944H107.586C107.802 29.976 108.27 30.804 108.99 31.428C109.71 32.028 110.598 32.328 111.654 32.328C112.542 32.328 113.286 32.136 113.886 31.752C114.51 31.344 115.05 30.828 115.506 30.204L119.286 32.976ZM114.714 25.272C114.738 24.36 114.438 23.58 113.814 22.932C113.19 22.284 112.386 21.96 111.402 21.96C110.802 21.96 110.274 22.056 109.818 22.248C109.362 22.44 108.966 22.692 108.63 23.004C108.318 23.292 108.066 23.64 107.874 24.048C107.706 24.432 107.61 24.84 107.586 25.272H114.714ZM123.398 18.504H128.582V20.88H128.654C128.822 20.544 129.062 20.208 129.374 19.872C129.686 19.536 130.058 19.236 130.49 18.972C130.922 18.708 131.414 18.492 131.966 18.324C132.518 18.156 133.118 18.072 133.766 18.072C135.134 18.072 136.238 18.288 137.078 18.72C137.918 19.128 138.566 19.704 139.022 20.448C139.502 21.192 139.826 22.068 139.994 23.076C140.162 24.084 140.246 25.176 140.246 26.352V36H134.846V27.432C134.846 26.928 134.822 26.412 134.774 25.884C134.75 25.332 134.642 24.828 134.45 24.372C134.282 23.916 134.006 23.544 133.622 23.256C133.262 22.968 132.734 22.824 132.038 22.824C131.342 22.824 130.778 22.956 130.346 23.22C129.914 23.46 129.578 23.796 129.338 24.228C129.122 24.636 128.978 25.104 128.906 25.632C128.834 26.16 128.798 26.712 128.798 27.288V36H123.398V18.504ZM160.63 32.976C159.766 34.08 158.674 34.932 157.354 35.532C156.034 36.132 154.666 36.432 153.25 36.432C151.906 36.432 150.634 36.216 149.434 35.784C148.258 35.352 147.226 34.74 146.338 33.948C145.474 33.132 144.79 32.16 144.286 31.032C143.782 29.904 143.53 28.644 143.53 27.252C143.53 25.86 143.782 24.6 144.286 23.472C144.79 22.344 145.474 21.384 146.338 20.592C147.226 19.776 148.258 19.152 149.434 18.72C150.634 18.288 151.906 18.072 153.25 18.072C154.498 18.072 155.626 18.288 156.634 18.72C157.666 19.152 158.53 19.776 159.226 20.592C159.946 21.384 160.498 22.344 160.882 23.472C161.266 24.6 161.458 25.86 161.458 27.252V28.944H148.93C149.146 29.976 149.614 30.804 150.334 31.428C151.054 32.028 151.942 32.328 152.998 32.328C153.886 32.328 154.63 32.136 155.23 31.752C155.854 31.344 156.394 30.828 156.85 30.204L160.63 32.976ZM156.058 25.272C156.082 24.36 155.782 23.58 155.158 22.932C154.534 22.284 153.73 21.96 152.746 21.96C152.146 21.96 151.618 22.056 151.162 22.248C150.706 22.44 150.31 22.692 149.974 23.004C149.662 23.292 149.41 23.64 149.218 24.048C149.05 24.432 148.954 24.84 148.93 25.272H156.058ZM178.134 18.504H183.534V36H178.134V18.504ZM177.702 12.996C177.702 12.132 178.002 11.4 178.602 10.8C179.226 10.176 179.97 9.864 180.834 9.864C181.698 9.864 182.43 10.176 183.03 10.8C183.654 11.4 183.966 12.132 183.966 12.996C183.966 13.86 183.654 14.604 183.03 15.228C182.43 15.828 181.698 16.128 180.834 16.128C179.97 16.128 179.226 15.828 178.602 15.228C178.002 14.604 177.702 13.86 177.702 12.996ZM166.614 22.824H163.05V18.504H166.614V15.408C166.614 14.448 166.698 13.548 166.866 12.708C167.034 11.844 167.358 11.088 167.838 10.44C168.318 9.792 169.002 9.288 169.89 8.928C170.802 8.544 171.99 8.352 173.454 8.352C174.006 8.352 174.546 8.376 175.074 8.424C175.602 8.472 176.118 8.556 176.622 8.676L176.37 13.248C176.058 13.128 175.77 13.044 175.506 12.996C175.242 12.924 174.942 12.888 174.606 12.888C173.742 12.888 173.094 13.08 172.662 13.464C172.23 13.824 172.014 14.58 172.014 15.732V18.504H176.01V22.824H172.014V36H166.614V22.824ZM199.334 22.824H194.582V28.656C194.582 29.136 194.606 29.58 194.654 29.988C194.702 30.372 194.81 30.708 194.978 30.996C195.146 31.284 195.398 31.512 195.734 31.68C196.094 31.824 196.562 31.896 197.138 31.896C197.426 31.896 197.798 31.872 198.254 31.824C198.734 31.752 199.094 31.608 199.334 31.392V35.892C198.734 36.108 198.11 36.252 197.462 36.324C196.814 36.396 196.178 36.432 195.554 36.432C194.642 36.432 193.802 36.336 193.034 36.144C192.266 35.952 191.594 35.652 191.018 35.244C190.442 34.812 189.986 34.26 189.65 33.588C189.338 32.916 189.182 32.1 189.182 31.14V22.824H185.726V18.504H189.182V13.32H194.582V18.504H199.334V22.824ZM211.978 23.652C211.186 22.668 210.142 22.176 208.846 22.176C208.39 22.176 207.946 22.284 207.514 22.5C207.082 22.716 206.866 23.088 206.866 23.616C206.866 24.048 207.082 24.372 207.514 24.588C207.97 24.78 208.534 24.96 209.206 25.128C209.902 25.272 210.634 25.44 211.402 25.632C212.194 25.8 212.926 26.076 213.598 26.46C214.294 26.844 214.858 27.372 215.29 28.044C215.746 28.692 215.974 29.568 215.974 30.672C215.974 31.8 215.722 32.736 215.218 33.48C214.738 34.2 214.114 34.788 213.346 35.244C212.578 35.676 211.714 35.976 210.754 36.144C209.794 36.336 208.846 36.432 207.91 36.432C206.686 36.432 205.45 36.264 204.202 35.928C202.954 35.568 201.898 34.944 201.034 34.056L204.31 30.42C204.814 31.044 205.366 31.524 205.966 31.86C206.59 32.172 207.31 32.328 208.126 32.328C208.75 32.328 209.314 32.244 209.818 32.076C210.322 31.884 210.574 31.548 210.574 31.068C210.574 30.612 210.346 30.276 209.89 30.06C209.458 29.82 208.894 29.628 208.198 29.484C207.526 29.316 206.794 29.148 206.002 28.98C205.234 28.788 204.502 28.512 203.806 28.152C203.134 27.792 202.57 27.288 202.114 26.64C201.682 25.968 201.466 25.08 201.466 23.976C201.466 22.944 201.67 22.056 202.078 21.312C202.51 20.568 203.062 19.956 203.734 19.476C204.43 18.996 205.222 18.648 206.11 18.432C206.998 18.192 207.898 18.072 208.81 18.072C209.962 18.072 211.126 18.24 212.302 18.576C213.478 18.912 214.474 19.512 215.29 20.376L211.978 23.652Z" fill="#043CAA"/>
<rect x="62" y="54" width="91" height="5" rx="2.5" fill="#043CAA"/>
<path d="M111 54H150.5C151.881 54 153 55.1193 153 56.5C153 57.8807 151.881 59 150.5 59H111V54Z" fill="#1BC768"/>
</svg>
