<svg width="129" height="39" viewBox="0 0 129 39" fill="none" xmlns="http://www.w3.org/2000/svg">
<rect width="129" height="39" rx="19.5" fill="#1BC768"/>
<path d="M45.3828 22.125C45.3828 21.8594 45.3411 21.625 45.2578 21.4219C45.1797 21.2135 45.0391 21.026 44.8359 20.8594C44.638 20.6927 44.362 20.5339 44.0078 20.3828C43.6589 20.2318 43.2161 20.0781 42.6797 19.9219C42.1172 19.7552 41.6094 19.5703 41.1562 19.3672C40.7031 19.1589 40.3151 18.9219 39.9922 18.6562C39.6693 18.3906 39.4219 18.0859 39.25 17.7422C39.0781 17.3984 38.9922 17.0052 38.9922 16.5625C38.9922 16.1198 39.0833 15.7109 39.2656 15.3359C39.4479 14.9609 39.7083 14.6354 40.0469 14.3594C40.3906 14.0781 40.7995 13.8594 41.2734 13.7031C41.7474 13.5469 42.276 13.4688 42.8594 13.4688C43.7135 13.4688 44.4375 13.6328 45.0312 13.9609C45.6302 14.2839 46.0859 14.7083 46.3984 15.2344C46.7109 15.7552 46.8672 16.3125 46.8672 16.9062H45.3672C45.3672 16.4792 45.276 16.1016 45.0938 15.7734C44.9115 15.4401 44.6354 15.1797 44.2656 14.9922C43.8958 14.7995 43.4271 14.7031 42.8594 14.7031C42.3229 14.7031 41.8802 14.7839 41.5312 14.9453C41.1823 15.1068 40.9219 15.3255 40.75 15.6016C40.5833 15.8776 40.5 16.1927 40.5 16.5469C40.5 16.7865 40.5495 17.0052 40.6484 17.2031C40.7526 17.3958 40.9115 17.5755 41.125 17.7422C41.3438 17.9089 41.6198 18.0625 41.9531 18.2031C42.2917 18.3438 42.6953 18.4792 43.1641 18.6094C43.8099 18.7917 44.3672 18.9948 44.8359 19.2188C45.3047 19.4427 45.6901 19.6953 45.9922 19.9766C46.2995 20.2526 46.526 20.5677 46.6719 20.9219C46.8229 21.2708 46.8984 21.6667 46.8984 22.1094C46.8984 22.5729 46.8047 22.9922 46.6172 23.3672C46.4297 23.7422 46.1615 24.0625 45.8125 24.3281C45.4635 24.5938 45.0443 24.7995 44.5547 24.9453C44.0703 25.0859 43.5286 25.1562 42.9297 25.1562C42.4036 25.1562 41.8854 25.0833 41.375 24.9375C40.8698 24.7917 40.4089 24.5729 39.9922 24.2812C39.5807 23.9896 39.25 23.6302 39 23.2031C38.7552 22.7708 38.6328 22.2708 38.6328 21.7031H40.1328C40.1328 22.0938 40.2083 22.4297 40.3594 22.7109C40.5104 22.987 40.7161 23.2161 40.9766 23.3984C41.2422 23.5807 41.5417 23.7161 41.875 23.8047C42.2135 23.888 42.5651 23.9297 42.9297 23.9297C43.4557 23.9297 43.901 23.8568 44.2656 23.7109C44.6302 23.5651 44.9062 23.3568 45.0938 23.0859C45.2865 22.8151 45.3828 22.4948 45.3828 22.125ZM50.1719 16.5469V25H48.7188V16.5469H50.1719ZM48.6094 14.3047C48.6094 14.0703 48.6797 13.8724 48.8203 13.7109C48.9661 13.5495 49.1797 13.4688 49.4609 13.4688C49.737 13.4688 49.9479 13.5495 50.0938 13.7109C50.2448 13.8724 50.3203 14.0703 50.3203 14.3047C50.3203 14.5286 50.2448 14.7214 50.0938 14.8828C49.9479 15.0391 49.737 15.1172 49.4609 15.1172C49.1797 15.1172 48.9661 15.0391 48.8203 14.8828C48.6797 14.7214 48.6094 14.5286 48.6094 14.3047ZM57.9688 16.5469H59.2812V24.8203C59.2812 25.5651 59.1302 26.2005 58.8281 26.7266C58.526 27.2526 58.1042 27.651 57.5625 27.9219C57.026 28.1979 56.4062 28.3359 55.7031 28.3359C55.4115 28.3359 55.0677 28.2891 54.6719 28.1953C54.2812 28.1068 53.8958 27.9531 53.5156 27.7344C53.1406 27.5208 52.8255 27.2318 52.5703 26.8672L53.3281 26.0078C53.6823 26.4349 54.0521 26.7318 54.4375 26.8984C54.8281 27.0651 55.2135 27.1484 55.5938 27.1484C56.0521 27.1484 56.4479 27.0625 56.7812 26.8906C57.1146 26.7188 57.3724 26.4635 57.5547 26.125C57.7422 25.7917 57.8359 25.3802 57.8359 24.8906V18.4062L57.9688 16.5469ZM52.1484 20.8672V20.7031C52.1484 20.0573 52.224 19.4714 52.375 18.9453C52.5312 18.4141 52.7526 17.9583 53.0391 17.5781C53.3307 17.1979 53.6823 16.9062 54.0938 16.7031C54.5052 16.4948 54.9688 16.3906 55.4844 16.3906C56.0156 16.3906 56.4792 16.4844 56.875 16.6719C57.276 16.8542 57.6146 17.1224 57.8906 17.4766C58.1719 17.8255 58.3932 18.2474 58.5547 18.7422C58.7161 19.237 58.8281 19.7969 58.8906 20.4219V21.1406C58.8333 21.7604 58.7214 22.3177 58.5547 22.8125C58.3932 23.3073 58.1719 23.7292 57.8906 24.0781C57.6146 24.4271 57.276 24.6953 56.875 24.8828C56.474 25.0651 56.0052 25.1562 55.4688 25.1562C54.9635 25.1562 54.5052 25.0495 54.0938 24.8359C53.6875 24.6224 53.3385 24.3229 53.0469 23.9375C52.7552 23.5521 52.5312 23.099 52.375 22.5781C52.224 22.0521 52.1484 21.4818 52.1484 20.8672ZM53.5938 20.7031V20.8672C53.5938 21.2891 53.6354 21.6849 53.7188 22.0547C53.8073 22.4245 53.9401 22.75 54.1172 23.0312C54.2995 23.3125 54.5312 23.5339 54.8125 23.6953C55.0938 23.8516 55.4297 23.9297 55.8203 23.9297C56.2995 23.9297 56.6953 23.8281 57.0078 23.625C57.3203 23.4219 57.5677 23.1536 57.75 22.8203C57.9375 22.487 58.0833 22.125 58.1875 21.7344V19.8516C58.1302 19.5651 58.0417 19.2891 57.9219 19.0234C57.8073 18.7526 57.6562 18.513 57.4688 18.3047C57.2865 18.0911 57.0599 17.9219 56.7891 17.7969C56.5182 17.6719 56.2005 17.6094 55.8359 17.6094C55.4401 17.6094 55.099 17.6927 54.8125 17.8594C54.5312 18.0208 54.2995 18.2448 54.1172 18.5312C53.9401 18.8125 53.8073 19.1406 53.7188 19.5156C53.6354 19.8854 53.5938 20.2812 53.5938 20.7031ZM62.9219 18.3516V25H61.4766V16.5469H62.8438L62.9219 18.3516ZM62.5781 20.4531L61.9766 20.4297C61.9818 19.8516 62.0677 19.3177 62.2344 18.8281C62.401 18.3333 62.6354 17.9036 62.9375 17.5391C63.2396 17.1745 63.599 16.8932 64.0156 16.6953C64.4375 16.4922 64.9036 16.3906 65.4141 16.3906C65.8307 16.3906 66.2057 16.4479 66.5391 16.5625C66.8724 16.6719 67.1562 16.849 67.3906 17.0938C67.6302 17.3385 67.8125 17.6562 67.9375 18.0469C68.0625 18.4323 68.125 18.9036 68.125 19.4609V25H66.6719V19.4453C66.6719 19.0026 66.6068 18.6484 66.4766 18.3828C66.3464 18.112 66.1562 17.9167 65.9062 17.7969C65.6562 17.6719 65.349 17.6094 64.9844 17.6094C64.625 17.6094 64.2969 17.6849 64 17.8359C63.7083 17.987 63.4557 18.1953 63.2422 18.4609C63.0339 18.7266 62.8698 19.0312 62.75 19.375C62.6354 19.7135 62.5781 20.0729 62.5781 20.4531ZM79.4609 23.0469V16.5469H80.9141V25H79.5312L79.4609 23.0469ZM79.7344 21.2656L80.3359 21.25C80.3359 21.8125 80.276 22.3333 80.1562 22.8125C80.0417 23.2865 79.8542 23.6979 79.5938 24.0469C79.3333 24.3958 78.9922 24.6693 78.5703 24.8672C78.1484 25.0599 77.6354 25.1562 77.0312 25.1562C76.6198 25.1562 76.2422 25.0964 75.8984 24.9766C75.5599 24.8568 75.2682 24.6719 75.0234 24.4219C74.7786 24.1719 74.5885 23.8464 74.4531 23.4453C74.3229 23.0443 74.2578 22.5625 74.2578 22V16.5469H75.7031V22.0156C75.7031 22.3958 75.7448 22.7109 75.8281 22.9609C75.9167 23.2057 76.0339 23.401 76.1797 23.5469C76.3307 23.6875 76.4974 23.7865 76.6797 23.8438C76.8672 23.901 77.0599 23.9297 77.2578 23.9297C77.8724 23.9297 78.3594 23.8125 78.7188 23.5781C79.0781 23.3385 79.3359 23.0182 79.4922 22.6172C79.6536 22.2109 79.7344 21.7604 79.7344 21.2656ZM84.5625 18.1719V28.25H83.1094V16.5469H84.4375L84.5625 18.1719ZM90.2578 20.7031V20.8672C90.2578 21.4818 90.1849 22.0521 90.0391 22.5781C89.8932 23.099 89.6797 23.5521 89.3984 23.9375C89.1224 24.3229 88.7812 24.6224 88.375 24.8359C87.9688 25.0495 87.5026 25.1562 86.9766 25.1562C86.4401 25.1562 85.9661 25.0677 85.5547 24.8906C85.1432 24.7135 84.7943 24.4557 84.5078 24.1172C84.2214 23.7786 83.9922 23.3724 83.8203 22.8984C83.6536 22.4245 83.5391 21.8906 83.4766 21.2969V20.4219C83.5391 19.7969 83.6562 19.237 83.8281 18.7422C84 18.2474 84.2266 17.8255 84.5078 17.4766C84.7943 17.1224 85.1406 16.8542 85.5469 16.6719C85.9531 16.4844 86.4219 16.3906 86.9531 16.3906C87.4844 16.3906 87.9557 16.4948 88.3672 16.7031C88.7786 16.9062 89.125 17.1979 89.4062 17.5781C89.6875 17.9583 89.8984 18.4141 90.0391 18.9453C90.1849 19.4714 90.2578 20.0573 90.2578 20.7031ZM88.8047 20.8672V20.7031C88.8047 20.2812 88.7604 19.8854 88.6719 19.5156C88.5833 19.1406 88.4453 18.8125 88.2578 18.5312C88.0755 18.2448 87.8411 18.0208 87.5547 17.8594C87.2682 17.6927 86.9271 17.6094 86.5312 17.6094C86.1667 17.6094 85.849 17.6719 85.5781 17.7969C85.3125 17.9219 85.0859 18.0911 84.8984 18.3047C84.7109 18.513 84.5573 18.7526 84.4375 19.0234C84.3229 19.2891 84.237 19.5651 84.1797 19.8516V21.875C84.2839 22.2396 84.4297 22.5833 84.6172 22.9062C84.8047 23.224 85.0547 23.4818 85.3672 23.6797C85.6797 23.8724 86.0729 23.9688 86.5469 23.9688C86.9375 23.9688 87.2734 23.888 87.5547 23.7266C87.8411 23.5599 88.0755 23.3333 88.2578 23.0469C88.4453 22.7604 88.5833 22.4323 88.6719 22.0625C88.7604 21.6875 88.8047 21.2891 88.8047 20.8672Z" fill="white"/>
</svg>
