<svg width="619" height="94" viewBox="0 0 619 94" fill="none" xmlns="http://www.w3.org/2000/svg">
<g filter="url(#filter0_d_51_103)">
<rect x="5" y="1" width="609" height="84" rx="10" fill="#1BC768"/>
<path d="M253.214 52.076V56H237.446V31.052H241.982V52.076H253.214ZM271.543 43.508C271.543 44.876 271.711 46.124 272.047 47.252C272.383 48.356 272.863 49.304 273.487 50.096C274.135 50.864 274.915 51.464 275.827 51.896C276.739 52.328 277.771 52.544 278.923 52.544C280.051 52.544 281.071 52.328 281.983 51.896C282.895 51.464 283.663 50.864 284.287 50.096C284.935 49.304 285.427 48.356 285.763 47.252C286.099 46.124 286.267 44.876 286.267 43.508C286.267 42.14 286.099 40.904 285.763 39.8C285.427 38.672 284.935 37.724 284.287 36.956C283.663 36.164 282.895 35.552 281.983 35.12C281.071 34.688 280.051 34.472 278.923 34.472C277.771 34.472 276.739 34.688 275.827 35.12C274.915 35.552 274.135 36.164 273.487 36.956C272.863 37.748 272.383 38.696 272.047 39.8C271.711 40.904 271.543 42.14 271.543 43.508ZM291.019 43.508C291.019 45.644 290.695 47.528 290.047 49.16C289.423 50.792 288.559 52.16 287.455 53.264C286.375 54.344 285.103 55.16 283.639 55.712C282.175 56.264 280.615 56.54 278.959 56.54C277.303 56.54 275.731 56.264 274.243 55.712C272.779 55.16 271.495 54.344 270.391 53.264C269.311 52.16 268.447 50.792 267.799 49.16C267.151 47.528 266.827 45.644 266.827 43.508C266.827 41.372 267.151 39.5 267.799 37.892C268.447 36.26 269.323 34.892 270.427 33.788C271.555 32.684 272.851 31.856 274.315 31.304C275.779 30.752 277.327 30.476 278.959 30.476C280.591 30.476 282.139 30.752 283.603 31.304C285.067 31.856 286.339 32.684 287.419 33.788C288.523 34.892 289.399 36.26 290.047 37.892C290.695 39.5 291.019 41.372 291.019 43.508ZM320.259 34.472C317.691 34.472 315.723 35.276 314.355 36.884C313.011 38.468 312.339 40.676 312.339 43.508C312.339 44.852 312.495 46.088 312.807 47.216C313.143 48.32 313.623 49.268 314.247 50.06C314.895 50.852 315.687 51.476 316.623 51.932C317.583 52.364 318.699 52.58 319.971 52.58C320.763 52.58 321.447 52.556 322.023 52.508C322.599 52.436 323.055 52.352 323.391 52.256V43.292H327.927V55.28C327.303 55.52 326.247 55.784 324.759 56.072C323.271 56.36 321.555 56.504 319.611 56.504C317.811 56.504 316.167 56.216 314.679 55.64C313.191 55.064 311.919 54.224 310.863 53.12C309.831 52.016 309.027 50.66 308.451 49.052C307.875 47.444 307.587 45.596 307.587 43.508C307.587 41.42 307.899 39.572 308.523 37.964C309.171 36.356 310.047 35 311.151 33.896C312.255 32.768 313.551 31.916 315.039 31.34C316.527 30.764 318.111 30.476 319.791 30.476C320.943 30.476 321.963 30.56 322.851 30.728C323.763 30.872 324.543 31.04 325.191 31.232C325.839 31.424 326.367 31.628 326.775 31.844C327.207 32.06 327.507 32.216 327.675 32.312L326.307 36.02C325.587 35.588 324.687 35.228 323.607 34.94C322.551 34.628 321.435 34.472 320.259 34.472ZM345.77 31.052H350.306V56H345.77V31.052ZM385.693 56C384.877 54.632 383.965 53.168 382.957 51.608C381.949 50.024 380.905 48.44 379.825 46.856C378.745 45.248 377.641 43.7 376.513 42.212C375.409 40.7 374.353 39.344 373.345 38.144V56H368.881V31.052H372.589C373.549 32.06 374.581 33.26 375.685 34.652C376.789 36.02 377.893 37.448 378.997 38.936C380.125 40.424 381.205 41.924 382.237 43.436C383.293 44.924 384.229 46.316 385.045 47.612V31.052H389.545V56H385.693Z" fill="#F9FBF9"/>
</g>
<defs>
<filter id="filter0_d_51_103" x="0" y="0" width="619" height="94" filterUnits="userSpaceOnUse" color-interpolation-filters="sRGB">
<feFlood flood-opacity="0" result="BackgroundImageFix"/>
<feColorMatrix in="SourceAlpha" type="matrix" values="0 0 0 0 0 0 0 0 0 0 0 0 0 0 0 0 0 0 127 0" result="hardAlpha"/>
<feOffset dy="4"/>
<feGaussianBlur stdDeviation="2.5"/>
<feComposite in2="hardAlpha" operator="out"/>
<feColorMatrix type="matrix" values="0 0 0 0 0 0 0 0 0 0 0 0 0 0 0 0 0 0 0.1 0"/>
<feBlend mode="normal" in2="BackgroundImageFix" result="effect1_dropShadow_51_103"/>
<feBlend mode="normal" in="SourceGraphic" in2="effect1_dropShadow_51_103" result="shape"/>
</filter>
</defs>
</svg>
