<svg width="117" height="42" viewBox="0 0 117 42" fill="none" xmlns="http://www.w3.org/2000/svg">
<rect width="117" height="42" rx="21" fill="#1BC768"/>
<path d="M39.456 14.672H40.992V24.56H46.192V26H39.456V14.672ZM48.5529 22.208C48.5529 22.592 48.6115 22.9493 48.7289 23.28C48.8462 23.6 49.0115 23.8773 49.2249 24.112C49.4382 24.336 49.6995 24.5173 50.0089 24.656C50.3182 24.784 50.6649 24.848 51.0489 24.848C51.4329 24.848 51.7795 24.784 52.0889 24.656C52.3982 24.5173 52.6595 24.336 52.8729 24.112C53.0862 23.8773 53.2515 23.6 53.3689 23.28C53.4862 22.9493 53.5449 22.592 53.5449 22.208C53.5449 21.824 53.4862 21.472 53.3689 21.152C53.2515 20.8213 53.0862 20.544 52.8729 20.32C52.6595 20.0853 52.3982 19.904 52.0889 19.776C51.7795 19.6373 51.4329 19.568 51.0489 19.568C50.6649 19.568 50.3182 19.6373 50.0089 19.776C49.6995 19.904 49.4382 20.0853 49.2249 20.32C49.0115 20.544 48.8462 20.8213 48.7289 21.152C48.6115 21.472 48.5529 21.824 48.5529 22.208ZM47.0169 22.208C47.0169 21.6533 47.1182 21.136 47.3209 20.656C47.5342 20.176 47.8222 19.7547 48.1849 19.392C48.5475 19.0293 48.9742 18.7467 49.4649 18.544C49.9555 18.3307 50.4835 18.224 51.0489 18.224C51.6142 18.224 52.1422 18.3307 52.6329 18.544C53.1235 18.7467 53.5502 19.0293 53.9129 19.392C54.2755 19.7547 54.5582 20.176 54.7609 20.656C54.9742 21.136 55.0809 21.6533 55.0809 22.208C55.0809 22.7627 54.9742 23.2853 54.7609 23.776C54.5582 24.256 54.2755 24.6773 53.9129 25.04C53.5502 25.392 53.1235 25.6747 52.6329 25.888C52.1422 26.0907 51.6142 26.192 51.0489 26.192C50.4835 26.192 49.9555 26.0907 49.4649 25.888C48.9742 25.6747 48.5475 25.392 48.1849 25.04C47.8222 24.6773 47.5342 24.256 47.3209 23.776C47.1182 23.2853 47.0169 22.7627 47.0169 22.208ZM64.4849 25.936C64.4849 26.512 64.3835 27.0347 64.1809 27.504C63.9889 27.984 63.7115 28.3947 63.3489 28.736C62.9862 29.088 62.5489 29.36 62.0369 29.552C61.5249 29.744 60.9595 29.84 60.3409 29.84C59.6155 29.84 58.9489 29.7387 58.3409 29.536C57.7435 29.3333 57.1729 28.9813 56.6289 28.48L57.6049 27.264C57.9782 27.6693 58.3835 27.9733 58.8209 28.176C59.2582 28.3893 59.7542 28.496 60.3089 28.496C60.8422 28.496 61.2849 28.416 61.6369 28.256C61.9889 28.1067 62.2662 27.9093 62.4689 27.664C62.6822 27.4187 62.8315 27.136 62.9169 26.816C63.0022 26.5067 63.0449 26.192 63.0449 25.872V24.752H62.9969C62.7195 25.2107 62.3409 25.552 61.8609 25.776C61.3915 25.9893 60.8955 26.096 60.3729 26.096C59.8182 26.096 59.3009 26 58.8209 25.808C58.3515 25.6053 57.9462 25.3333 57.6049 24.992C57.2635 24.64 56.9969 24.2293 56.8049 23.76C56.6129 23.28 56.5169 22.7627 56.5169 22.208C56.5169 21.6533 56.6075 21.136 56.7889 20.656C56.9702 20.1653 57.2262 19.7387 57.5569 19.376C57.8982 19.0133 58.3035 18.7307 58.7729 18.528C59.2529 18.3253 59.7862 18.224 60.3729 18.224C60.8849 18.224 61.3809 18.336 61.8609 18.56C62.3515 18.784 62.7355 19.0987 63.0129 19.504H63.0449V18.416H64.4849V25.936ZM60.5489 19.568C60.1649 19.568 59.8182 19.6373 59.5089 19.776C59.1995 19.904 58.9382 20.0853 58.7249 20.32C58.5115 20.544 58.3462 20.8213 58.2289 21.152C58.1115 21.472 58.0529 21.824 58.0529 22.208C58.0529 22.976 58.2769 23.5947 58.7249 24.064C59.1729 24.5227 59.7809 24.752 60.5489 24.752C61.3169 24.752 61.9249 24.5227 62.3729 24.064C62.8209 23.5947 63.0449 22.976 63.0449 22.208C63.0449 21.824 62.9862 21.472 62.8689 21.152C62.7515 20.8213 62.5862 20.544 62.3729 20.32C62.1595 20.0853 61.8982 19.904 61.5889 19.776C61.2795 19.6373 60.9329 19.568 60.5489 19.568ZM66.7781 18.416H68.2181V26H66.7781V18.416ZM66.4421 15.696C66.4421 15.408 66.5435 15.1627 66.7461 14.96C66.9595 14.7467 67.2101 14.64 67.4981 14.64C67.7861 14.64 68.0315 14.7467 68.2341 14.96C68.4475 15.1627 68.5541 15.408 68.5541 15.696C68.5541 15.984 68.4475 16.2347 68.2341 16.448C68.0315 16.6507 67.7861 16.752 67.4981 16.752C67.2101 16.752 66.9595 16.6507 66.7461 16.448C66.5435 16.2347 66.4421 15.984 66.4421 15.696ZM70.5099 18.416H71.9499V19.584H71.9819C72.1632 19.1787 72.4779 18.8533 72.9259 18.608C73.3739 18.352 73.8912 18.224 74.4779 18.224C74.8405 18.224 75.1872 18.2827 75.5179 18.4C75.8592 18.5067 76.1525 18.6773 76.3979 18.912C76.6539 19.1467 76.8565 19.4507 77.0059 19.824C77.1552 20.1867 77.2299 20.6187 77.2299 21.12V26H75.7899V21.52C75.7899 21.168 75.7419 20.8693 75.6459 20.624C75.5499 20.368 75.4219 20.1653 75.2619 20.016C75.1019 19.856 74.9152 19.744 74.7019 19.68C74.4992 19.6053 74.2859 19.568 74.0619 19.568C73.7632 19.568 73.4859 19.616 73.2299 19.712C72.9739 19.808 72.7499 19.9627 72.5579 20.176C72.3659 20.3787 72.2165 20.64 72.1099 20.96C72.0032 21.28 71.9499 21.6587 71.9499 22.096V26H70.5099V18.416Z" fill="white"/>
</svg>
