<svg width="619" height="94" viewBox="0 0 619 94" fill="none" xmlns="http://www.w3.org/2000/svg">
<g filter="url(#filter0_d_47_75)">
<rect x="5" y="1" width="609" height="84" rx="10" fill="#1BC768"/>
<path d="M216.076 52.616C217.708 52.616 218.896 52.34 219.64 51.788C220.384 51.236 220.756 50.456 220.756 49.448C220.756 48.848 220.624 48.332 220.36 47.9C220.12 47.468 219.76 47.084 219.28 46.748C218.824 46.388 218.26 46.064 217.588 45.776C216.916 45.464 216.148 45.164 215.284 44.876C214.42 44.564 213.58 44.228 212.764 43.868C211.972 43.484 211.264 43.016 210.64 42.464C210.04 41.912 209.548 41.252 209.164 40.484C208.804 39.716 208.624 38.792 208.624 37.712C208.624 35.456 209.404 33.692 210.964 32.42C212.524 31.124 214.648 30.476 217.336 30.476C218.896 30.476 220.276 30.656 221.476 31.016C222.7 31.352 223.66 31.724 224.356 32.132L222.952 35.804C222.136 35.348 221.236 35 220.252 34.76C219.292 34.52 218.296 34.4 217.264 34.4C216.04 34.4 215.08 34.652 214.384 35.156C213.712 35.66 213.376 36.368 213.376 37.28C213.376 37.832 213.484 38.312 213.7 38.72C213.94 39.104 214.264 39.452 214.672 39.764C215.104 40.076 215.596 40.364 216.148 40.628C216.724 40.892 217.348 41.144 218.02 41.384C219.196 41.816 220.24 42.26 221.152 42.716C222.088 43.148 222.868 43.676 223.492 44.3C224.14 44.9 224.632 45.62 224.968 46.46C225.304 47.276 225.472 48.272 225.472 49.448C225.472 51.704 224.668 53.456 223.06 54.704C221.476 55.928 219.148 56.54 216.076 56.54C215.044 56.54 214.096 56.468 213.232 56.324C212.392 56.204 211.636 56.048 210.964 55.856C210.316 55.664 209.752 55.472 209.272 55.28C208.792 55.064 208.408 54.872 208.12 54.704L209.452 50.996C210.1 51.356 210.976 51.716 212.08 52.076C213.184 52.436 214.516 52.616 216.076 52.616ZM242.069 31.052H246.605V56H242.069V31.052ZM276.845 34.472C274.277 34.472 272.309 35.276 270.941 36.884C269.597 38.468 268.925 40.676 268.925 43.508C268.925 44.852 269.081 46.088 269.393 47.216C269.729 48.32 270.209 49.268 270.833 50.06C271.481 50.852 272.273 51.476 273.209 51.932C274.169 52.364 275.285 52.58 276.557 52.58C277.349 52.58 278.033 52.556 278.609 52.508C279.185 52.436 279.641 52.352 279.977 52.256V43.292H284.513V55.28C283.889 55.52 282.833 55.784 281.345 56.072C279.857 56.36 278.141 56.504 276.197 56.504C274.397 56.504 272.753 56.216 271.265 55.64C269.777 55.064 268.505 54.224 267.449 53.12C266.417 52.016 265.613 50.66 265.037 49.052C264.461 47.444 264.173 45.596 264.173 43.508C264.173 41.42 264.485 39.572 265.109 37.964C265.757 36.356 266.633 35 267.737 33.896C268.841 32.768 270.137 31.916 271.625 31.34C273.113 30.764 274.697 30.476 276.377 30.476C277.529 30.476 278.549 30.56 279.437 30.728C280.349 30.872 281.129 31.04 281.777 31.232C282.425 31.424 282.953 31.628 283.361 31.844C283.793 32.06 284.093 32.216 284.261 32.312L282.893 36.02C282.173 35.588 281.273 35.228 280.193 34.94C279.137 34.628 278.021 34.472 276.845 34.472ZM319.167 56C318.351 54.632 317.439 53.168 316.431 51.608C315.423 50.024 314.379 48.44 313.299 46.856C312.219 45.248 311.115 43.7 309.987 42.212C308.883 40.7 307.827 39.344 306.819 38.144V56H302.355V31.052H306.063C307.023 32.06 308.055 33.26 309.159 34.652C310.263 36.02 311.367 37.448 312.471 38.936C313.599 40.424 314.679 41.924 315.711 43.436C316.767 44.924 317.703 46.316 318.519 47.612V31.052H323.019V56H319.167ZM372.218 56.54C370.514 56.54 369.05 56.3 367.826 55.82C366.602 55.316 365.582 54.62 364.766 53.732C363.974 52.844 363.386 51.8 363.002 50.6C362.618 49.4 362.426 48.08 362.426 46.64V31.052H366.998V46.208C366.998 47.336 367.118 48.308 367.358 49.124C367.622 49.916 367.982 50.564 368.438 51.068C368.918 51.572 369.47 51.944 370.094 52.184C370.742 52.424 371.462 52.544 372.254 52.544C373.046 52.544 373.766 52.424 374.414 52.184C375.062 51.944 375.614 51.572 376.07 51.068C376.55 50.564 376.91 49.916 377.15 49.124C377.414 48.308 377.546 47.336 377.546 46.208V31.052H382.118V46.64C382.118 48.08 381.914 49.4 381.506 50.6C381.122 51.8 380.522 52.844 379.706 53.732C378.914 54.62 377.894 55.316 376.646 55.82C375.398 56.3 373.922 56.54 372.218 56.54ZM407.574 30.8C411.198 30.8 413.97 31.46 415.89 32.78C417.834 34.1 418.806 36.164 418.806 38.972C418.806 40.436 418.542 41.696 418.014 42.752C417.51 43.784 416.766 44.636 415.782 45.308C414.798 45.956 413.598 46.436 412.182 46.748C410.766 47.06 409.146 47.216 407.322 47.216H405.054V56H400.518V31.412C401.574 31.172 402.738 31.016 404.01 30.944C405.306 30.848 406.494 30.8 407.574 30.8ZM407.898 34.724C406.746 34.724 405.798 34.76 405.054 34.832V43.328H407.25C409.434 43.328 411.114 43.028 412.29 42.428C413.466 41.804 414.054 40.64 414.054 38.936C414.054 38.12 413.898 37.436 413.586 36.884C413.274 36.332 412.842 35.9 412.29 35.588C411.738 35.276 411.078 35.06 410.31 34.94C409.566 34.796 408.762 34.724 407.898 34.724Z" fill="#F9FBF9"/>
</g>
<defs>
<filter id="filter0_d_47_75" x="0" y="0" width="619" height="94" filterUnits="userSpaceOnUse" color-interpolation-filters="sRGB">
<feFlood flood-opacity="0" result="BackgroundImageFix"/>
<feColorMatrix in="SourceAlpha" type="matrix" values="0 0 0 0 0 0 0 0 0 0 0 0 0 0 0 0 0 0 127 0" result="hardAlpha"/>
<feOffset dy="4"/>
<feGaussianBlur stdDeviation="2.5"/>
<feComposite in2="hardAlpha" operator="out"/>
<feColorMatrix type="matrix" values="0 0 0 0 0 0 0 0 0 0 0 0 0 0 0 0 0 0 0.1 0"/>
<feBlend mode="normal" in2="BackgroundImageFix" result="effect1_dropShadow_47_75"/>
<feBlend mode="normal" in="SourceGraphic" in2="effect1_dropShadow_47_75" result="shape"/>
</filter>
</defs>
</svg>
