<svg width="698" height="574" viewBox="0 0 698 574" fill="none" xmlns="http://www.w3.org/2000/svg">
<g clip-path="url(#clip0_88_610)">
<path d="M22.3716 376.991C22.3716 376.991 144.821 379.375 224.563 345.703C304.304 312.032 365.684 379.681 435.778 384.411C511.418 389.516 520.183 363.225 577.34 372.807C634.497 382.39 724.904 376.991 724.904 376.991V400.261H22.3716V376.991Z" fill="#88C2C4"/>
<path d="M22.3716 467.525H724.904V452.389C724.904 452.389 679.374 446.059 595.211 459.957C511.049 473.854 393.627 436.837 335.409 436.752C277.191 436.667 112.781 451.412 22.3716 413.382V467.525Z" fill="#9FD0F8"/>
<path d="M551.484 438.984C551.514 442.751 550.799 446.487 549.381 449.975C547.962 453.464 545.868 456.637 543.219 459.311C540.569 461.986 537.418 464.108 533.946 465.557C530.474 467.005 526.749 467.751 522.988 467.751C519.227 467.751 515.502 467.005 512.03 465.557C508.558 464.108 505.407 461.986 502.757 459.311C500.108 456.637 498.014 453.464 496.595 449.975C495.177 446.487 494.462 442.751 494.492 438.984C494.492 438.829 494.492 438.676 494.492 438.518L495.066 432.009C496.168 424.42 498.768 414.634 502.412 405.752L515.783 415.405L504.693 400.599C509.643 390.298 516.028 382.285 522.982 382.285C528.957 382.285 534.496 388.18 539.077 396.359L532.127 415.405L543.268 405.046C546.751 413.367 549.32 422.569 550.59 430.045L551.465 437.973C551.481 438.316 551.484 438.656 551.484 438.984Z" fill="#36B2D4"/>
<path d="M532.664 506.285C516.151 485.986 522.137 386.474 522.408 382.249L523.576 382.321C523.513 383.352 517.353 485.601 533.58 505.544L532.664 506.285Z" fill="#3D2772"/>
<path d="M521.732 453.333C503.637 451.726 497.534 438.824 497.475 438.693L498.015 438.45C498.072 438.576 504.048 451.174 521.791 452.749L521.732 453.333Z" fill="black"/>
<path d="M521.767 438.864L521.751 438.278C521.872 438.278 533.915 437.837 545.739 428.874L546.099 429.341C534.113 438.424 521.889 438.862 521.767 438.864Z" fill="black"/>
<path d="M521.725 425.197C511.907 424.097 504.421 418.76 504.345 418.71L504.687 418.236C504.761 418.288 512.13 423.537 521.792 424.618L521.725 425.197Z" fill="black"/>
<path d="M532.933 394.893L521.568 404.689L521.95 405.133L533.314 395.337L532.933 394.893Z" fill="black"/>
<path d="M89.9266 475.656C89.6837 457.744 83.1706 452.074 75.6266 445.509L74.9717 444.94C67.129 438.093 72.0804 425.141 72.1326 425.011L72.6723 425.226C72.6238 425.352 67.8145 437.929 75.3531 444.506L76.008 445.077C83.6564 451.733 90.2612 457.483 90.5077 475.658L89.9266 475.656Z" fill="black"/>
<path d="M113.783 480.758C113.491 480.008 106.701 462.287 112.329 452.924C113.682 450.673 115.535 448.693 117.327 446.778C122.297 441.468 126.588 436.88 118.846 428.579C115.321 424.795 113.664 419.797 114.301 414.843C114.785 411.081 116.548 407.816 118.903 406.328C126.98 401.223 124.661 392.994 120.778 382.75L121.318 382.541C125.29 393.032 127.658 401.481 119.207 406.825C116.994 408.223 115.334 411.33 114.873 414.919C114.258 419.697 115.859 424.53 119.263 428.177C127.381 436.875 122.7 441.871 117.745 447.171C115.974 449.064 114.146 451.021 112.82 453.22C107.34 462.337 114.249 480.358 114.319 480.538L113.783 480.758Z" fill="black"/>
<path d="M103.706 479.95C100.288 461.092 101.995 452.507 103.247 446.239C103.569 444.63 103.846 443.24 104.005 441.857C104.402 438.339 101.939 435.382 99.3268 432.254C96.9753 429.433 94.5428 426.514 93.9419 422.905C93.2996 419.045 96.4266 415.07 99.7371 410.863C102.99 406.729 106.353 402.455 105.982 398.25C105.622 394.148 103.562 390.053 101.57 386.09C99.4276 381.825 97.211 377.416 96.9501 372.816C96.4481 363.987 105.631 348.592 106.023 347.939L106.525 348.242C106.43 348.401 97.0419 364.135 97.5295 372.784C97.7849 377.261 99.9727 381.613 102.09 385.827C104.105 389.838 106.191 393.984 106.561 398.199C106.952 402.628 103.517 406.996 100.194 411.218C96.9663 415.322 93.9167 419.198 94.5158 422.802C95.0898 426.252 97.4701 429.108 99.773 431.871C102.472 435.1 105.005 438.148 104.579 441.916C104.419 443.325 104.14 444.725 103.814 446.347C102.573 452.569 100.871 461.09 104.275 479.836L103.706 479.95Z" fill="black"/>
<path d="M93.2594 482.222L92.6873 482.096C92.7323 481.893 97.1313 461.721 92.7071 451.873C91.2732 448.684 89.6231 445.597 87.7683 442.633C85.9259 439.608 84.5945 437.421 83.6554 433.224C82.6532 428.735 83.999 423.95 85.1865 419.728C85.9511 417.009 86.6744 414.441 86.6744 412.304C86.6744 410.167 84.8752 407.39 82.781 404.185C79.9239 399.799 76.3669 394.341 76.3687 388.431H76.9534C76.9534 394.167 80.3089 399.318 83.2721 403.864C85.4114 407.147 87.2591 409.991 87.2591 412.304C87.2591 414.522 86.5251 417.128 85.7496 419.888C84.5802 424.042 83.2559 428.752 84.2275 433.096C85.1451 437.199 86.4549 439.35 88.2685 442.329C90.1364 445.313 91.7979 448.422 93.2414 451.634C97.7574 461.659 93.4502 481.388 93.2594 482.222Z" fill="black"/>
<path d="M122.112 442.981C122.112 442.981 127.101 430.813 143.551 440.486C143.551 440.486 134.935 453.517 122.112 442.981Z" fill="#3E3087"/>
<path d="M132.029 447.387C128.698 447.387 125.309 445.987 121.926 443.208L121.759 443.069L121.842 442.869C122.473 441.517 123.37 440.305 124.48 439.308C125.589 438.31 126.888 437.547 128.299 437.064C132.518 435.638 137.7 436.703 143.7 440.231L143.966 440.388L143.786 440.648C143.633 440.878 139.968 446.324 133.79 447.253C133.207 447.342 132.618 447.387 132.029 447.387V447.387ZM122.473 442.896C126.262 445.96 130.04 447.221 133.707 446.68C138.883 445.902 142.322 441.667 143.126 440.583C137.403 437.274 132.482 436.28 128.497 437.622C124.639 438.914 122.874 442.078 122.473 442.896Z" fill="#383A00"/>
<path d="M84.7674 455.075C84.7674 455.075 76.824 444.601 93.4862 435.301C93.4862 435.301 100.334 449.347 84.7674 455.075Z" fill="#3E3087"/>
<path d="M84.6645 455.425L84.535 455.245C83.6904 454.014 83.1025 452.625 82.8063 451.161C82.5101 449.697 82.5119 448.189 82.8114 446.725C83.7236 442.361 87.268 438.428 93.3438 435.037L93.6137 434.887L93.7486 435.165C93.871 435.413 96.6993 441.338 94.3694 447.144C92.9012 450.803 89.7041 453.562 84.8678 455.342L84.6645 455.425ZM93.3492 435.716C87.6044 438.981 84.2525 442.724 83.3871 446.846C82.5487 450.834 84.3767 453.96 84.8786 454.72C89.4324 453 92.4352 450.38 93.826 446.933C95.7781 442.066 93.8764 436.959 93.3492 435.716Z" fill="#383A00"/>
<path d="M102.114 386.534C102.114 386.534 94.1706 376.06 110.833 366.76C110.833 366.76 117.681 380.806 102.114 386.534Z" fill="#3E3087"/>
<path d="M102.011 386.883L101.881 386.703C101.037 385.472 100.449 384.083 100.153 382.619C99.857 381.155 99.8585 379.647 100.157 378.184C101.071 373.82 104.614 369.886 110.69 366.495L110.96 366.344L111.097 366.623C111.217 366.872 114.047 372.796 111.715 378.602C110.247 382.263 107.05 385.02 102.214 386.8L102.011 386.883ZM110.695 367.174C104.951 370.438 101.599 374.182 100.733 378.303C99.8948 382.292 101.725 385.418 102.225 386.179C106.778 384.458 109.781 381.838 111.172 378.393C113.126 373.524 111.224 368.418 110.695 367.174V367.174Z" fill="#383A00"/>
<path d="M52.0459 432.739C52.0459 432.739 62.3714 424.609 71.9323 441.141C71.9323 441.141 58.0246 448.232 52.0459 432.739Z" fill="#3E3087"/>
<path d="M64.8122 443.06C63.2083 443.072 61.6159 442.788 60.1145 442.222C56.437 440.812 53.6285 437.657 51.7717 432.844L51.6943 432.642L51.8743 432.509C53.0875 431.646 54.4616 431.036 55.9149 430.715C57.3683 430.395 58.8711 430.371 60.334 430.644C64.7061 431.485 68.6913 434.968 72.1781 440.995L72.3328 441.264L72.0575 441.404C69.7889 442.47 67.3179 443.035 64.8122 443.06V443.06ZM52.3978 432.844C54.197 437.374 56.8544 440.343 60.3142 441.673C65.2026 443.549 70.2764 441.559 71.5124 441.012C68.1533 435.307 64.357 432.013 60.2243 431.217C56.2319 430.449 53.1499 432.328 52.4014 432.844H52.3978Z" fill="#383A00"/>
<path d="M87.9036 393.399C87.9036 393.399 100.951 391.894 100.446 410.992C100.446 410.992 84.8899 409.742 87.9036 393.399Z" fill="#3E3087"/>
<path d="M100.73 411.31L100.423 411.284C100.147 411.261 93.6162 410.679 89.8163 405.711C87.4198 402.58 86.6804 398.419 87.6159 393.347L87.6555 393.134L87.8714 393.109C89.359 393.01 90.8514 393.212 92.2594 393.703C93.6674 394.194 94.9622 394.964 96.0667 395.967C99.3502 398.978 100.925 404.036 100.745 411L100.73 411.31ZM88.1521 393.677C87.3083 398.479 88.0244 402.407 90.2805 405.354C93.4669 409.52 98.8231 410.484 100.162 410.663C100.286 404.048 98.7781 399.252 95.6781 396.405C92.6807 393.651 89.0643 393.628 88.1521 393.677Z" fill="#383A00"/>
<path d="M94.8013 453.364C94.8013 453.364 107.277 449.255 110.634 468.062C110.629 468.062 95.1395 469.97 94.8013 453.364Z" fill="#3E3087"/>
<path d="M109.151 468.425C106.893 468.425 102.557 467.991 99.1528 465.038C96.1752 462.454 94.6135 458.528 94.5073 453.369V453.153L94.7124 453.086C96.1495 452.687 97.6522 452.583 99.1305 452.779C100.609 452.975 102.032 453.468 103.316 454.228C107.139 456.515 109.698 461.151 110.92 468.009L110.973 468.313L110.668 468.351C110.164 468.405 109.657 468.43 109.151 468.425V468.425ZM95.0993 453.585C95.2396 458.45 96.7311 462.158 99.5325 464.591C103.491 468.025 108.935 467.888 110.283 467.796C109.072 461.292 106.63 456.9 103.021 454.738C99.5289 452.644 95.9791 453.358 95.0993 453.585V453.585Z" fill="#383A00"/>
<path d="M125.094 399.207C125.094 399.207 121.834 388.395 138.644 385.386C138.644 385.386 139.396 401.971 125.094 399.207Z" fill="#3E3087"/>
<path d="M128.135 399.81C127.096 399.804 126.059 399.699 125.04 399.495L124.86 399.461L124.81 399.291C124.508 398.057 124.456 396.776 124.655 395.521C124.854 394.266 125.301 393.064 125.97 391.985C128.081 388.538 132.325 386.219 138.586 385.098L138.916 385.039L138.93 385.374C138.946 385.707 139.247 393.567 134.612 397.574C132.905 399.063 130.729 399.81 128.135 399.81ZM125.332 398.954C129.06 399.637 132.055 399.023 134.241 397.131C138.131 393.763 138.36 387.286 138.356 385.738C132.453 386.851 128.461 389.055 126.481 392.293C125.266 394.286 124.854 396.668 125.332 398.954V398.954Z" fill="#383A00"/>
<path d="M121.053 384.411C107.03 375.868 124.831 362.298 124.831 362.298C124.831 362.298 135.326 375.366 121.053 384.411Z" fill="#3E3087"/>
<path d="M121.055 384.757L120.901 384.662C117.403 382.53 115.548 379.894 115.39 376.824C115.01 369.508 124.269 362.366 124.663 362.066L124.89 361.886L125.069 362.108C125.262 362.348 129.771 368.054 128.677 374.64C128.027 378.555 125.514 381.923 121.21 384.653L121.055 384.757ZM124.787 362.713C123.348 363.879 115.642 370.409 115.971 376.791C116.117 379.611 117.824 382.058 121.046 384.064C125.109 381.447 127.48 378.249 128.096 374.553C129.031 368.957 125.611 363.848 124.787 362.713Z" fill="#383A00"/>
<path d="M105.524 345.464C105.524 345.464 89.9683 341.192 91.2223 346.725C92.4764 352.259 99.4986 355.014 103.516 349.992C103.516 349.992 97.7462 360.803 108.534 359.037C119.322 357.272 113.804 348.736 110.542 348.226C110.542 348.226 119.324 346.718 117.066 341.199C114.808 335.68 107.546 334.155 105.524 345.464Z" fill="white"/>
<path d="M106.379 359.518C104.477 359.518 103.14 358.978 102.383 357.927C101.07 356.088 101.876 353.147 102.575 351.365C101.785 352.032 100.849 352.504 99.8429 352.742C98.8369 352.98 97.789 352.978 96.7839 352.736C95.3518 352.391 94.0449 351.651 93.0114 350.6C91.9779 349.549 91.2591 348.229 90.9365 346.79C90.735 345.902 90.9167 345.181 91.4763 344.646C93.9393 342.287 103.421 344.615 105.296 345.103C106.262 340.058 108.455 337.013 111.339 336.707C113.752 336.451 116.165 338.211 117.34 341.085C117.89 342.437 117.861 343.678 117.253 344.779C116.1 346.86 113.173 347.88 111.609 348.293C113.374 349.205 115.17 351.626 115.181 353.99C115.181 355.58 114.34 358.389 108.585 359.327C107.856 359.45 107.118 359.513 106.379 359.518ZM103.288 349.803L103.776 350.123C103.749 350.174 101.125 355.158 102.86 357.587C103.738 358.819 105.632 359.209 108.488 358.744C113.547 357.918 114.605 355.7 114.594 353.987C114.581 351.361 112.075 348.761 110.497 348.516L108.721 348.244L110.494 347.938C110.54 347.938 115.303 347.082 116.739 344.489C117.257 343.552 117.278 342.48 116.794 341.303C115.715 338.671 113.556 337.06 111.397 337.285C108.73 337.568 106.694 340.568 105.809 345.514L105.753 345.831L105.443 345.747C105.332 345.716 94.3172 342.727 91.8757 345.064C91.4709 345.451 91.3503 345.965 91.505 346.655C91.8017 347.988 92.4656 349.211 93.4213 350.184C94.3769 351.158 95.5862 351.845 96.9116 352.165C99.3243 352.718 101.647 351.859 103.288 349.803Z" fill="#3E3087"/>
<path d="M74.4136 390.693C68.8937 395.97 65.3799 398.734 62.3698 392.453C59.3598 386.172 72.6558 385.919 72.6558 385.919C72.6558 385.919 63.1201 376.872 72.1556 373.355C81.1911 369.838 78.6866 384.411 78.6866 384.411C78.6866 384.411 87.8265 373.355 91.1604 379.636C94.4943 385.918 80.4445 388.683 80.4445 388.683C80.4445 388.683 88.4724 391.1 80.9446 398.289C73.4168 405.479 74.4136 390.693 74.4136 390.693Z" fill="white"/>
<path d="M77.4264 400.552C77.1095 400.554 76.7962 400.486 76.5088 400.352C74.0799 399.212 74.0295 393.476 74.0943 391.408C70.8413 394.489 68.1426 396.734 65.818 396.307C64.4074 396.05 63.1966 394.83 62.1171 392.579C61.4928 391.276 61.4874 390.112 62.0991 389.118C63.8119 386.334 69.9328 385.766 71.9946 385.653C70.7208 384.316 67.4103 380.449 68.0742 377.063C68.416 375.319 69.7564 373.98 72.063 373.083C74.2076 372.247 75.9168 372.335 77.1475 373.341C79.7617 375.483 79.3929 381.164 79.1266 383.476C80.7872 381.629 85.2438 377.081 88.6461 377.433C89.83 377.553 90.7673 378.247 91.4312 379.499C92.0951 380.752 92.1509 381.957 91.6112 383.103C90.0423 386.404 83.8261 388.193 81.4385 388.77C82.4389 389.249 83.9574 390.239 84.3712 391.934C84.8228 393.828 83.7415 396.039 81.1597 398.505C79.7077 399.866 78.4627 400.552 77.4264 400.552ZM74.7618 389.959L74.7114 390.714C74.5621 392.909 74.6412 398.823 76.7571 399.821C77.716 400.271 79.0582 399.684 80.7405 398.077C83.1604 395.765 84.1859 393.752 83.7865 392.069C83.2629 389.867 80.386 388.974 80.3572 388.963L79.2309 388.622L80.3842 388.395C80.4742 388.377 89.283 386.604 91.0678 382.845C91.532 381.869 91.4762 380.863 90.8987 379.782C90.3211 378.701 89.5637 378.123 88.5723 378.022C84.7167 377.652 78.9683 384.536 78.9107 384.606L78.2108 385.453L78.3907 384.372C78.4051 384.291 79.7473 376.247 76.7715 373.804C75.7171 372.941 74.2022 372.885 72.2735 373.638C70.1666 374.458 68.9468 375.651 68.6463 377.184C67.9069 380.955 72.8204 385.669 72.869 385.716L73.389 386.208L72.6693 386.222C72.5884 386.222 64.4524 386.413 62.5939 389.435C62.0865 390.258 62.1009 391.208 62.6406 392.334C63.6338 394.404 64.7061 395.518 65.9188 395.74C68.1048 396.145 70.8521 393.709 74.2184 390.491L74.7618 389.959Z" fill="#3E3087"/>
<path d="M78.5366 387.654C78.84 386.367 78.044 385.077 76.7587 384.773C75.4734 384.469 74.1856 385.266 73.8823 386.554C73.5789 387.841 74.3749 389.131 75.6602 389.434C76.9455 389.738 78.2333 388.941 78.5366 387.654Z" fill="white"/>
<path d="M76.2083 389.807C75.6773 389.807 75.1582 389.65 74.7168 389.354C74.2753 389.059 73.9312 388.639 73.7281 388.147C73.525 387.656 73.4719 387.115 73.5756 386.594C73.6794 386.072 73.9352 385.593 74.3108 385.217C74.6864 384.842 75.1649 384.586 75.6857 384.482C76.2066 384.379 76.7464 384.432 77.2368 384.636C77.7273 384.84 78.1464 385.184 78.4412 385.627C78.7359 386.069 78.8931 386.589 78.8927 387.121C78.8917 387.833 78.6086 388.516 78.1053 389.02C77.602 389.524 76.9198 389.807 76.2083 389.807V389.807ZM76.2083 385.018C75.793 385.018 75.3868 385.141 75.0413 385.372C74.6958 385.602 74.4264 385.931 74.2672 386.315C74.108 386.699 74.0662 387.122 74.147 387.53C74.2278 387.938 74.4276 388.313 74.7212 388.607C75.0148 388.901 75.3889 389.102 75.7962 389.183C76.2036 389.264 76.6258 389.223 77.0096 389.064C77.3934 388.905 77.7214 388.635 77.9522 388.289C78.183 387.943 78.3062 387.537 78.3062 387.121C78.3057 386.564 78.0846 386.029 77.6913 385.635C77.298 385.241 76.7647 385.019 76.2083 385.018V385.018Z" fill="black"/>
<path d="M106.277 350.493C107.597 350.493 108.668 349.42 108.668 348.098C108.668 346.775 107.597 345.703 106.277 345.703C104.956 345.703 103.886 346.775 103.886 348.098C103.886 349.42 104.956 350.493 106.277 350.493Z" fill="white"/>
<path d="M106.277 350.786C105.746 350.786 105.227 350.629 104.786 350.333C104.344 350.038 104 349.618 103.797 349.127C103.594 348.636 103.541 348.095 103.644 347.574C103.748 347.052 104.004 346.573 104.379 346.197C104.754 345.821 105.233 345.565 105.753 345.461C106.274 345.358 106.814 345.411 107.304 345.614C107.795 345.818 108.214 346.162 108.509 346.604C108.804 347.047 108.962 347.566 108.962 348.098C108.961 348.811 108.677 349.494 108.174 349.998C107.671 350.502 106.989 350.786 106.277 350.786ZM106.277 345.997C105.862 345.997 105.456 346.12 105.111 346.35C104.766 346.581 104.497 346.909 104.338 347.293C104.179 347.677 104.137 348.099 104.218 348.507C104.298 348.914 104.498 349.289 104.791 349.583C105.085 349.877 105.458 350.077 105.865 350.159C106.272 350.24 106.694 350.198 107.078 350.039C107.461 349.88 107.789 349.611 108.02 349.265C108.25 348.92 108.373 348.514 108.373 348.098C108.373 347.541 108.152 347.007 107.759 346.614C107.366 346.22 106.833 345.998 106.277 345.997V345.997Z" fill="black"/>
<path d="M115.048 413.195C115.048 413.195 99.4917 408.922 100.746 414.456C102 419.989 109.022 422.745 113.04 417.723C113.04 417.723 107.27 428.534 118.058 426.77C128.845 425.006 123.327 416.467 120.065 415.959C120.065 415.959 128.847 414.45 126.589 408.922C124.331 403.394 117.07 401.888 115.048 413.195Z" fill="white"/>
<path d="M115.902 427.249C114 427.249 112.663 426.717 111.904 425.658C110.592 423.818 111.399 420.878 112.098 419.096C111.308 419.763 110.372 420.235 109.366 420.473C108.36 420.712 107.312 420.709 106.307 420.467C104.875 420.122 103.568 419.382 102.534 418.331C101.501 417.28 100.782 415.96 100.459 414.521C100.258 413.634 100.44 412.911 100.999 412.376C103.462 410.018 112.944 412.346 114.819 412.836C115.785 407.8 117.978 404.745 120.862 404.439C123.271 404.187 125.686 405.942 126.861 408.818C127.413 410.167 127.384 411.411 126.774 412.51C125.623 414.591 122.696 415.613 121.132 416.023C122.897 416.935 124.693 419.357 124.704 421.721C124.704 423.312 123.861 426.119 118.106 427.058C117.378 427.181 116.64 427.245 115.902 427.249V427.249ZM112.811 417.533L113.298 417.856C113.271 417.906 110.648 422.888 112.381 425.317C113.262 426.55 115.155 426.939 118.011 426.474C123.07 425.649 124.128 423.433 124.115 421.717C124.104 419.092 121.596 416.492 120.02 416.249L118.244 415.975L120.015 415.668C120.063 415.668 124.826 414.812 126.262 412.22C126.78 411.283 126.801 410.21 126.317 409.034C125.238 406.401 123.079 404.79 120.92 405.016C118.253 405.299 116.219 408.299 115.342 413.247L115.285 413.562L114.977 413.477C114.866 413.447 103.849 410.457 101.409 412.796C101.005 413.184 100.884 413.697 101.039 414.385C101.335 415.719 101.999 416.942 102.954 417.916C103.91 418.89 105.12 419.576 106.445 419.896C108.847 420.451 111.17 419.589 112.811 417.533Z" fill="#3E3087"/>
<path d="M116.715 418.041C117.935 417.535 118.514 416.134 118.009 414.912C117.504 413.69 116.105 413.11 114.885 413.616C113.665 414.122 113.085 415.523 113.591 416.745C114.096 417.967 115.495 418.547 116.715 418.041Z" fill="white"/>
<path d="M115.801 418.517C115.27 418.517 114.751 418.359 114.309 418.064C113.868 417.769 113.524 417.349 113.321 416.857C113.117 416.366 113.064 415.826 113.168 415.304C113.271 414.783 113.527 414.304 113.902 413.928C114.278 413.552 114.756 413.296 115.277 413.192C115.798 413.088 116.337 413.141 116.828 413.345C117.318 413.548 117.738 413.893 118.033 414.335C118.328 414.777 118.485 415.297 118.485 415.829C118.484 416.541 118.201 417.225 117.698 417.729C117.194 418.233 116.512 418.516 115.801 418.517V418.517ZM115.801 413.728C115.386 413.729 114.981 413.854 114.636 414.086C114.292 414.319 114.025 414.648 113.867 415.032C113.71 415.417 113.669 415.839 113.752 416.247C113.834 416.654 114.035 417.028 114.329 417.321C114.623 417.614 114.997 417.813 115.404 417.894C115.812 417.974 116.233 417.931 116.616 417.772C117 417.612 117.327 417.342 117.557 416.996C117.787 416.651 117.91 416.244 117.909 415.829C117.909 415.552 117.854 415.278 117.748 415.022C117.642 414.767 117.486 414.535 117.29 414.34C117.095 414.144 116.862 413.99 116.606 413.885C116.351 413.78 116.077 413.726 115.801 413.728V413.728Z" fill="#3E3087"/>
<path d="M71.7133 422.431C71.7133 422.431 60.3407 419.308 61.2582 423.348C62.1758 427.388 67.3107 429.412 70.2452 425.737C70.2452 425.737 66.0261 433.635 73.9137 432.35C81.8013 431.066 77.7658 424.818 75.3819 424.451C75.3819 424.451 81.8013 423.348 80.1497 419.308C78.498 415.269 73.1904 414.164 71.7133 422.431Z" fill="white"/>
<path d="M72.3373 432.782C70.9213 432.782 69.9192 432.382 69.3506 431.586C68.4348 430.303 68.8972 428.31 69.383 426.98C68.8075 427.413 68.1436 427.713 67.4388 427.859C66.7339 428.005 66.0057 427.993 65.306 427.824C64.2441 427.568 63.275 427.019 62.5089 426.239C61.7428 425.459 61.2103 424.48 60.9718 423.413C60.8189 422.735 60.9574 422.184 61.3874 421.771C63.1866 420.039 69.8094 421.627 71.4827 422.065C72.2023 418.396 73.8216 416.173 75.9536 415.947C77.7528 415.753 79.552 417.061 80.421 419.191C80.833 420.202 80.8115 421.133 80.3527 421.958C79.5412 423.425 77.5531 424.182 76.3639 424.515C77.6233 425.258 78.8413 426.975 78.8485 428.66C78.8485 429.849 78.226 431.944 73.9601 432.64C73.4238 432.73 72.8811 432.778 72.3373 432.782V432.782ZM70.0163 425.553L70.5039 425.874C70.4841 425.91 68.5896 429.512 69.8274 431.247C70.4517 432.121 71.8065 432.393 73.8666 432.06C76.7453 431.589 78.271 430.415 78.2638 428.661C78.2638 426.778 76.4646 424.913 75.3365 424.741L73.5625 424.467L75.3311 424.162C75.3653 424.162 78.8108 423.542 79.8417 421.679C80.2141 421.007 80.2249 420.266 79.8777 419.418C79.1184 417.556 77.5387 416.371 76.0148 416.535C74.1041 416.738 72.6413 418.908 72.0008 422.481L71.9432 422.798L71.6356 422.713C69.3902 422.095 63.2442 420.802 61.7922 422.194C61.5188 422.458 61.4324 422.814 61.5421 423.276C61.7567 424.235 62.2351 425.114 62.9233 425.815C63.6114 426.515 64.4817 427.009 65.4356 427.24C67.1718 427.649 68.8361 427.04 70.0163 425.553Z" fill="#3E3087"/>
<path d="M72.2625 426.109C73.2283 426.109 74.0113 425.325 74.0113 424.357C74.0113 423.39 73.2283 422.606 72.2625 422.606C71.2966 422.606 70.5137 423.39 70.5137 424.357C70.5137 425.325 71.2966 426.109 72.2625 426.109Z" fill="white"/>
<path d="M72.2613 426.319C71.873 426.319 71.4934 426.204 71.1705 425.988C70.8477 425.771 70.5961 425.464 70.4476 425.105C70.2991 424.746 70.2603 424.35 70.3362 423.969C70.4121 423.587 70.5992 423.237 70.8739 422.962C71.1486 422.687 71.4985 422.5 71.8794 422.425C72.2603 422.349 72.655 422.388 73.0137 422.537C73.3723 422.686 73.6788 422.939 73.8943 423.262C74.1097 423.586 74.2246 423.966 74.2242 424.355C74.2237 424.876 74.0167 425.376 73.6486 425.744C73.2806 426.112 72.7816 426.319 72.2613 426.319V426.319ZM72.2613 422.818C71.9577 422.818 71.661 422.908 71.4086 423.077C71.1562 423.246 70.9595 423.486 70.8434 423.767C70.7272 424.048 70.6968 424.357 70.756 424.655C70.8153 424.953 70.9614 425.227 71.1761 425.442C71.3907 425.657 71.6642 425.803 71.9619 425.862C72.2596 425.922 72.5681 425.891 72.8486 425.775C73.129 425.659 73.3687 425.462 73.5373 425.209C73.706 424.956 73.796 424.659 73.796 424.355C73.795 423.948 73.633 423.558 73.3453 423.27C73.0577 422.982 72.6678 422.82 72.2613 422.82V422.818Z" fill="black"/>
<path d="M100.673 519.6C113.977 519.6 124.761 508.8 124.761 495.477C124.761 482.154 113.977 471.354 100.673 471.354C87.3703 471.354 76.5859 482.154 76.5859 495.477C76.5859 508.8 87.3703 519.6 100.673 519.6Z" fill="#3E3087"/>
<path d="M100.674 519.892C87.2309 519.892 76.2954 508.939 76.2954 495.477C76.2954 482.015 87.2309 471.062 100.674 471.062C114.118 471.062 125.053 482.013 125.053 495.477C125.053 508.94 114.118 519.892 100.674 519.892ZM100.674 471.647C87.5547 471.647 76.8801 482.338 76.8801 495.477C76.8801 508.616 87.5547 519.307 100.674 519.307C113.794 519.307 124.469 508.616 124.469 495.477C124.469 482.338 113.794 471.647 100.674 471.647Z" fill="#383A00"/>
<path d="M116.717 471.354H84.6304V477.941H116.717V471.354Z" fill="#3E3087"/>
<path d="M117.009 478.235H84.3374V471.062H117.009V478.235ZM84.9203 477.647H116.424V471.647H84.9221L84.9203 477.647Z" fill="#383A00"/>
<path d="M607.076 447.852C599.06 465.645 578.161 473.559 560.394 465.532C542.627 457.504 534.73 436.574 542.746 418.782C542.825 418.602 542.904 418.433 542.989 418.256L564.647 434.381L546.947 411.203C552.049 403.2 559.96 393.478 568.591 385.314L578.774 403.028L573.787 380.658C584.613 371.557 595.888 365.766 603.743 369.317C610.489 372.364 613.743 381.844 614.753 393.412L597.223 411.364L615.066 405.355C614.763 416.526 612.986 428.22 610.618 437.307L586.45 444.232L607.576 446.693C607.412 447.097 607.243 447.482 607.076 447.852Z" fill="#36B2D4"/>
<path d="M574.902 468.971C568.957 468.965 563.109 467.468 557.89 464.617C552.671 461.767 548.248 457.652 545.025 452.65C541.802 447.647 539.881 441.916 539.437 435.979C538.994 430.042 540.042 424.088 542.486 418.661C542.574 418.464 542.65 418.3 542.731 418.129L542.884 417.809L563.153 432.899L546.601 411.217L546.71 411.037C552.167 402.48 560.275 392.782 568.401 385.09L568.671 384.834L578.083 401.206L573.463 380.551L573.599 380.438C582.444 373.001 594.871 364.99 603.867 369.054C610.033 371.839 613.899 380.256 615.045 393.39L615.058 393.525L614.963 393.62L598.284 410.702L615.376 404.947L615.366 405.367C615.08 415.936 613.455 427.607 610.907 437.386L610.866 437.548L610.706 437.593L587.944 444.114L608.002 446.457L607.854 446.817C607.687 447.222 607.518 447.61 607.35 447.985C604.524 454.233 599.962 459.535 594.208 463.256C588.454 466.978 581.751 468.962 574.902 468.971V468.971ZM543.109 418.699L543.033 418.866C541.141 423.061 540.092 427.587 539.947 432.187C539.802 436.787 540.563 441.371 542.186 445.677C543.81 449.982 546.265 453.925 549.41 457.281C552.555 460.637 556.329 463.339 560.517 465.234C564.705 467.129 569.225 468.179 573.818 468.324C578.412 468.47 582.989 467.708 587.288 466.082C591.587 464.456 595.524 461.997 598.875 458.847C602.226 455.698 604.924 451.918 606.816 447.723V447.723C606.936 447.467 607.052 447.204 607.163 446.934L584.967 444.347L610.384 437.065C612.861 427.49 614.453 416.117 614.768 405.759L596.17 412.025L614.455 393.296C613.656 384.314 611.127 372.964 603.63 369.576C594.961 365.659 582.824 373.466 574.123 380.76L579.492 404.833L568.522 385.777C560.573 393.345 552.671 402.801 547.302 411.183L566.147 435.869L543.109 418.699Z" fill="#383A00"/>
<path d="M553.072 509.761C552.892 509.119 548.687 493.749 559.848 465.316C570.945 437.05 602.893 369.742 603.208 369.065L604.264 369.569C603.944 370.245 572.012 437.516 560.931 465.746C549.914 493.81 554.146 509.281 554.191 509.434L553.072 509.761Z" fill="#3D2772"/>
<path d="M575.998 428.954C565.843 413.686 561.366 398.165 561.323 398.01L561.782 397.878C561.825 398.033 566.28 413.486 576.395 428.69L575.998 428.954Z" fill="black"/>
<path d="M594.738 421.33C586.027 421.33 581.322 419.27 581.253 419.238L581.45 418.804C581.548 418.847 591.361 423.128 609.018 419.184L609.123 419.651C603.533 420.901 598.718 421.33 594.738 421.33Z" fill="black"/>
<path d="M591.615 394.195L585.048 377.076L585.495 376.905L592.06 394.023L591.615 394.195Z" fill="black"/>
<path d="M580.816 454.248C576.431 454.248 571.422 453.441 566.422 450.942L566.636 450.515C580.506 457.445 594.452 451.172 594.592 451.107L594.792 451.542C594.693 451.589 588.785 454.248 580.816 454.248Z" fill="black"/>
<path d="M110.369 31.1016H162.561C164.86 31.1016 167.065 32.0162 168.691 33.6443C170.316 35.2724 171.23 37.4805 171.23 39.783V67.7715L183.274 82.3667L163.894 74.078C163.894 74.078 107.082 70.923 106.079 69.7409C105.41 68.9517 103.181 52.0519 101.761 40.8659C101.608 39.6434 101.715 38.4022 102.078 37.2247C102.44 36.0473 103.049 34.9605 103.863 34.0369C104.677 33.1132 105.678 32.3737 106.8 31.8676C107.922 31.3615 109.138 31.1003 110.369 31.1016V31.1016Z" fill="white"/>
<path d="M184.265 83.1057L163.825 74.372C154.199 73.8314 106.886 71.1484 105.855 69.934C105.648 69.6907 105.018 68.9483 101.478 40.9058C101.318 39.6424 101.429 38.3595 101.803 37.1423C102.176 35.9251 102.805 34.8016 103.646 33.8464C104.486 32.8912 105.521 32.1262 106.68 31.6024C107.839 31.0785 109.096 30.8078 110.367 30.8081H162.56C164.936 30.8105 167.215 31.7568 168.895 33.4394C170.575 35.122 171.521 37.4034 171.524 39.7832V67.6672L184.265 83.1057ZM110.367 31.3937C109.179 31.3938 108.004 31.6472 106.921 32.137C105.838 32.6268 104.871 33.3417 104.085 34.2344C103.299 35.1271 102.712 36.1771 102.362 37.3146C102.012 38.4521 101.908 39.6511 102.057 40.8319C105.204 65.7518 106.076 69.224 106.305 69.5592C107.649 70.3826 141.495 72.5449 163.909 73.7882L164.007 73.8116L182.279 81.6209L170.944 67.8798V39.7832C170.942 37.5577 170.058 35.4241 168.485 33.851C166.913 32.278 164.782 31.3942 162.56 31.3937H110.367Z" fill="#4186FF"/>
<path d="M110.601 42.6609C110.601 44.8808 112.788 46.6809 115.485 46.6809H148.376C151.075 46.6809 153.261 44.879 153.261 42.6609C153.261 40.4392 151.073 38.6392 148.376 38.6392H115.485C112.788 38.6392 110.601 40.4392 110.601 42.6609Z" fill="#A1E4F5"/>
<path d="M115.255 57.4848C115.255 59.7065 117.441 61.5066 120.138 61.5066H139.499C142.198 61.5066 144.382 59.7047 144.382 57.4848C144.382 55.2649 142.196 53.4648 139.499 53.4648H120.138C117.441 53.4648 115.255 55.2649 115.255 57.4848Z" fill="#A1E4F5"/>
<path d="M324.183 315.565H584.258C584.258 315.565 551.833 292.447 501.986 304.006C501.99 304.006 423.815 236.416 324.183 315.565Z" fill="#E4F7FE"/>
<path d="M497.742 513.371H595.211C595.211 513.371 556.694 490.572 497.742 513.371Z" fill="#9FD0F8"/>
<path d="M85.2344 543.192H182.704C182.704 543.192 144.187 520.391 85.2344 543.192Z" fill="#9FD0F8"/>
<path d="M57.3076 528.048H257.471C257.471 528.048 218.139 508.948 178.591 521.011C178.591 521.011 105.036 501.915 57.3076 528.048Z" fill="#9FD0F8"/>
<path d="M150.973 362.374C117.823 362.45 142.389 317.232 142.389 317.232C142.389 317.232 136.59 300.655 144.274 292.105C144.274 292.105 135.701 269.026 149.057 267.086C159.388 265.583 155.088 293.611 155.088 293.611C155.088 293.611 163.841 305.938 159.388 318.74C159.388 318.747 189.63 362.286 150.973 362.374Z" fill="#36B2D4"/>
<path d="M149.332 275.518L148.748 275.542L153.017 380.163L153.601 380.139L149.332 275.518Z" fill="black"/>
<path d="M152.125 351.19C147.125 351.01 143.423 349.541 141.116 346.8C138.003 343.103 138.597 338.494 138.621 338.299L139.2 338.379C139.2 338.424 138.624 342.934 141.568 346.427C143.763 349.033 147.325 350.438 152.147 350.604L152.125 351.19Z" fill="black"/>
<path d="M152.201 341.139L152.071 340.566C158.521 339.125 160.373 331.768 160.391 331.694L160.959 331.833C160.941 331.91 159.002 339.609 152.201 341.139Z" fill="black"/>
<path d="M142.599 305.474L142.175 305.877L150.759 314.904L151.182 314.501L142.599 305.474Z" fill="black"/>
<path d="M153.082 277.378L149.153 283.913L149.654 284.215L153.582 277.68L153.082 277.378Z" fill="black"/>
<path d="M294.206 514.279C338.075 514.279 373.638 510.413 373.638 505.645C373.638 500.876 338.075 497.01 294.206 497.01C250.337 497.01 214.773 500.876 214.773 505.645C214.773 510.413 250.337 514.279 294.206 514.279Z" fill="#9FD0F8"/>
<path d="M211.486 138.186C202.76 150.332 194.063 211.614 189.716 213.639C185.369 215.664 153.264 216.816 153.264 216.816C153.264 216.816 184.363 241.141 195.068 235.766C205.773 230.391 230.53 172.445 230.53 172.445L211.486 138.186Z" fill="#36B2D4"/>
<path d="M319.105 460.36L324.862 496.427C324.862 496.427 363.005 509.901 368.018 507.89C373.03 505.879 346.901 486.374 346.901 486.374L341.924 450.19L319.105 460.36Z" fill="#3E3087"/>
<path d="M366.556 508.378C357.92 508.378 326.218 497.207 324.772 496.702L324.606 496.645L318.78 460.195L342.17 449.772L347.184 486.223C349.901 488.253 369.494 503.059 368.954 507.186C368.925 507.41 368.833 507.621 368.69 507.796C368.546 507.97 368.356 508.1 368.141 508.171C367.63 508.336 367.092 508.406 366.556 508.378V508.378ZM325.13 496.207C327.859 497.165 363.222 509.499 367.916 507.618C368.034 507.586 368.139 507.519 368.219 507.427C368.299 507.334 368.349 507.22 368.364 507.099C368.789 503.856 352.891 491.208 346.732 486.61L346.635 486.536L346.617 486.415L341.693 450.618L319.432 460.537L325.13 496.207Z" fill="#383A00"/>
<path d="M241.955 461.195L246.165 501.703C246.165 501.703 208.022 515.177 203.01 513.168C197.997 511.159 224.125 491.652 224.125 491.652L219.132 451.025L241.955 461.195Z" fill="#3E3087"/>
<path d="M204.478 513.656C203.943 513.68 203.409 513.606 202.9 513.44C202.686 513.369 202.496 513.238 202.352 513.063C202.209 512.889 202.117 512.677 202.089 512.452C201.549 508.346 220.96 493.655 223.814 491.518L218.776 450.545L242.227 460.996L242.245 461.164L246.478 501.902L246.26 501.98C244.814 502.49 213.112 513.656 204.478 513.656ZM219.485 451.502L224.436 491.785L224.301 491.888C218.141 496.484 202.245 509.128 202.67 512.377C202.685 512.498 202.736 512.612 202.815 512.704C202.895 512.797 203 512.863 203.118 512.896C207.783 514.764 242.743 502.593 245.85 501.502L241.682 461.393L219.485 451.502Z" fill="#383A00"/>
<path d="M367.276 482.199H312.073L276.712 358.093L253.979 278.314L255.67 350.389L258.844 485.868H212.245C212.245 485.868 199.219 391.05 197.918 314.101C197.123 266.913 200.734 226.447 214.471 218.677C214.471 218.677 246.588 190.869 277.7 218.677C294.092 233.33 318.072 305.675 337.093 370.861C354.178 429.419 367.276 482.199 367.276 482.199Z" fill="#3E3087"/>
<path d="M259.145 486.163H211.988L211.952 485.909C211.822 484.961 198.91 390.194 197.625 314.108C196.668 257.426 202.287 225.232 214.323 218.428C214.358 218.392 222.49 211.428 234.334 207.978C245.278 204.785 261.719 204.014 277.89 218.468C294.7 233.492 319.513 309.594 337.37 370.789C354.264 428.682 367.416 481.605 367.553 482.145L367.643 482.506H311.861L311.8 482.293L254.334 280.611L255.973 350.396L259.145 486.163ZM212.501 485.578H258.546L255.381 350.398L253.634 276.029L312.287 481.907H366.887C365.694 477.122 352.958 426.303 336.801 370.946C318.968 309.825 294.202 233.824 277.495 218.899C261.525 204.623 245.289 205.385 234.494 208.533C222.772 211.956 214.735 218.832 214.656 218.902C202.782 225.629 197.254 257.643 198.206 314.097C199.462 388.212 211.752 480.071 212.499 485.578H212.501Z" fill="#383A00"/>
<path d="M277.631 217.05C277.649 217.59 277.673 218.14 277.696 218.672H214.467C214.467 218.672 207.109 166.713 211.124 139.75C211.867 134.778 216.077 130.697 222.099 127.677C238.393 119.496 267.934 119.104 277.694 129.852C284.603 137.479 276.543 183.998 277.631 217.05Z" fill="#36B2D4"/>
<path d="M221.746 82.0677C218.986 88.4481 215.596 102.162 222.106 116.483C226.215 125.529 219.947 134.059 219.947 134.059C219.947 134.059 229.482 126.534 225.922 115.051C220.74 98.335 224.808 92.2519 230.24 86.8319C235.671 81.4118 226.872 70.215 221.746 82.0677Z" fill="#423877"/>
<path d="M218.426 135.637L219.705 133.893C219.766 133.81 225.822 125.394 221.837 116.613C214.54 100.548 219.716 86.021 221.477 81.9506C223.53 77.2045 225.975 76.545 227.276 76.5342C229.104 76.554 230.844 77.945 231.711 80.0767C232.506 82.0353 232.589 84.8967 230.434 87.0481C225.247 92.2321 221.017 98.2666 226.195 114.977C229.773 126.509 220.218 134.225 220.123 134.302L218.426 135.637ZM227.242 77.1198C225.288 77.1198 223.437 78.9217 222.024 82.183C220.288 86.1976 215.187 100.524 222.384 116.37C225.358 122.918 222.949 129.252 221.341 132.322C223.84 129.594 228.201 123.374 225.659 115.147C220.383 98.1278 224.721 91.9474 230.041 86.6337C231.994 84.684 231.914 82.0821 231.189 80.2965C230.414 78.3847 228.883 77.1378 227.29 77.1216L227.242 77.1198Z" fill="#383A00"/>
<path d="M229.315 79.0985C218.851 83.3906 222.298 114.864 236.332 114.278V128.936C236.332 128.936 239.844 135.964 250.382 128.936C250.382 128.936 246.298 113.595 250.966 107.242C261.01 93.5874 259.448 66.7323 229.315 79.0985Z" fill="#FFABB8"/>
<path d="M242.078 132.355C241.407 132.357 240.739 132.272 240.09 132.102C239.251 131.89 238.465 131.512 237.775 130.989C237.086 130.467 236.509 129.811 236.077 129.061L236.047 129V114.574H235.95C229.197 114.574 225.207 107.366 223.715 100.519C221.799 91.7441 223.33 81.2248 229.204 78.8157L229.316 79.086L229.204 78.8157C243.841 72.81 250.642 76.3345 253.769 80.3491C259.276 87.4196 256.73 99.8976 251.214 107.404C246.68 113.572 250.635 128.695 250.674 128.846L250.728 129.048L250.548 129.165C247.383 131.29 244.544 132.355 242.078 132.355ZM236.631 128.855C237.448 130.183 238.746 131.143 240.253 131.533C242.925 132.238 246.223 131.317 250.053 128.796C249.564 126.872 246.275 113.12 250.739 107.058C256.136 99.7246 258.645 87.5656 253.306 80.7113C250.303 76.857 243.724 73.4948 229.426 79.3598C223.834 81.6536 222.422 91.8558 224.285 100.395C225.725 107.013 229.546 113.981 235.953 113.983C236.077 113.983 236.201 113.983 236.327 113.974L236.631 113.961V128.855Z" fill="#383A00"/>
<path d="M221.745 82.0681C221.745 82.0681 232.202 57.4419 254.865 77.2931C254.865 77.2931 262.601 62.7394 271.926 71.0118C280.708 78.8013 267.66 92.1189 260.886 87.025C260.886 87.025 263.646 100.662 250.53 108.428C250.53 108.428 251.729 88.899 244.577 93.3748C238.555 97.1443 246.083 86.8412 235.795 84.8322C230.898 83.8718 221.745 82.0681 221.745 82.0681Z" fill="#423877"/>
<path d="M250.205 108.962L250.239 108.409C250.239 108.279 250.996 95.351 247.501 93.2735C246.741 92.823 245.836 92.9383 244.733 93.6338C243.458 94.4321 242.699 94.6591 242.198 94.3942C241.614 94.0843 241.578 93.2248 241.535 92.1365C241.441 89.7796 241.301 86.2155 235.739 85.129C230.833 84.1704 221.689 82.3649 221.689 82.3649L221.33 82.2965L221.47 81.9631C221.513 81.8604 225.912 71.7267 234.964 69.6509C240.988 68.2689 247.654 70.6888 254.778 76.8458C255.635 75.3503 259.42 69.2563 264.674 68.3067C267.227 67.8455 269.728 68.6869 272.114 70.8023C276.885 75.0349 275.3 80.5595 272.491 84.0046C269.683 87.4498 264.888 89.7941 261.264 87.6462C261.604 90.5094 262.153 101.894 250.673 108.69L250.205 108.962ZM246.531 92.414C246.975 92.4141 247.41 92.5349 247.79 92.7635C251.193 94.7906 250.953 105.308 250.849 107.899C263.107 100.281 260.624 87.2246 260.597 87.0931L260.446 86.3363L261.061 86.7993C264.444 89.3436 269.246 87.0678 272.036 83.6317C274.679 80.3883 276.174 75.1953 271.723 71.2384C269.48 69.2563 267.142 68.4581 264.778 68.8815C259.19 69.8906 255.154 77.3647 255.115 77.4386L254.935 77.7648L254.658 77.5215C247.58 71.3231 240.997 68.8725 235.088 70.2203C227.236 72.0222 222.985 80.118 222.152 81.8604C223.901 82.2046 231.508 83.7073 235.838 84.5524C241.851 85.7272 242.011 89.7238 242.107 92.1113C242.139 92.9401 242.17 93.7221 242.457 93.8735C242.648 93.9726 243.141 93.9275 244.408 93.1347C245.177 92.6554 245.884 92.4152 246.531 92.414V92.414Z" fill="#383A00"/>
<path d="M247.052 92.7728C247.052 92.7728 253.276 90.3601 253.945 95.0503C254.614 99.7406 245.581 100.746 245.581 100.746" fill="#FFABB8"/>
<path d="M245.613 101.036L245.548 100.454C245.604 100.454 251.136 99.8033 253.05 97.3275C253.303 97.0185 253.487 96.6595 253.591 96.2742C253.695 95.8888 253.717 95.4858 253.655 95.0914C253.509 94.0698 253.067 93.3346 252.342 92.9094C250.443 91.7958 247.19 93.0337 247.158 93.0463L246.946 92.5057C247.09 92.4499 250.494 91.1525 252.637 92.4102C253.524 92.931 254.062 93.8067 254.234 95.0157C254.307 95.4879 254.28 95.97 254.156 96.4313C254.032 96.8926 253.814 97.323 253.515 97.6951C251.447 100.36 245.85 101.011 245.613 101.036Z" fill="#383A00"/>
<path d="M239.87 209.729H134.214V217.547H239.87V209.729Z" fill="#3E3087"/>
<path d="M240.164 217.843H133.922V209.435H240.164V217.843ZM134.509 217.257H239.581V210.022H134.509V217.257Z" fill="#383A00"/>
<g style="mix-blend-mode:multiply">
<g style="mix-blend-mode:multiply">
<g style="mix-blend-mode:multiply">
<path d="M277.696 147.55L236.68 127.689H277.696V147.55Z" fill="white"/>
</g>
<g style="mix-blend-mode:multiply">
<path d="M277.697 148.847L234.001 127.689H236.68L277.697 147.55V148.847Z" fill="white"/>
</g>
<g style="mix-blend-mode:multiply">
<path d="M277.696 150.144L231.322 127.689H234.001L277.696 148.847V150.144Z" fill="#FEFEFF"/>
</g>
<g style="mix-blend-mode:multiply">
<path d="M277.696 151.442L228.643 127.689H231.322L277.696 150.144V151.442Z" fill="#FDFEFF"/>
</g>
<g style="mix-blend-mode:multiply">
<path d="M277.696 152.739L225.964 127.689H228.643L277.696 151.442V152.739Z" fill="#FCFDFF"/>
</g>
<g style="mix-blend-mode:multiply">
<path d="M277.696 154.036L223.287 127.689H225.964L277.696 152.739V154.036Z" fill="#FBFDFF"/>
</g>
<g style="mix-blend-mode:multiply">
<path d="M277.696 155.334L220.608 127.689H223.287L277.696 154.036V155.334Z" fill="#FAFCFE"/>
</g>
<g style="mix-blend-mode:multiply">
<path d="M277.697 156.629L217.93 127.689H220.609L277.697 155.334V156.629Z" fill="#F9FBFE"/>
</g>
<g style="mix-blend-mode:multiply">
<path d="M277.696 157.927L215.25 127.689H217.929L277.696 156.629V157.927Z" fill="#F8FBFE"/>
</g>
<g style="mix-blend-mode:multiply">
<path d="M277.696 159.224L213.726 128.248L213.996 127.689H215.25L277.696 157.927V159.224Z" fill="#F7FAFE"/>
</g>
<g style="mix-blend-mode:multiply">
<path d="M277.696 160.521L213.218 129.299L213.726 128.248L277.696 159.224V160.521Z" fill="#F6FAFE"/>
</g>
<g style="mix-blend-mode:multiply">
<path d="M277.697 161.819L212.71 130.351L213.219 129.298L277.697 160.521V161.819Z" fill="#F5F9FE"/>
</g>
<g style="mix-blend-mode:multiply">
<path d="M277.696 163.116L212.202 131.401L212.71 130.351L277.696 161.818V163.116Z" fill="#F4F8FE"/>
</g>
<g style="mix-blend-mode:multiply">
<path d="M277.696 164.413L211.694 132.454L212.202 131.401L277.696 163.116V164.413Z" fill="#F3F8FE"/>
</g>
<g style="mix-blend-mode:multiply">
<path d="M277.695 165.709L211.186 133.504L211.693 132.454L277.695 164.413V165.709Z" fill="#F2F7FD"/>
</g>
<g style="mix-blend-mode:multiply">
<path d="M277.697 167.006L210.681 134.554L211.188 133.504L277.697 165.709V167.006Z" fill="#F1F7FD"/>
</g>
<g style="mix-blend-mode:multiply">
<path d="M277.697 168.304L210.174 135.607L210.681 134.555L277.697 167.006V168.304Z" fill="#F0F6FD"/>
</g>
<g style="mix-blend-mode:multiply">
<path d="M277.695 169.601L209.665 136.659L210.172 135.607L277.695 168.304V169.601Z" fill="#EFF5FD"/>
</g>
<g style="mix-blend-mode:multiply">
<path d="M277.696 170.898L209.158 137.71L209.665 136.659L277.696 169.601V170.898Z" fill="#EEF5FD"/>
</g>
<g style="mix-blend-mode:multiply">
<path d="M277.696 172.196L208.651 138.76L209.158 137.71L277.696 170.899V172.196Z" fill="#EDF4FD"/>
</g>
<g style="mix-blend-mode:multiply">
<path d="M277.696 173.493L208.143 139.813L208.65 138.76L277.696 172.196V173.493Z" fill="#ECF4FD"/>
</g>
<g style="mix-blend-mode:multiply">
<path d="M277.696 174.79L207.634 140.863L208.143 139.812L277.696 173.493V174.79Z" fill="#EBF3FD"/>
</g>
<g style="mix-blend-mode:multiply">
<path d="M277.697 176.086L207.127 141.915L207.634 140.863L277.697 174.79V176.086Z" fill="#EAF2FD"/>
</g>
<g style="mix-blend-mode:multiply">
<path d="M277.696 177.384L207.108 143.204V141.953L207.126 141.916L277.696 176.086V177.384Z" fill="#E9F2FC"/>
</g>
<g style="mix-blend-mode:multiply">
<path d="M277.696 178.681L207.108 144.501V143.204L277.696 177.383V178.681Z" fill="#E8F1FC"/>
</g>
<g style="mix-blend-mode:multiply">
<path d="M277.696 179.978L207.108 145.797V144.501L277.696 178.681V179.978Z" fill="#E7F0FC"/>
</g>
<g style="mix-blend-mode:multiply">
<path d="M277.696 181.275L207.108 147.094V145.796L277.696 179.978V181.275Z" fill="#E6F0FC"/>
</g>
<g style="mix-blend-mode:multiply">
<path d="M277.696 182.573L207.108 148.391V147.094L277.696 181.275V182.573Z" fill="#E5EFFC"/>
</g>
<g style="mix-blend-mode:multiply">
<path d="M277.696 183.87L207.108 149.688V148.391L277.696 182.573V183.87Z" fill="#E4EFFC"/>
</g>
<g style="mix-blend-mode:multiply">
<path d="M277.696 185.166L207.108 150.986V149.688L277.696 183.87V185.166Z" fill="#E3EEFC"/>
</g>
<g style="mix-blend-mode:multiply">
<path d="M277.696 186.463L207.108 152.283V150.986L277.696 185.166V186.463Z" fill="#E2EDFC"/>
</g>
<g style="mix-blend-mode:multiply">
<path d="M277.696 187.76L207.108 153.581V152.283L277.696 186.463V187.76Z" fill="#E1EDFC"/>
</g>
<g style="mix-blend-mode:multiply">
<path d="M277.696 189.058L207.108 154.876V153.581L277.696 187.76V189.058Z" fill="#E0ECFB"/>
</g>
<g style="mix-blend-mode:multiply">
<path d="M277.696 190.355L207.108 156.173V154.876L277.696 189.057V190.355Z" fill="#DFECFB"/>
</g>
<g style="mix-blend-mode:multiply">
<path d="M277.696 191.652L207.108 157.471V156.173L277.696 190.355V191.652Z" fill="#DEEBFB"/>
</g>
<g style="mix-blend-mode:multiply">
<path d="M277.696 192.95L207.108 158.768V157.471L277.696 191.652V192.95Z" fill="#DDEAFB"/>
</g>
<g style="mix-blend-mode:multiply">
<path d="M277.696 194.247L207.108 160.065V158.768L277.696 192.95V194.247Z" fill="#DCEAFB"/>
</g>
<g style="mix-blend-mode:multiply">
<path d="M277.696 195.544L207.108 161.363V160.065L277.696 194.247V195.544Z" fill="#DBE9FB"/>
</g>
<g style="mix-blend-mode:multiply">
<path d="M277.696 196.84L207.108 162.66V161.363L277.696 195.544V196.84Z" fill="#DAE9FB"/>
</g>
<g style="mix-blend-mode:multiply">
<path d="M277.696 198.137L207.108 163.958V162.66L277.696 196.84V198.137Z" fill="#D9E8FB"/>
</g>
<g style="mix-blend-mode:multiply">
<path d="M277.696 199.435L207.108 165.253V163.958L277.696 198.137V199.435Z" fill="#D8E7FA"/>
</g>
<g style="mix-blend-mode:multiply">
<path d="M277.696 200.732L207.108 166.55V165.253L277.696 199.434V200.732Z" fill="#D7E7FA"/>
</g>
<g style="mix-blend-mode:multiply">
<path d="M277.696 202.03L207.108 167.848V166.551L277.696 200.732V202.03Z" fill="#D6E6FA"/>
</g>
<g style="mix-blend-mode:multiply">
<path d="M277.696 203.327L207.108 169.145V167.848L277.696 202.029V203.327Z" fill="#D5E6FA"/>
</g>
<g style="mix-blend-mode:multiply">
<path d="M277.696 204.624L207.108 170.442V169.145L277.696 203.327V204.624Z" fill="#D4E5FA"/>
</g>
<g style="mix-blend-mode:multiply">
<path d="M277.696 205.92L207.108 171.74V170.443L277.696 204.624V205.92Z" fill="#D2E4FA"/>
</g>
<g style="mix-blend-mode:multiply">
<path d="M277.696 207.217L207.108 173.037V171.74L277.696 205.919V207.217Z" fill="#D1E4FA"/>
</g>
<g style="mix-blend-mode:multiply">
<path d="M277.696 208.514L207.108 174.333V173.037L277.696 207.217V208.514Z" fill="#D0E3FA"/>
</g>
<g style="mix-blend-mode:multiply">
<path d="M277.696 209.811L207.108 175.63V174.333L277.696 208.514V209.811Z" fill="#CFE3FA"/>
</g>
<g style="mix-blend-mode:multiply">
<path d="M277.696 211.109L207.108 176.927V175.63L277.696 209.811V211.109Z" fill="#CEE2F9"/>
</g>
<g style="mix-blend-mode:multiply">
<path d="M277.696 212.407L207.108 178.225V176.928L277.696 211.109V212.407Z" fill="#CDE1F9"/>
</g>
<g style="mix-blend-mode:multiply">
<path d="M277.696 213.704L207.108 179.522V178.225L277.696 212.406V213.704Z" fill="#CCE1F9"/>
</g>
<g style="mix-blend-mode:multiply">
<path d="M277.696 215.001L207.108 180.82V179.522L277.696 213.704V215.001Z" fill="#CBE0F9"/>
</g>
<g style="mix-blend-mode:multiply">
<path d="M277.696 216.296L207.108 182.117V180.819L277.696 215.001V216.296Z" fill="#CAE0F9"/>
</g>
<g style="mix-blend-mode:multiply">
<path d="M277.696 217.594L207.108 183.414V182.117L277.696 216.296V217.594Z" fill="#C9DFF9"/>
</g>
<g style="mix-blend-mode:multiply">
<path d="M277.257 218.679L207.108 184.712V183.415L277.696 217.594V218.679H277.257Z" fill="#C8DEF9"/>
</g>
<g style="mix-blend-mode:multiply">
<path d="M274.578 218.679L207.108 186.007V184.711L277.257 218.679H274.578Z" fill="#C7DEF9"/>
</g>
<g style="mix-blend-mode:multiply">
<path d="M271.899 218.679L207.108 187.305V186.007L274.578 218.679H271.899Z" fill="#C6DDF8"/>
</g>
<g style="mix-blend-mode:multiply">
<path d="M269.222 218.678L207.108 188.602V187.304L271.899 218.678H269.222Z" fill="#C5DDF8"/>
</g>
<g style="mix-blend-mode:multiply">
<path d="M266.543 218.678L207.108 189.899V188.602L269.222 218.678H266.543Z" fill="#C4DCF8"/>
</g>
<g style="mix-blend-mode:multiply">
<path d="M263.864 218.679L207.108 191.197V189.899L266.543 218.679H263.864Z" fill="#C3DBF8"/>
</g>
<g style="mix-blend-mode:multiply">
<path d="M261.185 218.679L207.108 192.494V191.196L263.864 218.679H261.185Z" fill="#C2DBF8"/>
</g>
<g style="mix-blend-mode:multiply">
<path d="M258.506 218.678L207.108 193.791V192.494L261.185 218.678H258.506Z" fill="#C1DAF8"/>
</g>
<g style="mix-blend-mode:multiply">
<path d="M255.827 218.678L207.108 195.088V193.791L258.506 218.678H255.827Z" fill="#C0DAF8"/>
</g>
<g style="mix-blend-mode:multiply">
<path d="M253.15 218.679L207.108 196.384V195.088L255.827 218.679H253.15Z" fill="#BFD9F8"/>
</g>
<g style="mix-blend-mode:multiply">
<path d="M250.471 218.679L207.108 197.682V196.384L253.15 218.679H250.471Z" fill="#BED8F8"/>
</g>
<g style="mix-blend-mode:multiply">
<path d="M247.792 218.678L207.108 198.979V197.681L250.471 218.678H247.792Z" fill="#BDD8F7"/>
</g>
<g style="mix-blend-mode:multiply">
<path d="M245.113 218.679L207.108 200.276V198.979L247.792 218.679H245.113Z" fill="#BCD7F7"/>
</g>
<g style="mix-blend-mode:multiply">
<path d="M242.434 218.678L207.108 201.573V200.276L245.113 218.678H242.434Z" fill="#BBD6F7"/>
</g>
<g style="mix-blend-mode:multiply">
<path d="M239.755 218.678L207.108 202.871V201.573L242.434 218.678H239.755Z" fill="#BAD6F7"/>
</g>
<g style="mix-blend-mode:multiply">
<path d="M237.077 218.679L207.108 204.168V202.871L239.755 218.679H237.077Z" fill="#B9D5F7"/>
</g>
<g style="mix-blend-mode:multiply">
<path d="M234.398 218.678L207.108 205.464V204.168L237.077 218.678H234.398Z" fill="#B8D5F7"/>
</g>
<g style="mix-blend-mode:multiply">
<path d="M231.72 218.679L207.108 206.761V205.464L234.399 218.679H231.72Z" fill="#B7D4F7"/>
</g>
<g style="mix-blend-mode:multiply">
<path d="M229.04 218.679L207.108 208.059V206.761L231.719 218.679H229.04Z" fill="#B6D3F7"/>
</g>
<g style="mix-blend-mode:multiply">
<path d="M226.362 218.679L207.108 209.356V208.059L229.041 218.679H226.362Z" fill="#B5D3F7"/>
</g>
<g style="mix-blend-mode:multiply">
<path d="M223.683 218.679L207.108 210.653V209.356L226.362 218.679H223.683Z" fill="#B4D2F6"/>
</g>
<g style="mix-blend-mode:multiply">
<path d="M221.005 218.678L207.108 211.95V210.653L223.683 218.678H221.005Z" fill="#B3D2F6"/>
</g>
<g style="mix-blend-mode:multiply">
<path d="M218.326 218.679L207.108 213.248V211.951L221.005 218.679H218.326Z" fill="#B2D1F6"/>
</g>
<g style="mix-blend-mode:multiply">
<path d="M215.647 218.679L207.108 214.545V213.248L218.326 218.679H215.647Z" fill="#B1D0F6"/>
</g>
<g style="mix-blend-mode:multiply">
<path d="M212.968 218.678L207.108 215.84V214.545L215.647 218.678H212.968Z" fill="#B0D0F6"/>
</g>
<g style="mix-blend-mode:multiply">
<path d="M210.289 218.679L207.108 217.138V215.841L212.968 218.679H210.289Z" fill="#AFCFF6"/>
</g>
<g style="mix-blend-mode:multiply">
<path d="M207.612 218.678L207.108 218.435V217.138L210.289 218.678H207.612Z" fill="#AECFF6"/>
</g>
<g style="mix-blend-mode:multiply">
<path d="M207.108 218.436L207.612 218.679H207.108V218.436Z" fill="#ADCEF6"/>
</g>
</g>
</g>
<path d="M212.754 217.549H139.366L119.794 151.169H193.183L212.754 217.549Z" fill="#3E3087"/>
<path d="M213.146 217.843H139.138L119.401 150.876H193.402L213.146 217.843ZM139.583 217.257H212.365L192.965 151.462H120.186L139.583 217.257Z" fill="#383A00"/>
<path d="M207.82 217.549H134.431L114.859 151.169H188.25L207.82 217.549Z" fill="#A8CBF5"/>
<path d="M208.211 217.843H134.211L114.468 150.876H188.467L208.211 217.843ZM134.65 217.257H207.429L188.03 151.462H115.251L134.65 217.257Z" fill="#383A00"/>
<path d="M277.696 129.866C292.196 142.679 329.383 198.463 327.125 213.639C324.867 228.814 253.979 209.734 253.979 209.734L256.524 194.897L294.006 196.4C294.006 196.4 271.442 166.819 268.414 155.694C263.897 139.1 273.324 126.003 277.696 129.866Z" fill="#36B2D4"/>
<path d="M256.288 196.263C256.288 196.263 239.057 189.364 229.775 197.404C220.493 205.444 238.807 197.404 238.807 197.404C238.807 197.404 228.269 202.429 229.523 204.943C230.777 207.456 235.166 201.173 239.87 201.173C239.87 201.173 228.577 208.357 231.936 209.042C235.295 209.727 236.835 204.148 254.76 205.175L256.288 196.263Z" fill="#FFABB8"/>
<path d="M232.503 209.393C232.293 209.393 232.082 209.372 231.876 209.33C231.262 209.204 231.077 208.88 231.032 208.631C230.74 207.051 236.12 203.287 238.671 201.604C236.852 202.002 235.096 203.2 233.633 204.199C232.14 205.217 230.958 206.02 230.073 205.79C229.892 205.738 229.726 205.646 229.586 205.521C229.445 205.397 229.334 205.242 229.261 205.069C229.179 204.896 229.133 204.708 229.126 204.517C229.119 204.326 229.152 204.135 229.222 203.957C229.686 202.606 231.921 200.964 234.098 199.633C230.953 200.798 227.534 201.795 226.957 200.876C226.67 200.422 226.759 199.627 229.582 197.182C238.892 189.117 256.222 195.921 256.389 195.991L256.611 196.079L254.992 205.483L254.731 205.469C242.759 204.788 238.158 207.058 235.409 208.415C234.304 208.968 233.441 209.393 232.503 209.393ZM239.869 200.88H240.877L240.028 201.42C236.411 203.721 231.408 207.446 231.607 208.525C231.631 208.655 231.831 208.723 231.992 208.756C232.995 208.961 233.858 208.534 235.163 207.889C237.944 206.516 242.584 204.224 254.515 204.869L255.954 196.451C253.926 195.694 238.453 190.274 229.965 197.625C227.172 200.043 227.446 200.544 227.446 200.564C227.889 201.267 233.615 199.361 238.684 197.141L238.927 197.681C238.844 197.721 230.629 201.663 229.77 204.168C229.725 204.272 229.701 204.384 229.701 204.498C229.701 204.611 229.725 204.724 229.77 204.827C229.806 204.925 229.864 205.012 229.94 205.083C230.016 205.154 230.107 205.207 230.206 205.236C230.836 205.4 232.028 204.59 233.29 203.728C235.154 202.451 237.455 200.88 239.869 200.88V200.88Z" fill="#383A00"/>
<path d="M253.699 278.398C246.292 253.217 227.212 243.494 227.019 243.4L227.278 242.874C227.472 242.97 246.778 252.795 254.266 278.232L253.699 278.398Z" fill="black"/>
<path d="M171.25 189.582L171.97 192.897C172.801 196.75 170.351 199.872 166.509 199.872C162.668 199.872 158.875 196.75 158.044 192.897L157.269 189.306C156.549 185.994 158.264 183.225 161.202 182.513L161.261 182.791C162.092 186.641 165.88 189.762 169.717 189.762C170.234 189.765 170.748 189.705 171.25 189.582V189.582Z" fill="white"/>
<path d="M166.507 200.166C162.538 200.166 158.612 196.934 157.756 192.959L156.981 189.373C156.261 185.996 157.997 182.992 161.129 182.234L161.421 182.164L161.545 182.733C162.346 186.45 166.016 189.474 169.724 189.474C170.215 189.476 170.704 189.418 171.182 189.303L171.475 189.231L172.254 192.834C172.682 194.816 172.297 196.674 171.174 198.06C170.086 199.422 168.427 200.166 166.507 200.166ZM160.978 182.886C158.308 183.683 156.907 186.257 157.56 189.252L158.335 192.845C159.138 196.562 162.806 199.588 166.514 199.588C168.254 199.588 169.753 198.921 170.726 197.71C171.736 196.449 172.078 194.773 171.689 192.968L171.036 189.94C170.606 190.023 170.169 190.064 169.731 190.063C165.768 190.054 161.846 186.838 160.978 182.886Z" fill="#4186FF"/>
<path d="M161.05 181.823L161.109 182.1C160.608 182.221 160.095 182.282 159.58 182.28C155.735 182.28 151.946 179.161 151.115 175.309L151.055 175.033C151.555 174.911 152.067 174.851 152.581 174.853C154.506 174.853 156.413 175.635 157.948 176.896C159.483 178.158 160.634 179.9 161.05 181.823Z" fill="white"/>
<path d="M159.579 182.572C155.61 182.572 151.686 179.342 150.828 175.365L150.709 174.81L150.984 174.742C151.507 174.617 152.043 174.556 152.58 174.561C154.505 174.561 156.477 175.309 158.132 176.67C159.74 177.96 160.868 179.754 161.335 181.763L161.454 182.318L161.178 182.387C160.655 182.513 160.118 182.575 159.579 182.572V182.572ZM151.403 175.255C152.208 178.967 155.871 181.985 159.579 181.985C159.975 181.986 160.371 181.95 160.761 181.877C160.319 180 159.263 178.325 157.76 177.12C156.211 175.846 154.37 175.138 152.58 175.138C152.185 175.139 151.791 175.178 151.403 175.255V175.255Z" fill="#4186FF"/>
<path d="M691.785 372.339C662.334 369.242 681.277 335.783 679.741 334.139C674.561 328.611 672.364 309.792 680.891 301.25C680.891 301.25 675.225 268.304 686.265 261.771C697.305 255.237 694.795 294.94 694.795 294.94C694.795 294.94 710.748 317.265 701.472 333.346C701.472 333.352 710.352 374.29 691.785 372.339Z" fill="#36B2D4"/>
<path d="M688.295 269.354L687.708 269.378L692.334 385.201L692.921 385.177L688.295 269.354Z" fill="black"/>
<path d="M689.256 322.847C679.18 320.29 678.461 311.637 678.446 311.549L679.031 311.507C679.031 311.59 679.751 319.828 689.4 322.279L689.256 322.847Z" fill="black"/>
<path d="M689.87 330.395L689.652 329.854C699.384 325.953 699.513 317.138 699.513 317.048H700.098C700.105 317.138 699.972 326.348 689.87 330.395Z" fill="black"/>
<path d="M691.819 354.033L691.75 353.453C699.901 352.493 699.541 344.548 699.521 344.211L700.106 344.177C700.111 344.266 700.523 353.01 691.819 354.033Z" fill="black"/>
<path d="M691.747 365.089C683.557 364.008 678.68 354.278 678.475 353.873L679 353.613C679.049 353.711 683.948 363.466 691.823 364.509L691.747 365.089Z" fill="black"/>
<path d="M447.405 296.451C423.821 299.6 438.371 359.271 438.371 359.271C438.371 359.271 426.838 359.709 426.829 369.317C426.813 387.917 470.486 389.561 476.006 372.405C481.526 355.249 467.978 353.743 467.978 353.743C467.978 353.743 469.984 293.436 447.405 296.451Z" fill="#36B2D4"/>
<path d="M452.364 398.005L451.792 397.884C457.892 368.6 448.913 309.565 448.814 308.972L449.392 308.882C449.484 309.477 458.494 368.616 452.364 398.005Z" fill="black"/>
<path d="M438.606 316.851L438.133 317.195L452.148 336.493L452.621 336.148L438.606 316.851Z" fill="black"/>
<path d="M464.221 333.448L453.16 348.774L453.634 349.117L464.695 333.791L464.221 333.448Z" fill="black"/>
<path d="M470.335 362.022L454.067 372.135L454.376 372.633L470.643 362.52L470.335 362.022Z" fill="black"/>
<path d="M435.484 368.038L435.239 368.57L454.101 377.259L454.345 376.727L435.484 368.038Z" fill="black"/>
<path d="M198.004 314.169H254.66L259.193 485.941H211.602L207.069 443.027L202.537 400.453L199.704 357.879L198.854 336.024L198.004 314.169Z" fill="url(#paint0_linear_88_610)"/>
<path d="M276.757 358.446H333.979L369.015 482.547H311.883L276.757 358.446Z" fill="url(#paint1_linear_88_610)"/>
</g>
<defs>
<linearGradient id="paint0_linear_88_610" x1="228.468" y1="314.169" x2="228.468" y2="485.941" gradientUnits="userSpaceOnUse">
<stop stop-color="#504392" stop-opacity="0"/>
<stop offset="1" stop-color="#504392"/>
</linearGradient>
<linearGradient id="paint1_linear_88_610" x1="323.736" y1="358.446" x2="323.736" y2="482.547" gradientUnits="userSpaceOnUse">
<stop stop-color="#504392" stop-opacity="0"/>
<stop offset="1" stop-color="#504392"/>
</linearGradient>
<clipPath id="clip0_88_610">
<rect width="698" height="574" fill="white"/>
</clipPath>
</defs>
</svg>
