<svg width="321" height="56" viewBox="0 0 321 56" fill="none" xmlns="http://www.w3.org/2000/svg">
<path d="M37.6041 11.67C38.1641 13.5833 38.7708 15.7533 39.4241 18.18C40.1241 20.56 40.8474 23.0333 41.5941 25.6C42.3874 28.1667 43.1808 30.7333 43.9741 33.3C44.7674 35.8667 45.5374 38.2467 46.2841 40.44C46.8908 38.06 47.4974 35.47 48.1041 32.67C48.7574 29.87 49.3641 26.9767 49.9241 23.99C50.4841 21.0033 51.0208 18.04 51.5341 15.1C52.0941 12.1133 52.6074 9.24333 53.0741 6.49H64.4141C62.7808 14.61 60.8908 22.8467 58.7441 31.2C56.6441 39.5533 54.3574 47.4867 51.8841 55H41.8741C40.2408 50.52 38.6541 45.83 37.1141 40.93C35.5741 35.9833 34.0574 31.0367 32.5641 26.09C31.0708 31.0367 29.5774 35.9833 28.0841 40.93C26.5908 45.83 25.0274 50.52 23.3941 55H13.3841C10.9108 47.4867 8.60077 39.5533 6.4541 31.2C4.3541 22.8467 2.48744 14.61 0.854102 6.49H12.6841C13.1508 9.24333 13.6641 12.1133 14.2241 15.1C14.7841 18.04 15.3674 21.0033 15.9741 23.99C16.5808 26.9767 17.1874 29.87 17.7941 32.67C18.4474 35.47 19.1008 38.06 19.7541 40.44C20.5941 38.1533 21.4108 35.7267 22.2041 33.16C22.9974 30.5933 23.7674 28.0267 24.5141 25.46C25.2608 22.8933 25.9374 20.42 26.5441 18.04C27.1974 15.66 27.7808 13.5367 28.2941 11.67H37.6041ZM66.6568 36.87C66.6568 33.6033 67.1468 30.7567 68.1268 28.33C69.1535 25.8567 70.4835 23.8033 72.1168 22.17C73.7502 20.5367 75.6168 19.3 77.7168 18.46C79.8635 17.62 82.0568 17.2 84.2968 17.2C89.5235 17.2 93.6535 18.81 96.6868 22.03C99.7202 25.2033 101.237 29.8933 101.237 36.1C101.237 36.7067 101.214 37.3833 101.167 38.13C101.12 38.83 101.074 39.46 101.027 40.02H77.3668C77.6002 42.1667 78.6035 43.87 80.3768 45.13C82.1502 46.39 84.5302 47.02 87.5168 47.02C89.4302 47.02 91.2968 46.8567 93.1168 46.53C94.9835 46.1567 96.5002 45.7133 97.6668 45.2L99.0668 53.67C98.5068 53.95 97.7602 54.23 96.8268 54.51C95.8935 54.79 94.8435 55.0233 93.6768 55.21C92.5568 55.4433 91.3435 55.63 90.0368 55.77C88.7302 55.91 87.4235 55.98 86.1168 55.98C82.8035 55.98 79.9102 55.49 77.4368 54.51C75.0102 53.53 72.9802 52.2 71.3468 50.52C69.7602 48.7933 68.5702 46.7633 67.7768 44.43C67.0302 42.0967 66.6568 39.5767 66.6568 36.87ZM91.1568 32.88C91.1102 31.9933 90.9468 31.13 90.6668 30.29C90.4335 29.45 90.0368 28.7033 89.4768 28.05C88.9635 27.3967 88.2868 26.86 87.4468 26.44C86.6535 26.02 85.6502 25.81 84.4368 25.81C83.2702 25.81 82.2668 26.02 81.4268 26.44C80.5868 26.8133 79.8868 27.3267 79.3268 27.98C78.7668 28.6333 78.3235 29.4033 77.9968 30.29C77.7168 31.13 77.5068 31.9933 77.3668 32.88H91.1568ZM123.986 55.7C120.952 55.6533 118.479 55.3267 116.566 54.72C114.699 54.1133 113.206 53.2733 112.086 52.2C111.012 51.08 110.266 49.75 109.846 48.21C109.472 46.6233 109.286 44.85 109.286 42.89V2.36L119.716 0.679998V40.79C119.716 41.7233 119.786 42.5633 119.926 43.31C120.066 44.0567 120.322 44.6867 120.696 45.2C121.116 45.7133 121.699 46.1333 122.446 46.46C123.192 46.7867 124.196 46.9967 125.456 47.09L123.986 55.7ZM129.684 36.59C129.684 33.93 130.104 31.4333 130.944 29.1C131.831 26.72 133.091 24.6667 134.724 22.94C136.358 21.1667 138.341 19.7667 140.674 18.74C143.008 17.7133 145.668 17.2 148.654 17.2C150.614 17.2 152.411 17.3867 154.044 17.76C155.678 18.0867 157.264 18.5767 158.804 19.23L156.634 27.56C155.654 27.1867 154.581 26.86 153.414 26.58C152.248 26.3 150.941 26.16 149.494 26.16C146.414 26.16 144.104 27.1167 142.564 29.03C141.071 30.9433 140.324 33.4633 140.324 36.59C140.324 39.9033 141.024 42.47 142.424 44.29C143.871 46.11 146.368 47.02 149.914 47.02C151.174 47.02 152.528 46.9033 153.974 46.67C155.421 46.4367 156.751 46.0633 157.964 45.55L159.434 54.09C158.221 54.6033 156.704 55.0467 154.884 55.42C153.064 55.7933 151.058 55.98 148.864 55.98C145.504 55.98 142.611 55.49 140.184 54.51C137.758 53.4833 135.751 52.1067 134.164 50.38C132.624 48.6533 131.481 46.6233 130.734 44.29C130.034 41.91 129.684 39.3433 129.684 36.59ZM199.097 36.52C199.097 39.4133 198.677 42.0733 197.837 44.5C196.997 46.88 195.784 48.9333 194.197 50.66C192.61 52.34 190.697 53.6467 188.457 54.58C186.264 55.5133 183.79 55.98 181.037 55.98C178.33 55.98 175.857 55.5133 173.617 54.58C171.424 53.6467 169.534 52.34 167.947 50.66C166.36 48.9333 165.124 46.88 164.237 44.5C163.35 42.0733 162.907 39.4133 162.907 36.52C162.907 33.6267 163.35 30.99 164.237 28.61C165.17 26.23 166.43 24.2 168.017 22.52C169.65 20.84 171.564 19.5333 173.757 18.6C175.997 17.6667 178.424 17.2 181.037 17.2C183.697 17.2 186.124 17.6667 188.317 18.6C190.557 19.5333 192.47 20.84 194.057 22.52C195.644 24.2 196.88 26.23 197.767 28.61C198.654 30.99 199.097 33.6267 199.097 36.52ZM188.457 36.52C188.457 33.3 187.804 30.78 186.497 28.96C185.237 27.0933 183.417 26.16 181.037 26.16C178.657 26.16 176.814 27.0933 175.507 28.96C174.2 30.78 173.547 33.3 173.547 36.52C173.547 39.74 174.2 42.3067 175.507 44.22C176.814 46.0867 178.657 47.02 181.037 47.02C183.417 47.02 185.237 46.0867 186.497 44.22C187.804 42.3067 188.457 39.74 188.457 36.52ZM227.406 35.47C227.406 32.11 226.963 29.73 226.076 28.33C225.236 26.93 223.766 26.23 221.666 26.23C221.013 26.23 220.336 26.2767 219.636 26.37C218.936 26.4167 218.26 26.4867 217.606 26.58V55H207.176V19.44C208.063 19.2067 209.09 18.9733 210.256 18.74C211.47 18.46 212.73 18.2267 214.036 18.04C215.39 17.8067 216.766 17.6433 218.166 17.55C219.566 17.41 220.943 17.34 222.296 17.34C224.956 17.34 227.103 17.69 228.736 18.39C230.416 19.0433 231.793 19.8367 232.866 20.77C234.36 19.6967 236.063 18.8567 237.976 18.25C239.936 17.6433 241.733 17.34 243.366 17.34C246.306 17.34 248.71 17.76 250.576 18.6C252.49 19.3933 254.006 20.5367 255.126 22.03C256.246 23.5233 257.016 25.2967 257.436 27.35C257.856 29.4033 258.066 31.69 258.066 34.21V55H247.636V35.47C247.636 32.11 247.193 29.73 246.306 28.33C245.466 26.93 243.996 26.23 241.896 26.23C241.336 26.23 240.543 26.37 239.516 26.65C238.536 26.93 237.72 27.28 237.066 27.7C237.393 28.7733 237.603 29.9167 237.696 31.13C237.79 32.2967 237.836 33.5567 237.836 34.91V55H227.406V35.47ZM265.788 36.87C265.788 33.6033 266.278 30.7567 267.258 28.33C268.284 25.8567 269.614 23.8033 271.248 22.17C272.881 20.5367 274.748 19.3 276.848 18.46C278.994 17.62 281.188 17.2 283.428 17.2C288.654 17.2 292.784 18.81 295.818 22.03C298.851 25.2033 300.368 29.8933 300.368 36.1C300.368 36.7067 300.344 37.3833 300.298 38.13C300.251 38.83 300.204 39.46 300.158 40.02H276.498C276.731 42.1667 277.734 43.87 279.508 45.13C281.281 46.39 283.661 47.02 286.648 47.02C288.561 47.02 290.428 46.8567 292.248 46.53C294.114 46.1567 295.631 45.7133 296.798 45.2L298.198 53.67C297.638 53.95 296.891 54.23 295.958 54.51C295.024 54.79 293.974 55.0233 292.808 55.21C291.688 55.4433 290.474 55.63 289.168 55.77C287.861 55.91 286.554 55.98 285.248 55.98C281.934 55.98 279.041 55.49 276.568 54.51C274.141 53.53 272.111 52.2 270.478 50.52C268.891 48.7933 267.701 46.7633 266.908 44.43C266.161 42.0967 265.788 39.5767 265.788 36.87ZM290.288 32.88C290.241 31.9933 290.078 31.13 289.798 30.29C289.564 29.45 289.168 28.7033 288.608 28.05C288.094 27.3967 287.418 26.86 286.578 26.44C285.784 26.02 284.781 25.81 283.568 25.81C282.401 25.81 281.398 26.02 280.558 26.44C279.718 26.8133 279.018 27.3267 278.458 27.98C277.898 28.6333 277.454 29.4033 277.128 30.29C276.848 31.13 276.638 31.9933 276.498 32.88H290.288ZM319.127 19.02C319.127 22.8 318.987 26.3233 318.707 29.59C318.427 32.8567 318.053 36.17 317.587 39.53H309.607C309.14 36.17 308.743 32.8567 308.417 29.59C308.137 26.3233 307.997 22.8 307.997 19.02V6.49H319.127V19.02ZM320.037 49.47C320.037 51.5233 319.36 53.11 318.007 54.23C316.7 55.35 315.207 55.91 313.527 55.91C311.847 55.91 310.33 55.35 308.977 54.23C307.67 53.11 307.017 51.5233 307.017 49.47C307.017 47.4167 307.67 45.83 308.977 44.71C310.33 43.59 311.847 43.03 313.527 43.03C315.207 43.03 316.7 43.59 318.007 44.71C319.36 45.83 320.037 47.4167 320.037 49.47Z" fill="#1B93C7"/>
</svg>
