<svg width="160" height="46" viewBox="0 0 160 46" fill="none" xmlns="http://www.w3.org/2000/svg">
<rect width="160" height="46" rx="23" fill="#1BC768"/>
<path d="M40.5891 32V15.2H42.4371V30.368H51.9171V32H40.5891ZM59.4059 32.192C58.3179 32.192 57.3419 31.928 56.4779 31.4C55.6139 30.872 54.9339 30.152 54.4379 29.24C53.9419 28.328 53.6939 27.296 53.6939 26.144C53.6939 24.992 53.9419 23.96 54.4379 23.048C54.9339 22.136 55.6139 21.416 56.4779 20.888C57.3419 20.36 58.3179 20.096 59.4059 20.096C60.4779 20.096 61.4379 20.36 62.2859 20.888C63.1499 21.416 63.8299 22.136 64.3259 23.048C64.8219 23.96 65.0699 24.992 65.0699 26.144C65.0699 27.296 64.8219 28.328 64.3259 29.24C63.8299 30.152 63.1499 30.872 62.2859 31.4C61.4379 31.928 60.4779 32.192 59.4059 32.192ZM59.3819 30.656C60.1499 30.656 60.8299 30.464 61.4219 30.08C62.0139 29.68 62.4779 29.136 62.8139 28.448C63.1659 27.76 63.3419 26.992 63.3419 26.144C63.3419 25.28 63.1659 24.512 62.8139 23.84C62.4779 23.152 62.0139 22.616 61.4219 22.232C60.8299 21.832 60.1499 21.632 59.3819 21.632C58.6139 21.632 57.9339 21.832 57.3419 22.232C56.7499 22.616 56.2779 23.152 55.9259 23.84C55.5899 24.512 55.4219 25.28 55.4219 26.144C55.4219 26.992 55.5899 27.76 55.9259 28.448C56.2779 29.136 56.7499 29.68 57.3419 30.08C57.9339 30.464 58.6139 30.656 59.3819 30.656ZM73.5678 37.256C72.7838 37.256 71.9918 37.144 71.1918 36.92C70.4078 36.712 69.6798 36.416 69.0078 36.032L69.7518 34.688C70.4718 35.056 71.1278 35.328 71.7198 35.504C72.3118 35.68 72.9038 35.768 73.4958 35.768C74.5678 35.768 75.3758 35.512 75.9198 35C76.4798 34.488 76.7598 33.744 76.7598 32.768V30.416C76.3118 30.976 75.7678 31.408 75.1278 31.712C74.4878 32 73.7838 32.144 73.0158 32.144C72.0078 32.144 71.0958 31.88 70.2798 31.352C69.4638 30.808 68.8158 30.088 68.3358 29.192C67.8558 28.28 67.6158 27.264 67.6158 26.144C67.6158 25.024 67.8558 24.016 68.3358 23.12C68.8318 22.208 69.4958 21.488 70.3278 20.96C71.1598 20.416 72.0878 20.144 73.1118 20.144C73.8478 20.144 74.5278 20.288 75.1518 20.576C75.7758 20.848 76.3198 21.256 76.7838 21.8V20.288H78.5118V32.744C78.5118 34.2 78.0878 35.312 77.2398 36.08C76.3918 36.864 75.1678 37.256 73.5678 37.256ZM73.4478 30.632C74.1358 30.632 74.7678 30.496 75.3438 30.224C75.9198 29.936 76.3918 29.544 76.7598 29.048V23.264C76.3758 22.768 75.8878 22.384 75.2958 22.112C74.7198 21.824 74.1038 21.68 73.4478 21.68C72.6638 21.68 71.9598 21.872 71.3358 22.256C70.7278 22.64 70.2398 23.168 69.8717 23.84C69.5197 24.512 69.3438 25.28 69.3438 26.144C69.3438 26.992 69.5197 27.76 69.8717 28.448C70.2398 29.12 70.7278 29.656 71.3358 30.056C71.9598 30.44 72.6638 30.632 73.4478 30.632ZM87.2965 32.192C86.2085 32.192 85.2325 31.928 84.3685 31.4C83.5045 30.872 82.8245 30.152 82.3285 29.24C81.8325 28.328 81.5845 27.296 81.5845 26.144C81.5845 24.992 81.8325 23.96 82.3285 23.048C82.8245 22.136 83.5045 21.416 84.3685 20.888C85.2325 20.36 86.2085 20.096 87.2965 20.096C88.3685 20.096 89.3285 20.36 90.1765 20.888C91.0405 21.416 91.7205 22.136 92.2165 23.048C92.7125 23.96 92.9605 24.992 92.9605 26.144C92.9605 27.296 92.7125 28.328 92.2165 29.24C91.7205 30.152 91.0405 30.872 90.1765 31.4C89.3285 31.928 88.3685 32.192 87.2965 32.192ZM87.2725 30.656C88.0405 30.656 88.7205 30.464 89.3125 30.08C89.9045 29.68 90.3685 29.136 90.7045 28.448C91.0565 27.76 91.2325 26.992 91.2325 26.144C91.2325 25.28 91.0565 24.512 90.7045 23.84C90.3685 23.152 89.9045 22.616 89.3125 22.232C88.7205 21.832 88.0405 21.632 87.2725 21.632C86.5045 21.632 85.8245 21.832 85.2325 22.232C84.6405 22.616 84.1685 23.152 83.8165 23.84C83.4805 24.512 83.3125 25.28 83.3125 26.144C83.3125 26.992 83.4805 27.76 83.8165 28.448C84.1685 29.136 84.6405 29.68 85.2325 30.08C85.8245 30.464 86.5045 30.656 87.2725 30.656ZM100.21 32.192C99.3784 32.192 98.6424 32.008 98.0024 31.64C97.3624 31.272 96.8584 30.76 96.4904 30.104C96.1384 29.448 95.9624 28.696 95.9624 27.848V20.288H97.7384V27.344C97.7384 28.384 98.0184 29.208 98.5784 29.816C99.1384 30.424 99.8984 30.728 100.858 30.728C101.514 30.728 102.098 30.576 102.61 30.272C103.138 29.968 103.578 29.528 103.93 28.952V20.288H105.682V32H103.93V30.104C103.482 30.792 102.946 31.312 102.322 31.664C101.714 32.016 101.01 32.192 100.21 32.192ZM113.741 32.24C112.733 32.24 111.965 32 111.437 31.52C110.925 31.024 110.669 30.312 110.669 29.384V21.728H108.245V20.288H110.669V17.072L112.421 16.664V20.288H115.781V21.728H112.421V28.928C112.421 29.552 112.549 30 112.805 30.272C113.077 30.544 113.517 30.68 114.125 30.68C114.429 30.68 114.701 30.656 114.941 30.608C115.181 30.56 115.461 30.48 115.781 30.368V31.928C115.461 32.04 115.125 32.12 114.773 32.168C114.421 32.216 114.077 32.24 113.741 32.24Z" fill="white"/>
</svg>
