<svg width="446" height="33" viewBox="0 0 446 33" fill="none" xmlns="http://www.w3.org/2000/svg">
<path d="M18.6516 32C16.8649 28.8267 14.9316 25.6933 12.8516 22.6C10.7716 19.5067 8.55823 16.5867 6.21156 13.84V32H0.0515627V4.28H5.13156C6.01156 5.16 6.9849 6.24 8.05156 7.52C9.11823 8.8 10.1982 10.1733 11.2916 11.64C12.4116 13.08 13.5182 14.5867 14.6116 16.16C15.7049 17.7067 16.7316 19.2 17.6916 20.64V4.28H23.8916V32H18.6516ZM34.8859 21.64C34.8859 19.7733 35.1659 18.1467 35.7259 16.76C36.3126 15.3467 37.0726 14.1733 38.0059 13.24C38.9393 12.3067 40.0059 11.6 41.2059 11.12C42.4326 10.64 43.6859 10.4 44.9659 10.4C47.9526 10.4 50.3126 11.32 52.0459 13.16C53.7793 14.9733 54.6459 17.6533 54.6459 21.2C54.6459 21.5467 54.6326 21.9333 54.6059 22.36C54.5793 22.76 54.5526 23.12 54.5259 23.44H41.0059C41.1393 24.6667 41.7126 25.64 42.7259 26.36C43.7393 27.08 45.0993 27.44 46.8059 27.44C47.8993 27.44 48.9659 27.3467 50.0059 27.16C51.0726 26.9467 51.9393 26.6933 52.6059 26.4L53.4059 31.24C53.0859 31.4 52.6593 31.56 52.1259 31.72C51.5926 31.88 50.9926 32.0133 50.3259 32.12C49.6859 32.2533 48.9926 32.36 48.2459 32.44C47.4993 32.52 46.7526 32.56 46.0059 32.56C44.1126 32.56 42.4593 32.28 41.0459 31.72C39.6593 31.16 38.4993 30.4 37.5659 29.44C36.6593 28.4533 35.9793 27.2933 35.5259 25.96C35.0993 24.6267 34.8859 23.1867 34.8859 21.64ZM48.8859 19.36C48.8593 18.8533 48.7659 18.36 48.6059 17.88C48.4726 17.4 48.2459 16.9733 47.9259 16.6C47.6326 16.2267 47.2459 15.92 46.7659 15.68C46.3126 15.44 45.7393 15.32 45.0459 15.32C44.3793 15.32 43.8059 15.44 43.3259 15.68C42.8459 15.8933 42.4459 16.1867 42.1259 16.56C41.8059 16.9333 41.5526 17.3733 41.3659 17.88C41.2059 18.36 41.0859 18.8533 41.0059 19.36H48.8859ZM78.0453 19.92C77.512 21.9467 76.9386 23.96 76.3253 25.96C75.7386 27.96 75.112 29.9733 74.4453 32H69.8053C69.3253 30.88 68.8053 29.5467 68.2453 28C67.6853 26.4533 67.0986 24.7733 66.4853 22.96C65.8986 21.12 65.2853 19.1867 64.6453 17.16C64.032 15.1067 63.432 13.04 62.8453 10.96H69.1253C69.3386 11.92 69.5653 12.9733 69.8053 14.12C70.072 15.24 70.3386 16.4 70.6053 17.6C70.8986 18.8 71.192 20.0133 71.4853 21.24C71.8053 22.44 72.1253 23.6 72.4453 24.72C72.792 23.5467 73.1253 22.3467 73.4453 21.12C73.792 19.8933 74.112 18.6933 74.4053 17.52C74.7253 16.32 75.0186 15.1733 75.2853 14.08C75.5786 12.96 75.832 11.92 76.0453 10.96H80.3653C80.5786 11.92 80.8186 12.96 81.0853 14.08C81.352 15.1733 81.632 16.32 81.9253 17.52C82.2186 18.6933 82.5253 19.8933 82.8453 21.12C83.1653 22.3467 83.4986 23.5467 83.8453 24.72C84.1653 23.6 84.4853 22.44 84.8053 21.24C85.1253 20.0133 85.4186 18.8 85.6853 17.6C85.9786 16.4 86.2453 15.24 86.4853 14.12C86.752 12.9733 86.992 11.92 87.2053 10.96H93.4053C92.8186 13.04 92.2053 15.1067 91.5653 17.16C90.952 19.1867 90.3386 21.12 89.7253 22.96C89.1386 24.7733 88.552 26.4533 87.9653 28C87.4053 29.5467 86.8853 30.88 86.4053 32H81.7653C81.0986 29.9733 80.4453 27.96 79.8053 25.96C79.1653 23.96 78.5786 21.9467 78.0453 19.92ZM137.222 32C135.435 28.8267 133.502 25.6933 131.422 22.6C129.342 19.5067 127.129 16.5867 124.782 13.84V32H118.622V4.28H123.702C124.582 5.16 125.555 6.24 126.622 7.52C127.689 8.8 128.769 10.1733 129.862 11.64C130.982 13.08 132.089 14.5867 133.182 16.16C134.275 17.7067 135.302 19.2 136.262 20.64V4.28H142.462V32H137.222ZM174.136 21.44C174.136 23.0933 173.896 24.6133 173.416 26C172.936 27.36 172.243 28.5333 171.336 29.52C170.43 30.48 169.336 31.2267 168.056 31.76C166.803 32.2933 165.39 32.56 163.816 32.56C162.27 32.56 160.856 32.2933 159.576 31.76C158.323 31.2267 157.243 30.48 156.336 29.52C155.43 28.5333 154.723 27.36 154.216 26C153.71 24.6133 153.456 23.0933 153.456 21.44C153.456 19.7867 153.71 18.28 154.216 16.92C154.75 15.56 155.47 14.4 156.376 13.44C157.31 12.48 158.403 11.7333 159.656 11.2C160.936 10.6667 162.323 10.4 163.816 10.4C165.336 10.4 166.723 10.6667 167.976 11.2C169.256 11.7333 170.35 12.48 171.256 13.44C172.163 14.4 172.87 15.56 173.376 16.92C173.883 18.28 174.136 19.7867 174.136 21.44ZM168.056 21.44C168.056 19.6 167.683 18.16 166.936 17.12C166.216 16.0533 165.176 15.52 163.816 15.52C162.456 15.52 161.403 16.0533 160.656 17.12C159.91 18.16 159.536 19.6 159.536 21.44C159.536 23.28 159.91 24.7467 160.656 25.84C161.403 26.9067 162.456 27.44 163.816 27.44C165.176 27.44 166.216 26.9067 166.936 25.84C167.683 24.7467 168.056 23.28 168.056 21.44ZM184.553 5.72L190.513 4.76V10.96H197.673V15.92H190.513V23.32C190.513 24.5733 190.726 25.5733 191.153 26.32C191.606 27.0667 192.5 27.44 193.833 27.44C194.473 27.44 195.126 27.3867 195.793 27.28C196.486 27.1467 197.113 26.9733 197.673 26.76L198.513 31.4C197.793 31.6933 196.993 31.9467 196.113 32.16C195.233 32.3733 194.153 32.48 192.873 32.48C191.246 32.48 189.9 32.2667 188.833 31.84C187.766 31.3867 186.913 30.7733 186.273 30C185.633 29.2 185.18 28.24 184.913 27.12C184.673 26 184.553 24.76 184.553 23.4V5.72ZM214.487 32H208.527V10.96H214.487V32ZM215.047 4.88C215.047 5.97333 214.687 6.84 213.967 7.48C213.273 8.09333 212.447 8.4 211.487 8.4C210.527 8.4 209.687 8.09333 208.967 7.48C208.273 6.84 207.927 5.97333 207.927 4.88C207.927 3.78667 208.273 2.93333 208.967 2.32C209.687 1.68 210.527 1.36 211.487 1.36C212.447 1.36 213.273 1.68 213.967 2.32C214.687 2.93333 215.047 3.78667 215.047 4.88ZM235.209 0.959999C236.329 0.959999 237.249 1.05333 237.969 1.24C238.716 1.42667 239.342 1.62667 239.849 1.84L238.809 6.52C238.382 6.33333 237.902 6.2 237.369 6.12C236.862 6.04 236.342 6 235.809 6C235.089 6 234.476 6.10667 233.969 6.32C233.489 6.50667 233.102 6.77333 232.809 7.12C232.542 7.46667 232.342 7.88 232.209 8.36C232.102 8.84 232.049 9.36 232.049 9.92V10.96H239.409V15.92H232.049V32H226.089V9.84C226.089 7.12 226.849 4.96 228.369 3.36C229.916 1.76 232.196 0.959999 235.209 0.959999ZM248.809 32H242.849V10.96H248.809V32ZM249.369 4.88C249.369 5.97333 249.009 6.84 248.289 7.48C247.596 8.09333 246.769 8.4 245.809 8.4C244.849 8.4 244.009 8.09333 243.289 7.48C242.596 6.84 242.249 5.97333 242.249 4.88C242.249 3.78667 242.596 2.93333 243.289 2.32C244.009 1.68 244.849 1.36 245.809 1.36C246.769 1.36 247.596 1.68 248.289 2.32C249.009 2.93333 249.369 3.78667 249.369 4.88ZM259.409 21.48C259.409 19.96 259.649 18.5333 260.129 17.2C260.636 15.84 261.356 14.6667 262.289 13.68C263.223 12.6667 264.356 11.8667 265.689 11.28C267.023 10.6933 268.543 10.4 270.249 10.4C271.369 10.4 272.396 10.5067 273.329 10.72C274.263 10.9067 275.169 11.1867 276.049 11.56L274.809 16.32C274.249 16.1067 273.636 15.92 272.969 15.76C272.303 15.6 271.556 15.52 270.729 15.52C268.969 15.52 267.649 16.0667 266.769 17.16C265.916 18.2533 265.489 19.6933 265.489 21.48C265.489 23.3733 265.889 24.84 266.689 25.88C267.516 26.92 268.943 27.44 270.969 27.44C271.689 27.44 272.463 27.3733 273.289 27.24C274.116 27.1067 274.876 26.8933 275.569 26.6L276.409 31.48C275.716 31.7733 274.849 32.0267 273.809 32.24C272.769 32.4533 271.623 32.56 270.369 32.56C268.449 32.56 266.796 32.28 265.409 31.72C264.023 31.1333 262.876 30.3467 261.969 29.36C261.089 28.3733 260.436 27.2133 260.009 25.88C259.609 24.52 259.409 23.0533 259.409 21.48ZM293.434 27.84C294.02 27.84 294.58 27.8267 295.114 27.8C295.647 27.7733 296.074 27.7333 296.394 27.68V23.16C296.154 23.1067 295.794 23.0533 295.314 23C294.834 22.9467 294.394 22.92 293.994 22.92C293.434 22.92 292.9 22.96 292.394 23.04C291.914 23.0933 291.487 23.2133 291.114 23.4C290.74 23.5867 290.447 23.84 290.234 24.16C290.02 24.48 289.914 24.88 289.914 25.36C289.914 26.2933 290.22 26.9467 290.834 27.32C291.474 27.6667 292.34 27.84 293.434 27.84ZM292.954 10.4C294.714 10.4 296.18 10.6 297.354 11C298.527 11.4 299.46 11.9733 300.154 12.72C300.874 13.4667 301.38 14.3733 301.674 15.44C301.967 16.5067 302.114 17.6933 302.114 19V31.4C301.26 31.5867 300.074 31.8 298.554 32.04C297.034 32.3067 295.194 32.44 293.034 32.44C291.674 32.44 290.434 32.32 289.314 32.08C288.22 31.84 287.274 31.4533 286.474 30.92C285.674 30.36 285.06 29.64 284.634 28.76C284.207 27.88 283.994 26.8 283.994 25.52C283.994 24.2933 284.234 23.2533 284.714 22.4C285.22 21.5467 285.887 20.8667 286.714 20.36C287.54 19.8533 288.487 19.4933 289.554 19.28C290.62 19.04 291.727 18.92 292.874 18.92C293.647 18.92 294.327 18.96 294.914 19.04C295.527 19.0933 296.02 19.1733 296.394 19.28V18.72C296.394 17.7067 296.087 16.8933 295.474 16.28C294.86 15.6667 293.794 15.36 292.274 15.36C291.26 15.36 290.26 15.44 289.274 15.6C288.287 15.7333 287.434 15.9333 286.714 16.2L285.954 11.4C286.3 11.2933 286.727 11.1867 287.234 11.08C287.767 10.9467 288.34 10.84 288.954 10.76C289.567 10.6533 290.207 10.5733 290.874 10.52C291.567 10.44 292.26 10.4 292.954 10.4ZM313.303 5.72L319.263 4.76V10.96H326.423V15.92H319.263V23.32C319.263 24.5733 319.476 25.5733 319.903 26.32C320.356 27.0667 321.25 27.44 322.583 27.44C323.223 27.44 323.876 27.3867 324.543 27.28C325.236 27.1467 325.863 26.9733 326.423 26.76L327.263 31.4C326.543 31.6933 325.743 31.9467 324.863 32.16C323.983 32.3733 322.903 32.48 321.623 32.48C319.996 32.48 318.65 32.2667 317.583 31.84C316.516 31.3867 315.663 30.7733 315.023 30C314.383 29.2 313.93 28.24 313.663 27.12C313.423 26 313.303 24.76 313.303 23.4V5.72ZM343.237 32H337.277V10.96H343.237V32ZM343.797 4.88C343.797 5.97333 343.437 6.84 342.717 7.48C342.023 8.09333 341.197 8.4 340.237 8.4C339.277 8.4 338.437 8.09333 337.717 7.48C337.023 6.84 336.677 5.97333 336.677 4.88C336.677 3.78667 337.023 2.93333 337.717 2.32C338.437 1.68 339.277 1.36 340.237 1.36C341.197 1.36 342.023 1.68 342.717 2.32C343.437 2.93333 343.797 3.78667 343.797 4.88ZM374.519 21.44C374.519 23.0933 374.279 24.6133 373.799 26C373.319 27.36 372.626 28.5333 371.719 29.52C370.812 30.48 369.719 31.2267 368.439 31.76C367.186 32.2933 365.772 32.56 364.199 32.56C362.652 32.56 361.239 32.2933 359.959 31.76C358.706 31.2267 357.626 30.48 356.719 29.52C355.812 28.5333 355.106 27.36 354.599 26C354.092 24.6133 353.839 23.0933 353.839 21.44C353.839 19.7867 354.092 18.28 354.599 16.92C355.132 15.56 355.852 14.4 356.759 13.44C357.692 12.48 358.786 11.7333 360.039 11.2C361.319 10.6667 362.706 10.4 364.199 10.4C365.719 10.4 367.106 10.6667 368.359 11.2C369.639 11.7333 370.732 12.48 371.639 13.44C372.546 14.4 373.252 15.56 373.759 16.92C374.266 18.28 374.519 19.7867 374.519 21.44ZM368.439 21.44C368.439 19.6 368.066 18.16 367.319 17.12C366.599 16.0533 365.559 15.52 364.199 15.52C362.839 15.52 361.786 16.0533 361.039 17.12C360.292 18.16 359.919 19.6 359.919 21.44C359.919 23.28 360.292 24.7467 361.039 25.84C361.786 26.9067 362.839 27.44 364.199 27.44C365.559 27.44 366.599 26.9067 367.319 25.84C368.066 24.7467 368.439 23.28 368.439 21.44ZM385.136 11.68C386.149 11.3867 387.456 11.12 389.056 10.88C390.656 10.6133 392.336 10.48 394.096 10.48C395.883 10.48 397.363 10.72 398.536 11.2C399.736 11.6533 400.683 12.3067 401.376 13.16C402.069 14.0133 402.563 15.0267 402.856 16.2C403.149 17.3733 403.296 18.68 403.296 20.12V32H397.336V20.84C397.336 18.92 397.083 17.56 396.576 16.76C396.069 15.96 395.123 15.56 393.736 15.56C393.309 15.56 392.856 15.5867 392.376 15.64C391.896 15.6667 391.469 15.7067 391.096 15.76V32H385.136V11.68ZM420.731 27.72C421.824 27.72 422.597 27.6133 423.051 27.4C423.504 27.1867 423.731 26.7733 423.731 26.16C423.731 25.68 423.437 25.2667 422.851 24.92C422.264 24.5467 421.371 24.1333 420.171 23.68C419.237 23.3333 418.384 22.9733 417.611 22.6C416.864 22.2267 416.224 21.7867 415.691 21.28C415.157 20.7467 414.744 20.12 414.451 19.4C414.157 18.68 414.011 17.8133 414.011 16.8C414.011 14.8267 414.744 13.2667 416.211 12.12C417.677 10.9733 419.691 10.4 422.251 10.4C423.531 10.4 424.757 10.52 425.931 10.76C427.104 10.9733 428.037 11.2133 428.731 11.48L427.691 16.12C426.997 15.88 426.237 15.6667 425.411 15.48C424.611 15.2933 423.704 15.2 422.691 15.2C420.824 15.2 419.891 15.72 419.891 16.76C419.891 17 419.931 17.2133 420.011 17.4C420.091 17.5867 420.251 17.7733 420.491 17.96C420.731 18.12 421.051 18.3067 421.451 18.52C421.877 18.7067 422.411 18.92 423.051 19.16C424.357 19.64 425.437 20.12 426.291 20.6C427.144 21.0533 427.811 21.56 428.291 22.12C428.797 22.6533 429.144 23.2533 429.331 23.92C429.544 24.5867 429.651 25.36 429.651 26.24C429.651 28.32 428.864 29.8933 427.291 30.96C425.744 32.0267 423.544 32.56 420.691 32.56C418.824 32.56 417.264 32.4 416.011 32.08C414.784 31.76 413.931 31.4933 413.451 31.28L414.451 26.44C415.464 26.84 416.504 27.16 417.571 27.4C418.637 27.6133 419.691 27.72 420.731 27.72ZM445.945 14.64C445.945 15.84 445.558 16.76 444.785 17.4C444.038 18.0133 443.185 18.32 442.225 18.32C441.265 18.32 440.398 18.0133 439.625 17.4C438.878 16.76 438.505 15.84 438.505 14.64C438.505 13.44 438.878 12.5333 439.625 11.92C440.398 11.28 441.265 10.96 442.225 10.96C443.185 10.96 444.038 11.28 444.785 11.92C445.558 12.5333 445.945 13.44 445.945 14.64ZM445.945 28.84C445.945 30.04 445.558 30.96 444.785 31.6C444.038 32.2133 443.185 32.52 442.225 32.52C441.265 32.52 440.398 32.2133 439.625 31.6C438.878 30.96 438.505 30.04 438.505 28.84C438.505 27.64 438.878 26.7333 439.625 26.12C440.398 25.48 441.265 25.16 442.225 25.16C443.185 25.16 444.038 25.48 444.785 26.12C445.558 26.7333 445.945 27.64 445.945 28.84Z" fill="#1B93C7"/>
</svg>
