<svg width="56" height="53" viewBox="0 0 56 53" fill="none" xmlns="http://www.w3.org/2000/svg">
<path d="M54.8179 43.5731C53.9172 42.589 49.2447 37.1424 48.7943 30.5629C48.7943 30.5629 48.2173 12.9186 31.6805 10.6186C33.7071 9.61171 35.0723 7.79235 35.0723 5.72125C35.0723 2.56312 31.9197 0 28.0353 0C24.1509 0 20.9984 2.56312 20.9984 5.72125C20.9984 7.78091 22.3495 9.60026 24.3761 10.6072C7.783 12.8728 7.20597 30.5629 7.20597 30.5629C6.7556 37.1424 2.08307 42.5776 1.18234 43.5731C0.999383 43.779 0.830496 43.985 0.675683 44.2139C-1.56206 47.475 2.35048 49.054 4.19415 49.6033C4.77118 49.7749 5.33414 49.9465 5.8971 50.1525C12.5259 52.5211 25.9524 52.9559 25.9524 52.9559H28.0072H30.062C30.062 52.9559 43.4884 52.5211 50.1173 50.1411C50.6802 49.9351 51.2432 49.7635 51.8202 49.5918C53.6639 49.054 57.5764 47.4635 55.3387 44.2024C55.1838 43.985 55.015 43.7676 54.8179 43.5731ZM28.0494 2.15119C30.4701 2.15119 32.4404 3.75314 32.4404 5.72125C32.4404 7.68937 30.4701 9.29132 28.0494 9.29132C25.6287 9.29132 23.6583 7.68937 23.6583 5.72125C23.6583 3.75314 25.6287 2.15119 28.0494 2.15119Z" fill="#1BC768"/>
</svg>
