<svg width="600" height="120" viewBox="0 0 600 120" fill="none" xmlns="http://www.w3.org/2000/svg">
<g filter="url(#filter0_b_78_118)">
<path d="M9 20C9 8.95431 17.9543 0 29 0H554C565.046 0 574 8.95431 574 20V100C574 111.046 565.046 120 554 120H29C17.9543 120 9 111.046 9 100V20Z" fill="#1BC768"/>
<path d="M153.515 37.764C157.235 37.764 160.091 38.424 162.083 39.744C164.075 41.04 165.071 43.176 165.071 46.152C165.071 49.152 164.063 51.324 162.047 52.668C160.031 53.988 157.151 54.648 153.407 54.648H151.643V63H146.027V38.412C147.251 38.172 148.547 38.004 149.915 37.908C151.283 37.812 152.483 37.764 153.515 37.764ZM153.875 42.552C153.467 42.552 153.059 42.564 152.651 42.588C152.267 42.612 151.931 42.636 151.643 42.66V49.86H153.407C155.351 49.86 156.815 49.596 157.799 49.068C158.783 48.54 159.275 47.556 159.275 46.116C159.275 45.42 159.143 44.844 158.879 44.388C158.639 43.932 158.279 43.572 157.799 43.308C157.343 43.02 156.779 42.828 156.107 42.732C155.435 42.612 154.691 42.552 153.875 42.552ZM171.008 53.676C171.008 51.996 171.26 50.532 171.764 49.284C172.292 48.012 172.976 46.956 173.816 46.116C174.656 45.276 175.616 44.64 176.696 44.208C177.8 43.776 178.928 43.56 180.08 43.56C182.768 43.56 184.892 44.388 186.452 46.044C188.012 47.676 188.792 50.088 188.792 53.28C188.792 53.592 188.78 53.94 188.756 54.324C188.732 54.684 188.708 55.008 188.684 55.296H176.516C176.636 56.4 177.152 57.276 178.064 57.924C178.976 58.572 180.2 58.896 181.736 58.896C182.72 58.896 183.68 58.812 184.616 58.644C185.576 58.452 186.356 58.224 186.956 57.96L187.676 62.316C187.388 62.46 187.004 62.604 186.524 62.748C186.044 62.892 185.504 63.012 184.904 63.108C184.328 63.228 183.704 63.324 183.032 63.396C182.36 63.468 181.688 63.504 181.016 63.504C179.312 63.504 177.824 63.252 176.552 62.748C175.304 62.244 174.26 61.56 173.42 60.696C172.604 59.808 171.992 58.764 171.584 57.564C171.2 56.364 171.008 55.068 171.008 53.676ZM183.608 51.624C183.584 51.168 183.5 50.724 183.356 50.292C183.236 49.86 183.032 49.476 182.744 49.14C182.48 48.804 182.132 48.528 181.7 48.312C181.292 48.096 180.776 47.988 180.152 47.988C179.552 47.988 179.036 48.096 178.604 48.312C178.172 48.504 177.812 48.768 177.524 49.104C177.236 49.44 177.008 49.836 176.84 50.292C176.696 50.724 176.588 51.168 176.516 51.624H183.608ZM196.531 44.712C197.443 44.448 198.619 44.208 200.059 43.992C201.499 43.752 203.011 43.632 204.595 43.632C206.203 43.632 207.535 43.848 208.591 44.28C209.671 44.688 210.523 45.276 211.147 46.044C211.771 46.812 212.215 47.724 212.479 48.78C212.743 49.836 212.875 51.012 212.875 52.308V63H207.511V52.956C207.511 51.228 207.283 50.004 206.827 49.284C206.371 48.564 205.519 48.204 204.271 48.204C203.887 48.204 203.479 48.228 203.047 48.276C202.615 48.3 202.231 48.336 201.895 48.384V63H196.531V44.712ZM225.902 53.388C225.902 55.044 226.274 56.376 227.018 57.384C227.762 58.392 228.866 58.896 230.33 58.896C230.81 58.896 231.254 58.884 231.662 58.86C232.07 58.812 232.406 58.764 232.67 58.716V48.96C232.334 48.744 231.89 48.564 231.338 48.42C230.81 48.276 230.27 48.204 229.718 48.204C227.174 48.204 225.902 49.932 225.902 53.388ZM238.034 62.388C237.554 62.532 237.002 62.676 236.378 62.82C235.754 62.94 235.094 63.048 234.398 63.144C233.726 63.24 233.03 63.312 232.31 63.36C231.614 63.432 230.942 63.468 230.294 63.468C228.734 63.468 227.342 63.24 226.118 62.784C224.894 62.328 223.862 61.68 223.022 60.84C222.182 59.976 221.534 58.944 221.078 57.744C220.646 56.52 220.43 55.152 220.43 53.64C220.43 52.104 220.622 50.724 221.006 49.5C221.39 48.252 221.942 47.196 222.662 46.332C223.382 45.468 224.258 44.808 225.29 44.352C226.346 43.896 227.546 43.668 228.89 43.668C229.634 43.668 230.294 43.74 230.87 43.884C231.47 44.028 232.07 44.232 232.67 44.496V35.928L238.034 35.064V62.388ZM252.021 63H246.657V44.064H252.021V63ZM252.525 38.592C252.525 39.576 252.201 40.356 251.553 40.932C250.929 41.484 250.185 41.76 249.321 41.76C248.457 41.76 247.701 41.484 247.053 40.932C246.429 40.356 246.117 39.576 246.117 38.592C246.117 37.608 246.429 36.84 247.053 36.288C247.701 35.712 248.457 35.424 249.321 35.424C250.185 35.424 250.929 35.712 251.553 36.288C252.201 36.84 252.525 37.608 252.525 38.592ZM260.663 44.712C261.575 44.448 262.751 44.208 264.191 43.992C265.631 43.752 267.143 43.632 268.727 43.632C270.335 43.632 271.667 43.848 272.723 44.28C273.803 44.688 274.655 45.276 275.279 46.044C275.903 46.812 276.347 47.724 276.611 48.78C276.875 49.836 277.007 51.012 277.007 52.308V63H271.643V52.956C271.643 51.228 271.415 50.004 270.959 49.284C270.503 48.564 269.651 48.204 268.403 48.204C268.019 48.204 267.611 48.228 267.179 48.276C266.747 48.3 266.363 48.336 266.027 48.384V63H260.663V44.712ZM290.034 52.92C290.034 55.92 291.246 57.42 293.67 57.42C294.222 57.42 294.738 57.348 295.218 57.204C295.698 57.06 296.106 56.892 296.442 56.7V48.132C296.178 48.084 295.866 48.048 295.506 48.024C295.146 47.976 294.726 47.952 294.246 47.952C292.83 47.952 291.774 48.42 291.078 49.356C290.382 50.292 290.034 51.48 290.034 52.92ZM301.806 60.624C301.806 63.72 301.014 66.012 299.43 67.5C297.87 69.012 295.446 69.768 292.158 69.768C291.006 69.768 289.854 69.66 288.702 69.444C287.55 69.252 286.482 68.988 285.498 68.652L286.434 64.152C287.274 64.488 288.15 64.752 289.062 64.944C289.998 65.136 291.054 65.232 292.23 65.232C293.766 65.232 294.846 64.896 295.47 64.224C296.118 63.552 296.442 62.688 296.442 61.632V60.948C295.866 61.212 295.266 61.416 294.642 61.56C294.042 61.68 293.382 61.74 292.662 61.74C290.046 61.74 288.042 60.972 286.65 59.436C285.258 57.876 284.562 55.704 284.562 52.92C284.562 51.528 284.778 50.268 285.21 49.14C285.642 47.988 286.266 47.004 287.082 46.188C287.922 45.372 288.942 44.748 290.142 44.316C291.342 43.86 292.698 43.632 294.21 43.632C294.858 43.632 295.518 43.668 296.19 43.74C296.886 43.788 297.57 43.86 298.242 43.956C298.914 44.052 299.55 44.172 300.15 44.316C300.774 44.436 301.326 44.568 301.806 44.712V60.624ZM327.762 50.508C327.762 51.732 327.906 52.836 328.194 53.82C328.506 54.804 328.938 55.656 329.49 56.376C330.066 57.072 330.762 57.612 331.578 57.996C332.394 58.38 333.33 58.572 334.386 58.572C335.418 58.572 336.342 58.38 337.158 57.996C337.998 57.612 338.694 57.072 339.246 56.376C339.822 55.656 340.254 54.804 340.542 53.82C340.854 52.836 341.01 51.732 341.01 50.508C341.01 49.284 340.854 48.18 340.542 47.196C340.254 46.188 339.822 45.336 339.246 44.64C338.694 43.92 337.998 43.368 337.158 42.984C336.342 42.6 335.418 42.408 334.386 42.408C333.33 42.408 332.394 42.612 331.578 43.02C330.762 43.404 330.066 43.956 329.49 44.676C328.938 45.372 328.506 46.224 328.194 47.232C327.906 48.216 327.762 49.308 327.762 50.508ZM346.806 50.508C346.806 52.644 346.482 54.528 345.834 56.16C345.21 57.768 344.346 59.124 343.242 60.228C342.138 61.308 340.818 62.124 339.282 62.676C337.77 63.228 336.138 63.504 334.386 63.504C332.682 63.504 331.074 63.228 329.562 62.676C328.05 62.124 326.73 61.308 325.602 60.228C324.474 59.124 323.586 57.768 322.938 56.16C322.29 54.528 321.966 52.644 321.966 50.508C321.966 48.372 322.302 46.5 322.974 44.892C323.646 43.26 324.546 41.892 325.674 40.788C326.826 39.684 328.146 38.856 329.634 38.304C331.146 37.752 332.73 37.476 334.386 37.476C336.09 37.476 337.698 37.752 339.21 38.304C340.722 38.856 342.042 39.684 343.17 40.788C344.298 41.892 345.186 43.26 345.834 44.892C346.482 46.5 346.806 48.372 346.806 50.508ZM366.139 48.816C365.659 48.696 365.095 48.576 364.447 48.456C363.799 48.312 363.103 48.24 362.359 48.24C362.023 48.24 361.615 48.276 361.135 48.348C360.679 48.396 360.331 48.456 360.091 48.528V63H354.727V45.072C355.687 44.736 356.815 44.424 358.111 44.136C359.431 43.824 360.895 43.668 362.503 43.668C362.791 43.668 363.139 43.692 363.547 43.74C363.955 43.764 364.363 43.812 364.771 43.884C365.179 43.932 365.587 44.004 365.995 44.1C366.403 44.172 366.751 44.268 367.039 44.388L366.139 48.816ZM377.735 53.388C377.735 55.044 378.107 56.376 378.851 57.384C379.595 58.392 380.699 58.896 382.163 58.896C382.643 58.896 383.087 58.884 383.495 58.86C383.903 58.812 384.239 58.764 384.503 58.716V48.96C384.167 48.744 383.723 48.564 383.171 48.42C382.643 48.276 382.103 48.204 381.551 48.204C379.007 48.204 377.735 49.932 377.735 53.388ZM389.867 62.388C389.387 62.532 388.835 62.676 388.211 62.82C387.587 62.94 386.927 63.048 386.231 63.144C385.559 63.24 384.863 63.312 384.143 63.36C383.447 63.432 382.775 63.468 382.127 63.468C380.567 63.468 379.175 63.24 377.951 62.784C376.727 62.328 375.695 61.68 374.855 60.84C374.015 59.976 373.367 58.944 372.911 57.744C372.479 56.52 372.263 55.152 372.263 53.64C372.263 52.104 372.455 50.724 372.839 49.5C373.223 48.252 373.775 47.196 374.495 46.332C375.215 45.468 376.091 44.808 377.123 44.352C378.179 43.896 379.379 43.668 380.723 43.668C381.467 43.668 382.127 43.74 382.703 43.884C383.303 44.028 383.903 44.232 384.503 44.496V35.928L389.867 35.064V62.388ZM397.59 53.676C397.59 51.996 397.842 50.532 398.346 49.284C398.874 48.012 399.558 46.956 400.398 46.116C401.238 45.276 402.198 44.64 403.278 44.208C404.382 43.776 405.51 43.56 406.662 43.56C409.35 43.56 411.474 44.388 413.034 46.044C414.594 47.676 415.374 50.088 415.374 53.28C415.374 53.592 415.362 53.94 415.338 54.324C415.314 54.684 415.29 55.008 415.266 55.296H403.098C403.218 56.4 403.734 57.276 404.646 57.924C405.558 58.572 406.782 58.896 408.318 58.896C409.302 58.896 410.262 58.812 411.198 58.644C412.158 58.452 412.938 58.224 413.538 57.96L414.258 62.316C413.97 62.46 413.586 62.604 413.106 62.748C412.626 62.892 412.086 63.012 411.486 63.108C410.91 63.228 410.286 63.324 409.614 63.396C408.942 63.468 408.27 63.504 407.598 63.504C405.894 63.504 404.406 63.252 403.134 62.748C401.886 62.244 400.842 61.56 400.002 60.696C399.186 59.808 398.574 58.764 398.166 57.564C397.782 56.364 397.59 55.068 397.59 53.676ZM410.19 51.624C410.166 51.168 410.082 50.724 409.938 50.292C409.818 49.86 409.614 49.476 409.326 49.14C409.062 48.804 408.714 48.528 408.282 48.312C407.874 48.096 407.358 47.988 406.734 47.988C406.134 47.988 405.618 48.096 405.186 48.312C404.754 48.504 404.394 48.768 404.106 49.104C403.818 49.44 403.59 49.836 403.422 50.292C403.278 50.724 403.17 51.168 403.098 51.624H410.19ZM434.525 48.816C434.045 48.696 433.481 48.576 432.833 48.456C432.185 48.312 431.489 48.24 430.745 48.24C430.409 48.24 430.001 48.276 429.521 48.348C429.065 48.396 428.717 48.456 428.477 48.528V63H423.113V45.072C424.073 44.736 425.201 44.424 426.497 44.136C427.817 43.824 429.281 43.668 430.889 43.668C431.177 43.668 431.525 43.692 431.933 43.74C432.341 43.764 432.749 43.812 433.157 43.884C433.565 43.932 433.973 44.004 434.381 44.1C434.789 44.172 435.137 44.268 435.425 44.388L434.525 48.816ZM447.336 59.148C448.32 59.148 449.016 59.052 449.424 58.86C449.832 58.668 450.036 58.296 450.036 57.744C450.036 57.312 449.772 56.94 449.244 56.628C448.716 56.292 447.912 55.92 446.832 55.512C445.992 55.2 445.224 54.876 444.528 54.54C443.856 54.204 443.28 53.808 442.8 53.352C442.32 52.872 441.948 52.308 441.684 51.66C441.42 51.012 441.288 50.232 441.288 49.32C441.288 47.544 441.948 46.14 443.268 45.108C444.588 44.076 446.4 43.56 448.704 43.56C449.856 43.56 450.96 43.668 452.016 43.884C453.072 44.076 453.912 44.292 454.536 44.532L453.6 48.708C452.976 48.492 452.292 48.3 451.548 48.132C450.828 47.964 450.012 47.88 449.1 47.88C447.42 47.88 446.58 48.348 446.58 49.284C446.58 49.5 446.616 49.692 446.688 49.86C446.76 50.028 446.904 50.196 447.12 50.364C447.336 50.508 447.624 50.676 447.984 50.868C448.368 51.036 448.848 51.228 449.424 51.444C450.6 51.876 451.572 52.308 452.34 52.74C453.108 53.148 453.708 53.604 454.14 54.108C454.596 54.588 454.908 55.128 455.076 55.728C455.268 56.328 455.364 57.024 455.364 57.816C455.364 59.688 454.656 61.104 453.24 62.064C451.848 63.024 449.868 63.504 447.3 63.504C445.62 63.504 444.216 63.36 443.088 63.072C441.984 62.784 441.216 62.544 440.784 62.352L441.684 57.996C442.596 58.356 443.532 58.644 444.492 58.86C445.452 59.052 446.4 59.148 447.336 59.148Z" fill="#F9FBF9"/>
</g>
<defs>
<filter id="filter0_b_78_118" x="5" y="-4" width="573" height="128" filterUnits="userSpaceOnUse" color-interpolation-filters="sRGB">
<feFlood flood-opacity="0" result="BackgroundImageFix"/>
<feGaussianBlur in="BackgroundImage" stdDeviation="2"/>
<feComposite in2="SourceAlpha" operator="in" result="effect1_backgroundBlur_78_118"/>
<feBlend mode="normal" in="SourceGraphic" in2="effect1_backgroundBlur_78_118" result="shape"/>
</filter>
</defs>
</svg>
