<svg width="556" height="59" viewBox="0 0 556 59" fill="none" xmlns="http://www.w3.org/2000/svg">
<path d="M13.3581 4.94C19.5581 4.94 24.3181 6.04 27.6381 8.24C30.9581 10.4 32.6181 13.96 32.6181 18.92C32.6181 23.92 30.9381 27.54 27.5781 29.78C24.2181 31.98 19.4181 33.08 13.1781 33.08H10.2381V47H0.878125V6.02C2.91813 5.62 5.07813 5.34 7.35813 5.18C9.63813 5.02 11.6381 4.94 13.3581 4.94ZM13.9581 12.92C13.2781 12.92 12.5981 12.94 11.9181 12.98C11.2781 13.02 10.7181 13.06 10.2381 13.1V25.1H13.1781C16.4181 25.1 18.8581 24.66 20.4981 23.78C22.1381 22.9 22.9581 21.26 22.9581 18.86C22.9581 17.7 22.7381 16.74 22.2981 15.98C21.8981 15.22 21.2981 14.62 20.4981 14.18C19.7381 13.7 18.7981 13.38 17.6781 13.22C16.5581 13.02 15.3181 12.92 13.9581 12.92ZM45.5125 31.46C45.5125 28.66 45.9325 26.22 46.7725 24.14C47.6525 22.02 48.7925 20.26 50.1925 18.86C51.5925 17.46 53.1925 16.4 54.9925 15.68C56.8325 14.96 58.7125 14.6 60.6325 14.6C65.1125 14.6 68.6525 15.98 71.2525 18.74C73.8525 21.46 75.1525 25.48 75.1525 30.8C75.1525 31.32 75.1325 31.9 75.0925 32.54C75.0525 33.14 75.0125 33.68 74.9725 34.16H54.6925C54.8925 36 55.7525 37.46 57.2725 38.54C58.7925 39.62 60.8325 40.16 63.3925 40.16C65.0325 40.16 66.6325 40.02 68.1925 39.74C69.7925 39.42 71.0925 39.04 72.0925 38.6L73.2925 45.86C72.8125 46.1 72.1725 46.34 71.3725 46.58C70.5725 46.82 69.6725 47.02 68.6725 47.18C67.7125 47.38 66.6725 47.54 65.5525 47.66C64.4325 47.78 63.3125 47.84 62.1925 47.84C59.3525 47.84 56.8725 47.42 54.7525 46.58C52.6725 45.74 50.9325 44.6 49.5325 43.16C48.1725 41.68 47.1525 39.94 46.4725 37.94C45.8325 35.94 45.5125 33.78 45.5125 31.46ZM66.5125 28.04C66.4725 27.28 66.3325 26.54 66.0925 25.82C65.8925 25.1 65.5525 24.46 65.0725 23.9C64.6325 23.34 64.0525 22.88 63.3325 22.52C62.6525 22.16 61.7925 21.98 60.7525 21.98C59.7525 21.98 58.8925 22.16 58.1725 22.52C57.4525 22.84 56.8525 23.28 56.3725 23.84C55.8925 24.4 55.5125 25.06 55.2325 25.82C54.9925 26.54 54.8125 27.28 54.6925 28.04H66.5125ZM91.0516 16.52C92.5716 16.08 94.5316 15.68 96.9316 15.32C99.3316 14.92 101.852 14.72 104.492 14.72C107.172 14.72 109.392 15.08 111.152 15.8C112.952 16.48 114.372 17.46 115.412 18.74C116.452 20.02 117.192 21.54 117.632 23.3C118.072 25.06 118.292 27.02 118.292 29.18V47H109.352V30.26C109.352 27.38 108.972 25.34 108.212 24.14C107.452 22.94 106.032 22.34 103.952 22.34C103.312 22.34 102.632 22.38 101.912 22.46C101.192 22.5 100.552 22.56 99.9916 22.64V47H91.0516V16.52ZM143.004 30.98C143.004 33.74 143.624 35.96 144.864 37.64C146.104 39.32 147.944 40.16 150.384 40.16C151.184 40.16 151.924 40.14 152.604 40.1C153.284 40.02 153.844 39.94 154.284 39.86V23.6C153.724 23.24 152.984 22.94 152.064 22.7C151.184 22.46 150.284 22.34 149.364 22.34C145.124 22.34 143.004 25.22 143.004 30.98ZM163.224 45.98C162.424 46.22 161.504 46.46 160.464 46.7C159.424 46.9 158.324 47.08 157.164 47.24C156.044 47.4 154.884 47.52 153.684 47.6C152.524 47.72 151.404 47.78 150.324 47.78C147.724 47.78 145.404 47.4 143.364 46.64C141.324 45.88 139.604 44.8 138.204 43.4C136.804 41.96 135.724 40.24 134.964 38.24C134.244 36.2 133.884 33.92 133.884 31.4C133.884 28.84 134.204 26.54 134.844 24.5C135.484 22.42 136.404 20.66 137.604 19.22C138.804 17.78 140.264 16.68 141.984 15.92C143.744 15.16 145.744 14.78 147.984 14.78C149.224 14.78 150.324 14.9 151.284 15.14C152.284 15.38 153.284 15.72 154.284 16.16V1.88L163.224 0.439999V45.98ZM189.535 47H180.595V15.44H189.535V47ZM190.375 6.32C190.375 7.96 189.835 9.26 188.755 10.22C187.715 11.14 186.475 11.6 185.035 11.6C183.595 11.6 182.335 11.14 181.255 10.22C180.215 9.26 179.695 7.96 179.695 6.32C179.695 4.68 180.215 3.4 181.255 2.48C182.335 1.52 183.595 1.04 185.035 1.04C186.475 1.04 187.715 1.52 188.755 2.48C189.835 3.4 190.375 4.68 190.375 6.32ZM206.938 16.52C208.458 16.08 210.418 15.68 212.818 15.32C215.218 14.92 217.738 14.72 220.378 14.72C223.058 14.72 225.278 15.08 227.038 15.8C228.838 16.48 230.258 17.46 231.298 18.74C232.338 20.02 233.078 21.54 233.518 23.3C233.958 25.06 234.178 27.02 234.178 29.18V47H225.238V30.26C225.238 27.38 224.858 25.34 224.098 24.14C223.338 22.94 221.918 22.34 219.838 22.34C219.198 22.34 218.518 22.38 217.798 22.46C217.078 22.5 216.438 22.56 215.878 22.64V47H206.938V16.52ZM258.89 30.2C258.89 35.2 260.91 37.7 264.95 37.7C265.87 37.7 266.73 37.58 267.53 37.34C268.33 37.1 269.01 36.82 269.57 36.5V22.22C269.13 22.14 268.61 22.08 268.01 22.04C267.41 21.96 266.71 21.92 265.91 21.92C263.55 21.92 261.79 22.7 260.63 24.26C259.47 25.82 258.89 27.8 258.89 30.2ZM278.51 43.04C278.51 48.2 277.19 52.02 274.55 54.5C271.95 57.02 267.91 58.28 262.43 58.28C260.51 58.28 258.59 58.1 256.67 57.74C254.75 57.42 252.97 56.98 251.33 56.42L252.89 48.92C254.29 49.48 255.75 49.92 257.27 50.24C258.83 50.56 260.59 50.72 262.55 50.72C265.11 50.72 266.91 50.16 267.95 49.04C269.03 47.92 269.57 46.48 269.57 44.72V43.58C268.61 44.02 267.61 44.36 266.57 44.6C265.57 44.8 264.47 44.9 263.27 44.9C258.91 44.9 255.57 43.62 253.25 41.06C250.93 38.46 249.77 34.84 249.77 30.2C249.77 27.88 250.13 25.78 250.85 23.9C251.57 21.98 252.61 20.34 253.97 18.98C255.37 17.62 257.07 16.58 259.07 15.86C261.07 15.1 263.33 14.72 265.85 14.72C266.93 14.72 268.03 14.78 269.15 14.9C270.31 14.98 271.45 15.1 272.57 15.26C273.69 15.42 274.75 15.62 275.75 15.86C276.79 16.06 277.71 16.28 278.51 16.52V43.04ZM327.769 26.18C327.769 28.22 328.009 30.06 328.489 31.7C329.009 33.34 329.729 34.76 330.649 35.96C331.609 37.12 332.769 38.02 334.129 38.66C335.489 39.3 337.049 39.62 338.809 39.62C340.529 39.62 342.069 39.3 343.429 38.66C344.829 38.02 345.989 37.12 346.909 35.96C347.869 34.76 348.589 33.34 349.069 31.7C349.589 30.06 349.849 28.22 349.849 26.18C349.849 24.14 349.589 22.3 349.069 20.66C348.589 18.98 347.869 17.56 346.909 16.4C345.989 15.2 344.829 14.28 343.429 13.64C342.069 13 340.529 12.68 338.809 12.68C337.049 12.68 335.489 13.02 334.129 13.7C332.769 14.34 331.609 15.26 330.649 16.46C329.729 17.62 329.009 19.04 328.489 20.72C328.009 22.36 327.769 24.18 327.769 26.18ZM359.509 26.18C359.509 29.74 358.969 32.88 357.889 35.6C356.849 38.28 355.409 40.54 353.569 42.38C351.729 44.18 349.529 45.54 346.969 46.46C344.449 47.38 341.729 47.84 338.809 47.84C335.969 47.84 333.289 47.38 330.769 46.46C328.249 45.54 326.049 44.18 324.169 42.38C322.289 40.54 320.809 38.28 319.729 35.6C318.649 32.88 318.109 29.74 318.109 26.18C318.109 22.62 318.669 19.5 319.789 16.82C320.909 14.1 322.409 11.82 324.289 9.98C326.209 8.14 328.409 6.76 330.889 5.84C333.409 4.92 336.049 4.46 338.809 4.46C341.649 4.46 344.329 4.92 346.849 5.84C349.369 6.76 351.569 8.14 353.449 9.98C355.329 11.82 356.809 14.1 357.889 16.82C358.969 19.5 359.509 22.62 359.509 26.18ZM394.732 23.36C393.932 23.16 392.992 22.96 391.912 22.76C390.832 22.52 389.672 22.4 388.432 22.4C387.872 22.4 387.192 22.46 386.392 22.58C385.632 22.66 385.052 22.76 384.652 22.88V47H375.712V17.12C377.312 16.56 379.192 16.04 381.352 15.56C383.552 15.04 385.992 14.78 388.672 14.78C389.152 14.78 389.732 14.82 390.412 14.9C391.092 14.94 391.772 15.02 392.452 15.14C393.132 15.22 393.812 15.34 394.492 15.5C395.172 15.62 395.752 15.78 396.232 15.98L394.732 23.36ZM417.058 30.98C417.058 33.74 417.678 35.96 418.918 37.64C420.158 39.32 421.998 40.16 424.438 40.16C425.238 40.16 425.978 40.14 426.658 40.1C427.338 40.02 427.898 39.94 428.338 39.86V23.6C427.778 23.24 427.038 22.94 426.118 22.7C425.238 22.46 424.338 22.34 423.418 22.34C419.178 22.34 417.058 25.22 417.058 30.98ZM437.278 45.98C436.478 46.22 435.558 46.46 434.518 46.7C433.478 46.9 432.378 47.08 431.218 47.24C430.098 47.4 428.938 47.52 427.738 47.6C426.578 47.72 425.458 47.78 424.378 47.78C421.778 47.78 419.458 47.4 417.418 46.64C415.378 45.88 413.658 44.8 412.258 43.4C410.858 41.96 409.778 40.24 409.018 38.24C408.298 36.2 407.938 33.92 407.938 31.4C407.938 28.84 408.258 26.54 408.898 24.5C409.538 22.42 410.458 20.66 411.658 19.22C412.858 17.78 414.318 16.68 416.038 15.92C417.798 15.16 419.798 14.78 422.038 14.78C423.278 14.78 424.378 14.9 425.338 15.14C426.338 15.38 427.338 15.72 428.338 16.16V1.88L437.278 0.439999V45.98ZM453.149 31.46C453.149 28.66 453.569 26.22 454.409 24.14C455.289 22.02 456.429 20.26 457.829 18.86C459.229 17.46 460.829 16.4 462.629 15.68C464.469 14.96 466.349 14.6 468.269 14.6C472.749 14.6 476.289 15.98 478.889 18.74C481.489 21.46 482.789 25.48 482.789 30.8C482.789 31.32 482.769 31.9 482.729 32.54C482.689 33.14 482.649 33.68 482.609 34.16H462.329C462.529 36 463.389 37.46 464.909 38.54C466.429 39.62 468.469 40.16 471.029 40.16C472.669 40.16 474.269 40.02 475.829 39.74C477.429 39.42 478.729 39.04 479.729 38.6L480.929 45.86C480.449 46.1 479.809 46.34 479.009 46.58C478.209 46.82 477.309 47.02 476.309 47.18C475.349 47.38 474.309 47.54 473.189 47.66C472.069 47.78 470.949 47.84 469.829 47.84C466.989 47.84 464.509 47.42 462.389 46.58C460.309 45.74 458.569 44.6 457.169 43.16C455.809 41.68 454.789 39.94 454.109 37.94C453.469 35.94 453.149 33.78 453.149 31.46ZM474.149 28.04C474.109 27.28 473.969 26.54 473.729 25.82C473.529 25.1 473.189 24.46 472.709 23.9C472.269 23.34 471.689 22.88 470.969 22.52C470.289 22.16 469.429 21.98 468.389 21.98C467.389 21.98 466.529 22.16 465.809 22.52C465.089 22.84 464.489 23.28 464.009 23.84C463.529 24.4 463.149 25.06 462.869 25.82C462.629 26.54 462.449 27.28 462.329 28.04H474.149ZM517.708 23.36C516.908 23.16 515.968 22.96 514.888 22.76C513.808 22.52 512.648 22.4 511.408 22.4C510.848 22.4 510.168 22.46 509.368 22.58C508.608 22.66 508.028 22.76 507.628 22.88V47H498.688V17.12C500.288 16.56 502.168 16.04 504.328 15.56C506.528 15.04 508.968 14.78 511.648 14.78C512.128 14.78 512.708 14.82 513.388 14.9C514.068 14.94 514.748 15.02 515.428 15.14C516.108 15.22 516.788 15.34 517.468 15.5C518.148 15.62 518.728 15.78 519.208 15.98L517.708 23.36ZM542.061 40.58C543.701 40.58 544.861 40.42 545.541 40.1C546.221 39.78 546.561 39.16 546.561 38.24C546.561 37.52 546.121 36.9 545.241 36.38C544.361 35.82 543.021 35.2 541.221 34.52C539.821 34 538.541 33.46 537.381 32.9C536.261 32.34 535.301 31.68 534.501 30.92C533.701 30.12 533.081 29.18 532.641 28.1C532.201 27.02 531.981 25.72 531.981 24.2C531.981 21.24 533.081 18.9 535.281 17.18C537.481 15.46 540.501 14.6 544.341 14.6C546.261 14.6 548.101 14.78 549.861 15.14C551.621 15.46 553.021 15.82 554.061 16.22L552.501 23.18C551.461 22.82 550.321 22.5 549.081 22.22C547.881 21.94 546.521 21.8 545.001 21.8C542.201 21.8 540.801 22.58 540.801 24.14C540.801 24.5 540.861 24.82 540.981 25.1C541.101 25.38 541.341 25.66 541.701 25.94C542.061 26.18 542.541 26.46 543.141 26.78C543.781 27.06 544.581 27.38 545.541 27.74C547.501 28.46 549.121 29.18 550.401 29.9C551.681 30.58 552.681 31.34 553.401 32.18C554.161 32.98 554.681 33.88 554.961 34.88C555.281 35.88 555.441 37.04 555.441 38.36C555.441 41.48 554.261 43.84 551.901 45.44C549.581 47.04 546.281 47.84 542.001 47.84C539.201 47.84 536.861 47.6 534.981 47.12C533.141 46.64 531.861 46.24 531.141 45.92L532.641 38.66C534.161 39.26 535.721 39.74 537.321 40.1C538.921 40.42 540.501 40.58 542.061 40.58Z" fill="#1B93C7"/>
</svg>
