<svg width="600" height="120" viewBox="0 0 600 120" fill="none" xmlns="http://www.w3.org/2000/svg">
<g filter="url(#filter0_b_78_112)">
<rect x="1" width="564" height="120" rx="20" fill="#1653CA" fill-opacity="0.8"/>
<path d="M130.913 70.504C129.161 70.504 127.649 70.264 126.377 69.784C125.105 69.28 124.049 68.596 123.209 67.732C122.393 66.844 121.781 65.8 121.373 64.6C120.989 63.376 120.797 62.032 120.797 60.568V45.052H126.413V60.1C126.413 61.108 126.521 61.972 126.737 62.692C126.977 63.388 127.289 63.964 127.673 64.42C128.081 64.852 128.561 65.164 129.113 65.356C129.689 65.548 130.313 65.644 130.985 65.644C132.353 65.644 133.457 65.224 134.297 64.384C135.161 63.544 135.593 62.116 135.593 60.1V45.052H141.209V60.568C141.209 62.032 141.005 63.376 140.597 64.6C140.189 65.824 139.565 66.88 138.725 67.768C137.885 68.632 136.817 69.304 135.521 69.784C134.225 70.264 132.689 70.504 130.913 70.504ZM161.982 60.676C161.982 59.02 161.61 57.7 160.866 56.716C160.122 55.708 159.018 55.204 157.554 55.204C157.074 55.204 156.63 55.228 156.222 55.276C155.814 55.3 155.478 55.336 155.214 55.384V65.068C155.55 65.284 155.982 65.464 156.51 65.608C157.062 65.752 157.614 65.824 158.166 65.824C160.71 65.824 161.982 64.108 161.982 60.676ZM167.454 60.532C167.454 61.996 167.274 63.328 166.914 64.528C166.554 65.728 166.026 66.76 165.33 67.624C164.634 68.488 163.77 69.16 162.738 69.64C161.706 70.12 160.518 70.36 159.174 70.36C158.43 70.36 157.734 70.288 157.086 70.144C156.438 70 155.814 69.796 155.214 69.532V76.66H149.85V51.712C150.33 51.568 150.882 51.436 151.506 51.316C152.13 51.172 152.778 51.052 153.45 50.956C154.146 50.86 154.842 50.788 155.538 50.74C156.258 50.668 156.942 50.632 157.59 50.632C159.15 50.632 160.542 50.872 161.766 51.352C162.99 51.808 164.022 52.468 164.862 53.332C165.702 54.172 166.338 55.204 166.77 56.428C167.226 57.652 167.454 59.02 167.454 60.532ZM182.737 70.36C181.177 70.336 179.905 70.168 178.921 69.856C177.961 69.544 177.193 69.112 176.617 68.56C176.065 67.984 175.681 67.3 175.465 66.508C175.273 65.692 175.177 64.78 175.177 63.772V42.928L180.541 42.064V62.692C180.541 63.172 180.577 63.604 180.649 63.988C180.721 64.372 180.853 64.696 181.045 64.96C181.261 65.224 181.561 65.44 181.945 65.608C182.329 65.776 182.845 65.884 183.493 65.932L182.737 70.36ZM207.88 60.496C207.88 61.984 207.664 63.352 207.232 64.6C206.8 65.824 206.176 66.88 205.36 67.768C204.544 68.632 203.56 69.304 202.408 69.784C201.28 70.264 200.008 70.504 198.592 70.504C197.2 70.504 195.928 70.264 194.776 69.784C193.648 69.304 192.676 68.632 191.86 67.768C191.044 66.88 190.408 65.824 189.952 64.6C189.496 63.352 189.268 61.984 189.268 60.496C189.268 59.008 189.496 57.652 189.952 56.428C190.432 55.204 191.08 54.16 191.896 53.296C192.736 52.432 193.72 51.76 194.848 51.28C196 50.8 197.248 50.56 198.592 50.56C199.96 50.56 201.208 50.8 202.336 51.28C203.488 51.76 204.472 52.432 205.288 53.296C206.104 54.16 206.74 55.204 207.196 56.428C207.652 57.652 207.88 59.008 207.88 60.496ZM202.408 60.496C202.408 58.84 202.072 57.544 201.4 56.608C200.752 55.648 199.816 55.168 198.592 55.168C197.368 55.168 196.42 55.648 195.748 56.608C195.076 57.544 194.74 58.84 194.74 60.496C194.74 62.152 195.076 63.472 195.748 64.456C196.42 65.416 197.368 65.896 198.592 65.896C199.816 65.896 200.752 65.416 201.4 64.456C202.072 63.472 202.408 62.152 202.408 60.496ZM222.871 66.256C223.399 66.256 223.903 66.244 224.383 66.22C224.863 66.196 225.247 66.16 225.535 66.112V62.044C225.319 61.996 224.995 61.948 224.563 61.9C224.131 61.852 223.735 61.828 223.375 61.828C222.871 61.828 222.391 61.864 221.935 61.936C221.503 61.984 221.119 62.092 220.783 62.26C220.447 62.428 220.183 62.656 219.991 62.944C219.799 63.232 219.703 63.592 219.703 64.024C219.703 64.864 219.979 65.452 220.531 65.788C221.107 66.1 221.887 66.256 222.871 66.256ZM222.439 50.56C224.023 50.56 225.343 50.74 226.399 51.1C227.455 51.46 228.295 51.976 228.919 52.648C229.567 53.32 230.023 54.136 230.287 55.096C230.551 56.056 230.683 57.124 230.683 58.3V69.46C229.915 69.628 228.847 69.82 227.479 70.036C226.111 70.276 224.455 70.396 222.511 70.396C221.287 70.396 220.171 70.288 219.163 70.072C218.179 69.856 217.327 69.508 216.607 69.028C215.887 68.524 215.335 67.876 214.951 67.084C214.567 66.292 214.375 65.32 214.375 64.168C214.375 63.064 214.591 62.128 215.023 61.36C215.479 60.592 216.079 59.98 216.823 59.524C217.567 59.068 218.419 58.744 219.379 58.552C220.339 58.336 221.335 58.228 222.367 58.228C223.063 58.228 223.675 58.264 224.203 58.336C224.755 58.384 225.199 58.456 225.535 58.552V58.048C225.535 57.136 225.259 56.404 224.707 55.852C224.155 55.3 223.195 55.024 221.827 55.024C220.915 55.024 220.015 55.096 219.127 55.24C218.239 55.36 217.471 55.54 216.823 55.78L216.139 51.46C216.451 51.364 216.835 51.268 217.291 51.172C217.771 51.052 218.287 50.956 218.839 50.884C219.391 50.788 219.967 50.716 220.567 50.668C221.191 50.596 221.815 50.56 222.439 50.56ZM243.705 60.388C243.705 62.044 244.077 63.376 244.821 64.384C245.565 65.392 246.669 65.896 248.133 65.896C248.613 65.896 249.057 65.884 249.465 65.86C249.873 65.812 250.209 65.764 250.473 65.716V55.96C250.137 55.744 249.693 55.564 249.141 55.42C248.613 55.276 248.073 55.204 247.521 55.204C244.977 55.204 243.705 56.932 243.705 60.388ZM255.837 69.388C255.357 69.532 254.805 69.676 254.181 69.82C253.557 69.94 252.897 70.048 252.201 70.144C251.529 70.24 250.833 70.312 250.113 70.36C249.417 70.432 248.745 70.468 248.097 70.468C246.537 70.468 245.145 70.24 243.921 69.784C242.697 69.328 241.665 68.68 240.825 67.84C239.985 66.976 239.337 65.944 238.881 64.744C238.449 63.52 238.233 62.152 238.233 60.64C238.233 59.104 238.425 57.724 238.809 56.5C239.193 55.252 239.745 54.196 240.465 53.332C241.185 52.468 242.061 51.808 243.093 51.352C244.149 50.896 245.349 50.668 246.693 50.668C247.437 50.668 248.097 50.74 248.673 50.884C249.273 51.028 249.873 51.232 250.473 51.496V42.928L255.837 42.064V69.388ZM293.772 70C293.508 69.136 293.208 68.248 292.872 67.336C292.56 66.424 292.248 65.512 291.936 64.6H282.216C281.904 65.512 281.58 66.424 281.244 67.336C280.932 68.248 280.644 69.136 280.38 70H274.548C275.484 67.312 276.372 64.828 277.212 62.548C278.052 60.268 278.868 58.12 279.66 56.104C280.476 54.088 281.268 52.18 282.036 50.38C282.828 48.556 283.644 46.78 284.484 45.052H289.848C290.664 46.78 291.468 48.556 292.26 50.38C293.052 52.18 293.844 54.088 294.636 56.104C295.452 58.12 296.28 60.268 297.12 62.548C297.96 64.828 298.848 67.312 299.784 70H293.772ZM287.04 50.704C286.92 51.064 286.74 51.556 286.5 52.18C286.26 52.804 285.984 53.524 285.672 54.34C285.36 55.156 285.012 56.056 284.628 57.04C284.268 58.024 283.896 59.056 283.512 60.136H290.604C290.22 59.056 289.848 58.024 289.488 57.04C289.128 56.056 288.78 55.156 288.444 54.34C288.132 53.524 287.856 52.804 287.616 52.18C287.376 51.556 287.184 51.064 287.04 50.704ZM306.254 51.712C307.166 51.448 308.342 51.208 309.782 50.992C311.222 50.752 312.734 50.632 314.318 50.632C315.926 50.632 317.258 50.848 318.314 51.28C319.394 51.688 320.246 52.276 320.87 53.044C321.494 53.812 321.938 54.724 322.202 55.78C322.466 56.836 322.598 58.012 322.598 59.308V70H317.234V59.956C317.234 58.228 317.006 57.004 316.55 56.284C316.094 55.564 315.242 55.204 313.994 55.204C313.61 55.204 313.202 55.228 312.77 55.276C312.338 55.3 311.954 55.336 311.618 55.384V70H306.254V51.712ZM335.625 60.388C335.625 62.044 335.997 63.376 336.741 64.384C337.485 65.392 338.589 65.896 340.053 65.896C340.533 65.896 340.977 65.884 341.385 65.86C341.793 65.812 342.129 65.764 342.393 65.716V55.96C342.057 55.744 341.613 55.564 341.061 55.42C340.533 55.276 339.993 55.204 339.441 55.204C336.897 55.204 335.625 56.932 335.625 60.388ZM347.757 69.388C347.277 69.532 346.725 69.676 346.101 69.82C345.477 69.94 344.817 70.048 344.121 70.144C343.449 70.24 342.753 70.312 342.033 70.36C341.337 70.432 340.665 70.468 340.017 70.468C338.457 70.468 337.065 70.24 335.841 69.784C334.617 69.328 333.585 68.68 332.745 67.84C331.905 66.976 331.257 65.944 330.801 64.744C330.369 63.52 330.153 62.152 330.153 60.64C330.153 59.104 330.345 57.724 330.729 56.5C331.113 55.252 331.665 54.196 332.385 53.332C333.105 52.468 333.981 51.808 335.013 51.352C336.069 50.896 337.269 50.668 338.613 50.668C339.357 50.668 340.017 50.74 340.593 50.884C341.193 51.028 341.793 51.232 342.393 51.496V42.928L347.757 42.064V69.388ZM373.704 57.508C373.704 58.732 373.848 59.836 374.136 60.82C374.448 61.804 374.88 62.656 375.432 63.376C376.008 64.072 376.704 64.612 377.52 64.996C378.336 65.38 379.272 65.572 380.328 65.572C381.36 65.572 382.284 65.38 383.1 64.996C383.94 64.612 384.636 64.072 385.188 63.376C385.764 62.656 386.196 61.804 386.484 60.82C386.796 59.836 386.952 58.732 386.952 57.508C386.952 56.284 386.796 55.18 386.484 54.196C386.196 53.188 385.764 52.336 385.188 51.64C384.636 50.92 383.94 50.368 383.1 49.984C382.284 49.6 381.36 49.408 380.328 49.408C379.272 49.408 378.336 49.612 377.52 50.02C376.704 50.404 376.008 50.956 375.432 51.676C374.88 52.372 374.448 53.224 374.136 54.232C373.848 55.216 373.704 56.308 373.704 57.508ZM392.748 57.508C392.748 59.644 392.424 61.528 391.776 63.16C391.152 64.768 390.288 66.124 389.184 67.228C388.08 68.308 386.76 69.124 385.224 69.676C383.712 70.228 382.08 70.504 380.328 70.504C378.624 70.504 377.016 70.228 375.504 69.676C373.992 69.124 372.672 68.308 371.544 67.228C370.416 66.124 369.528 64.768 368.88 63.16C368.232 61.528 367.908 59.644 367.908 57.508C367.908 55.372 368.244 53.5 368.916 51.892C369.588 50.26 370.488 48.892 371.616 47.788C372.768 46.684 374.088 45.856 375.576 45.304C377.088 44.752 378.672 44.476 380.328 44.476C382.032 44.476 383.64 44.752 385.152 45.304C386.664 45.856 387.984 46.684 389.112 47.788C390.24 48.892 391.128 50.26 391.776 51.892C392.424 53.5 392.748 55.372 392.748 57.508ZM412.081 55.816C411.601 55.696 411.037 55.576 410.389 55.456C409.741 55.312 409.045 55.24 408.301 55.24C407.965 55.24 407.557 55.276 407.077 55.348C406.621 55.396 406.273 55.456 406.033 55.528V70H400.669V52.072C401.629 51.736 402.757 51.424 404.053 51.136C405.373 50.824 406.837 50.668 408.445 50.668C408.733 50.668 409.081 50.692 409.489 50.74C409.897 50.764 410.305 50.812 410.713 50.884C411.121 50.932 411.529 51.004 411.937 51.1C412.345 51.172 412.693 51.268 412.981 51.388L412.081 55.816ZM423.677 60.388C423.677 62.044 424.049 63.376 424.793 64.384C425.537 65.392 426.641 65.896 428.105 65.896C428.585 65.896 429.029 65.884 429.437 65.86C429.845 65.812 430.181 65.764 430.445 65.716V55.96C430.109 55.744 429.665 55.564 429.113 55.42C428.585 55.276 428.045 55.204 427.493 55.204C424.949 55.204 423.677 56.932 423.677 60.388ZM435.809 69.388C435.329 69.532 434.777 69.676 434.153 69.82C433.529 69.94 432.869 70.048 432.173 70.144C431.501 70.24 430.805 70.312 430.085 70.36C429.389 70.432 428.717 70.468 428.069 70.468C426.509 70.468 425.117 70.24 423.893 69.784C422.669 69.328 421.637 68.68 420.797 67.84C419.957 66.976 419.309 65.944 418.853 64.744C418.421 63.52 418.205 62.152 418.205 60.64C418.205 59.104 418.397 57.724 418.781 56.5C419.165 55.252 419.717 54.196 420.437 53.332C421.157 52.468 422.033 51.808 423.065 51.352C424.121 50.896 425.321 50.668 426.665 50.668C427.409 50.668 428.069 50.74 428.645 50.884C429.245 51.028 429.845 51.232 430.445 51.496V42.928L435.809 42.064V69.388ZM443.532 60.676C443.532 58.996 443.784 57.532 444.288 56.284C444.816 55.012 445.5 53.956 446.34 53.116C447.18 52.276 448.14 51.64 449.22 51.208C450.324 50.776 451.452 50.56 452.604 50.56C455.292 50.56 457.416 51.388 458.976 53.044C460.536 54.676 461.316 57.088 461.316 60.28C461.316 60.592 461.304 60.94 461.28 61.324C461.256 61.684 461.232 62.008 461.208 62.296H449.04C449.16 63.4 449.676 64.276 450.588 64.924C451.5 65.572 452.724 65.896 454.26 65.896C455.244 65.896 456.204 65.812 457.14 65.644C458.1 65.452 458.88 65.224 459.48 64.96L460.2 69.316C459.912 69.46 459.528 69.604 459.048 69.748C458.568 69.892 458.028 70.012 457.428 70.108C456.852 70.228 456.228 70.324 455.556 70.396C454.884 70.468 454.212 70.504 453.54 70.504C451.836 70.504 450.348 70.252 449.076 69.748C447.828 69.244 446.784 68.56 445.944 67.696C445.128 66.808 444.516 65.764 444.108 64.564C443.724 63.364 443.532 62.068 443.532 60.676ZM456.132 58.624C456.108 58.168 456.024 57.724 455.88 57.292C455.76 56.86 455.556 56.476 455.268 56.14C455.004 55.804 454.656 55.528 454.224 55.312C453.816 55.096 453.3 54.988 452.676 54.988C452.076 54.988 451.56 55.096 451.128 55.312C450.696 55.504 450.336 55.768 450.048 56.104C449.76 56.44 449.532 56.836 449.364 57.292C449.22 57.724 449.112 58.168 449.04 58.624H456.132ZM480.467 55.816C479.987 55.696 479.423 55.576 478.775 55.456C478.127 55.312 477.431 55.24 476.687 55.24C476.351 55.24 475.943 55.276 475.463 55.348C475.007 55.396 474.659 55.456 474.419 55.528V70H469.055V52.072C470.015 51.736 471.143 51.424 472.439 51.136C473.759 50.824 475.223 50.668 476.831 50.668C477.119 50.668 477.467 50.692 477.875 50.74C478.283 50.764 478.691 50.812 479.099 50.884C479.507 50.932 479.915 51.004 480.323 51.1C480.731 51.172 481.079 51.268 481.367 51.388L480.467 55.816Z" fill="white"/>
</g>
<defs>
<filter id="filter0_b_78_112" x="-9" y="-10" width="584" height="140" filterUnits="userSpaceOnUse" color-interpolation-filters="sRGB">
<feFlood flood-opacity="0" result="BackgroundImageFix"/>
<feGaussianBlur in="BackgroundImage" stdDeviation="5"/>
<feComposite in2="SourceAlpha" operator="in" result="effect1_backgroundBlur_78_112"/>
<feBlend mode="normal" in="SourceGraphic" in2="effect1_backgroundBlur_78_112" result="shape"/>
</filter>
</defs>
</svg>
