<svg width="619" height="99" viewBox="0 0 619 99" fill="none" xmlns="http://www.w3.org/2000/svg">
<g filter="url(#filter0_d_63_42)">
<rect x="5" y="1" width="609" height="84" rx="10" fill="#1BC768"/>
<path d="M219.448 56.396C217.312 56.396 215.44 55.94 213.832 55.028C212.248 54.116 211.024 52.82 210.16 51.14C209.296 49.46 208.864 47.48 208.864 45.2V30.8H213.184V45.2C213.184 46.688 213.436 47.972 213.94 49.052C214.468 50.132 215.2 50.984 216.136 51.608C217.072 52.208 218.176 52.508 219.448 52.508C220.72 52.508 221.824 52.208 222.76 51.608C223.72 50.984 224.452 50.132 224.956 49.052C225.46 47.972 225.712 46.688 225.712 45.2V30.8H230.032V45.2C230.032 47.48 229.6 49.46 228.736 51.14C227.896 52.82 226.684 54.116 225.1 55.028C223.516 55.94 221.632 56.396 219.448 56.396ZM248.159 56V30.8H259.427C261.131 30.8 262.607 31.136 263.855 31.808C265.127 32.456 266.111 33.368 266.807 34.544C267.503 35.72 267.851 37.088 267.851 38.648C267.851 40.136 267.503 41.468 266.807 42.644C266.111 43.82 265.127 44.744 263.855 45.416C262.607 46.064 261.131 46.388 259.427 46.388H252.479V56H248.159ZM252.479 42.86H258.743C260.279 42.86 261.455 42.476 262.271 41.708C263.087 40.916 263.495 39.884 263.495 38.612C263.495 37.364 263.087 36.356 262.271 35.588C261.455 34.82 260.291 34.436 258.779 34.436H252.479V42.86ZM285.193 56V30.8H289.513V52.256H302.941V56H285.193ZM330.197 56.396C328.421 56.396 326.753 56.072 325.193 55.424C323.657 54.752 322.301 53.828 321.125 52.652C319.973 51.452 319.073 50.072 318.425 48.512C317.777 46.928 317.453 45.224 317.453 43.4C317.453 41.576 317.777 39.884 318.425 38.324C319.073 36.74 319.973 35.36 321.125 34.184C322.301 32.984 323.657 32.06 325.193 31.412C326.753 30.74 328.421 30.404 330.197 30.404C331.973 30.404 333.629 30.74 335.165 31.412C336.725 32.06 338.081 32.984 339.233 34.184C340.409 35.36 341.321 36.74 341.969 38.324C342.617 39.884 342.941 41.576 342.941 43.4C342.941 45.224 342.617 46.928 341.969 48.512C341.321 50.072 340.409 51.452 339.233 52.652C338.081 53.828 336.725 54.752 335.165 55.424C333.629 56.072 331.973 56.396 330.197 56.396ZM330.197 52.508C331.373 52.508 332.465 52.28 333.473 51.824C334.481 51.368 335.357 50.732 336.101 49.916C336.869 49.076 337.457 48.104 337.865 47C338.297 45.896 338.513 44.696 338.513 43.4C338.513 42.104 338.297 40.904 337.865 39.8C337.457 38.696 336.869 37.736 336.101 36.92C335.357 36.08 334.481 35.432 333.473 34.976C332.465 34.52 331.373 34.292 330.197 34.292C329.021 34.292 327.929 34.52 326.921 34.976C325.913 35.432 325.025 36.08 324.257 36.92C323.489 37.736 322.889 38.696 322.457 39.8C322.049 40.904 321.845 42.104 321.845 43.4C321.845 44.696 322.049 45.896 322.457 47C322.889 48.104 323.489 49.076 324.257 49.916C325.025 50.732 325.913 51.368 326.921 51.824C327.929 52.28 329.021 52.508 330.197 52.508ZM356.452 56L366.352 30.8H371.356L381.112 56H376.468L373.876 48.944H363.544L360.952 56H356.452ZM364.804 45.56H372.688L368.728 34.904L364.804 45.56ZM401.282 52.256H406.286C407.798 52.256 409.166 51.872 410.39 51.104C411.614 50.312 412.586 49.244 413.306 47.9C414.026 46.556 414.386 45.056 414.386 43.4C414.386 41.72 414.026 40.22 413.306 38.9C412.586 37.556 411.614 36.5 410.39 35.732C409.166 34.94 407.798 34.544 406.286 34.544H401.282V52.256ZM396.962 56V30.8H406.178C408.002 30.8 409.682 31.124 411.218 31.772C412.754 32.42 414.086 33.32 415.214 34.472C416.366 35.6 417.254 36.932 417.878 38.468C418.502 39.98 418.814 41.624 418.814 43.4C418.814 45.176 418.502 46.832 417.878 48.368C417.254 49.88 416.366 51.212 415.214 52.364C414.086 53.492 412.754 54.38 411.218 55.028C409.682 55.676 408.002 56 406.178 56H396.962Z" fill="#F9FBF9"/>
</g>
<defs>
<filter id="filter0_d_63_42" x="0" y="0" width="619" height="108" filterUnits="userSpaceOnUse" color-interpolation-filters="sRGB">
<feFlood flood-opacity="0" result="BackgroundImageFix"/>
<feColorMatrix in="SourceAlpha" type="matrix" values="0 0 0 0 0 0 0 0 0 0 0 0 0 0 0 0 0 0 127 0" result="hardAlpha"/>
<feOffset dy="4"/>
<feGaussianBlur stdDeviation="2.5"/>
<feComposite in2="hardAlpha" operator="out"/>
<feColorMatrix type="matrix" values="0 0 0 0 0 0 0 0 0 0 0 0 0 0 0 0 0 0 0.1 0"/>
<feBlend mode="normal" in2="BackgroundImageFix" result="effect1_dropShadow_63_42"/>
<feBlend mode="normal" in="SourceGraphic" in2="effect1_dropShadow_63_42" result="shape"/>
</filter>
</defs>
</svg>
