<svg width="443" height="134" viewBox="0 0 443 134" fill="none" xmlns="http://www.w3.org/2000/svg">
<path d="M17.892 47.84C14.972 47.84 12.452 47.44 10.332 46.64C8.21203 45.8 6.45203 44.66 5.05203 43.22C3.69203 41.74 2.67203 40 1.99203 38C1.35203 35.96 1.03203 33.72 1.03203 31.28V5.42H10.392V30.5C10.392 32.18 10.572 33.62 10.932 34.82C11.332 35.98 11.852 36.94 12.492 37.7C13.172 38.42 13.972 38.94 14.892 39.26C15.852 39.58 16.892 39.74 18.012 39.74C20.292 39.74 22.132 39.04 23.532 37.64C24.972 36.24 25.692 33.86 25.692 30.5V5.42H35.052V31.28C35.052 33.72 34.712 35.96 34.032 38C33.352 40.04 32.312 41.8 30.912 43.28C29.512 44.72 27.732 45.84 25.572 46.64C23.412 47.44 20.852 47.84 17.892 47.84ZM72.6739 31.46C72.6739 28.7 72.0539 26.5 70.8139 24.86C69.5739 23.18 67.7339 22.34 65.2939 22.34C64.4939 22.34 63.7539 22.38 63.0739 22.46C62.3939 22.5 61.8339 22.56 61.3939 22.64V38.78C61.9539 39.14 62.6739 39.44 63.5539 39.68C64.4739 39.92 65.3939 40.04 66.3139 40.04C70.5539 40.04 72.6739 37.18 72.6739 31.46ZM81.7939 31.22C81.7939 33.66 81.4939 35.88 80.8939 37.88C80.2939 39.88 79.4139 41.6 78.2539 43.04C77.0939 44.48 75.6539 45.6 73.9339 46.4C72.2139 47.2 70.2339 47.6 67.9939 47.6C66.7539 47.6 65.5939 47.48 64.5139 47.24C63.4339 47 62.3939 46.66 61.3939 46.22V58.1H52.4539V16.52C53.2539 16.28 54.1739 16.06 55.2139 15.86C56.2539 15.62 57.3339 15.42 58.4539 15.26C59.6139 15.1 60.7739 14.98 61.9339 14.9C63.1339 14.78 64.2739 14.72 65.3539 14.72C67.9539 14.72 70.2739 15.12 72.3139 15.92C74.3539 16.68 76.0739 17.78 77.4739 19.22C78.8739 20.62 79.9339 22.34 80.6539 24.38C81.4139 26.42 81.7939 28.7 81.7939 31.22ZM110.265 47.6C107.665 47.56 105.545 47.28 103.905 46.76C102.305 46.24 101.025 45.52 100.065 44.6C99.1448 43.64 98.5048 42.5 98.1448 41.18C97.8248 39.82 97.6648 38.3 97.6648 36.62V1.88L106.605 0.439999V34.82C106.605 35.62 106.665 36.34 106.785 36.98C106.905 37.62 107.125 38.16 107.445 38.6C107.805 39.04 108.305 39.4 108.945 39.68C109.585 39.96 110.445 40.14 111.525 40.22L110.265 47.6ZM155.169 31.16C155.169 33.64 154.809 35.92 154.089 38C153.369 40.04 152.329 41.8 150.969 43.28C149.609 44.72 147.969 45.84 146.049 46.64C144.169 47.44 142.049 47.84 139.689 47.84C137.369 47.84 135.249 47.44 133.329 46.64C131.449 45.84 129.829 44.72 128.469 43.28C127.109 41.8 126.049 40.04 125.289 38C124.529 35.92 124.149 33.64 124.149 31.16C124.149 28.68 124.529 26.42 125.289 24.38C126.089 22.34 127.169 20.6 128.529 19.16C129.929 17.72 131.569 16.6 133.449 15.8C135.369 15 137.449 14.6 139.689 14.6C141.969 14.6 144.049 15 145.929 15.8C147.849 16.6 149.489 17.72 150.849 19.16C152.209 20.6 153.269 22.34 154.029 24.38C154.789 26.42 155.169 28.68 155.169 31.16ZM146.049 31.16C146.049 28.4 145.489 26.24 144.369 24.68C143.289 23.08 141.729 22.28 139.689 22.28C137.649 22.28 136.069 23.08 134.949 24.68C133.829 26.24 133.269 28.4 133.269 31.16C133.269 33.92 133.829 36.12 134.949 37.76C136.069 39.36 137.649 40.16 139.689 40.16C141.729 40.16 143.289 39.36 144.369 37.76C145.489 36.12 146.049 33.92 146.049 31.16ZM183.155 40.76C184.035 40.76 184.875 40.74 185.675 40.7C186.475 40.66 187.115 40.6 187.595 40.52V33.74C187.235 33.66 186.695 33.58 185.975 33.5C185.255 33.42 184.595 33.38 183.995 33.38C183.155 33.38 182.355 33.44 181.595 33.56C180.875 33.64 180.235 33.82 179.675 34.1C179.115 34.38 178.675 34.76 178.355 35.24C178.035 35.72 177.875 36.32 177.875 37.04C177.875 38.44 178.335 39.42 179.255 39.98C180.215 40.5 181.515 40.76 183.155 40.76ZM182.435 14.6C185.075 14.6 187.275 14.9 189.035 15.5C190.795 16.1 192.195 16.96 193.235 18.08C194.315 19.2 195.075 20.56 195.515 22.16C195.955 23.76 196.175 25.54 196.175 27.5V46.1C194.895 46.38 193.115 46.7 190.835 47.06C188.555 47.46 185.795 47.66 182.555 47.66C180.515 47.66 178.655 47.48 176.975 47.12C175.335 46.76 173.915 46.18 172.715 45.38C171.515 44.54 170.595 43.46 169.955 42.14C169.315 40.82 168.995 39.2 168.995 37.28C168.995 35.44 169.355 33.88 170.075 32.6C170.835 31.32 171.835 30.3 173.075 29.54C174.315 28.78 175.735 28.24 177.335 27.92C178.935 27.56 180.595 27.38 182.315 27.38C183.475 27.38 184.495 27.44 185.375 27.56C186.295 27.64 187.035 27.76 187.595 27.92V27.08C187.595 25.56 187.135 24.34 186.215 23.42C185.295 22.5 183.695 22.04 181.415 22.04C179.895 22.04 178.395 22.16 176.915 22.4C175.435 22.6 174.155 22.9 173.075 23.3L171.935 16.1C172.455 15.94 173.095 15.78 173.855 15.62C174.655 15.42 175.515 15.26 176.435 15.14C177.355 14.98 178.315 14.86 179.315 14.78C180.355 14.66 181.395 14.6 182.435 14.6ZM220.879 30.98C220.879 33.74 221.499 35.96 222.739 37.64C223.979 39.32 225.819 40.16 228.259 40.16C229.059 40.16 229.799 40.14 230.479 40.1C231.159 40.02 231.719 39.94 232.159 39.86V23.6C231.599 23.24 230.859 22.94 229.939 22.7C229.059 22.46 228.159 22.34 227.239 22.34C222.999 22.34 220.879 25.22 220.879 30.98ZM241.099 45.98C240.299 46.22 239.379 46.46 238.339 46.7C237.299 46.9 236.199 47.08 235.039 47.24C233.919 47.4 232.759 47.52 231.559 47.6C230.399 47.72 229.279 47.78 228.199 47.78C225.599 47.78 223.279 47.4 221.239 46.64C219.199 45.88 217.479 44.8 216.079 43.4C214.679 41.96 213.599 40.24 212.839 38.24C212.119 36.2 211.759 33.92 211.759 31.4C211.759 28.84 212.079 26.54 212.719 24.5C213.359 22.42 214.279 20.66 215.479 19.22C216.679 17.78 218.139 16.68 219.859 15.92C221.619 15.16 223.619 14.78 225.859 14.78C227.099 14.78 228.199 14.9 229.159 15.14C230.159 15.38 231.159 15.72 232.159 16.16V1.88L241.099 0.439999V45.98ZM297.724 22.52C299.404 19.68 301.004 16.84 302.524 14C304.044 11.16 305.444 8.3 306.724 5.42H317.044C314.764 9.9 312.404 14.24 309.964 18.44C307.524 22.64 304.944 26.86 302.224 31.1V47H292.864V31.22C290.144 26.98 287.544 22.74 285.064 18.5C282.624 14.26 280.264 9.9 277.984 5.42H288.844C290.124 8.3 291.504 11.16 292.984 14C294.464 16.84 296.044 19.68 297.724 22.52ZM354.798 31.16C354.798 33.64 354.438 35.92 353.718 38C352.998 40.04 351.958 41.8 350.598 43.28C349.238 44.72 347.598 45.84 345.678 46.64C343.798 47.44 341.678 47.84 339.318 47.84C336.998 47.84 334.878 47.44 332.958 46.64C331.078 45.84 329.458 44.72 328.098 43.28C326.738 41.8 325.678 40.04 324.918 38C324.158 35.92 323.778 33.64 323.778 31.16C323.778 28.68 324.158 26.42 324.918 24.38C325.718 22.34 326.798 20.6 328.158 19.16C329.558 17.72 331.198 16.6 333.078 15.8C334.998 15 337.078 14.6 339.318 14.6C341.598 14.6 343.678 15 345.558 15.8C347.478 16.6 349.118 17.72 350.478 19.16C351.838 20.6 352.898 22.34 353.658 24.38C354.418 26.42 354.798 28.68 354.798 31.16ZM345.678 31.16C345.678 28.4 345.118 26.24 343.998 24.68C342.918 23.08 341.358 22.28 339.318 22.28C337.278 22.28 335.698 23.08 334.578 24.68C333.458 26.24 332.898 28.4 332.898 31.16C332.898 33.92 333.458 36.12 334.578 37.76C335.698 39.36 337.278 40.16 339.318 40.16C341.358 40.16 342.918 39.36 343.998 37.76C345.118 36.12 345.678 33.92 345.678 31.16ZM397.663 45.92C396.143 46.36 394.183 46.76 391.783 47.12C389.383 47.52 386.863 47.72 384.223 47.72C381.543 47.72 379.303 47.36 377.503 46.64C375.743 45.92 374.343 44.92 373.303 43.64C372.263 42.32 371.523 40.76 371.083 38.96C370.643 37.16 370.423 35.18 370.423 33.02V15.44H379.363V31.94C379.363 34.82 379.743 36.9 380.503 38.18C381.263 39.46 382.683 40.1 384.763 40.1C385.403 40.1 386.083 40.08 386.803 40.04C387.523 39.96 388.163 39.88 388.723 39.8V15.44H397.663V45.92ZM434.075 23.36C433.275 23.16 432.335 22.96 431.255 22.76C430.175 22.52 429.015 22.4 427.775 22.4C427.215 22.4 426.535 22.46 425.735 22.58C424.975 22.66 424.395 22.76 423.995 22.88V47H415.055V17.12C416.655 16.56 418.535 16.04 420.695 15.56C422.895 15.04 425.335 14.78 428.015 14.78C428.495 14.78 429.075 14.82 429.755 14.9C430.435 14.94 431.115 15.02 431.795 15.14C432.475 15.22 433.155 15.34 433.835 15.5C434.515 15.62 435.095 15.78 435.575 15.98L434.075 23.36ZM12.7058 79.94C18.9058 79.94 23.6658 81.04 26.9858 83.24C30.3058 85.4 31.9658 88.96 31.9658 93.92C31.9658 98.92 30.2858 102.54 26.9258 104.78C23.5658 106.98 18.7658 108.08 12.5258 108.08H9.58578V122H0.225782V81.02C2.26578 80.62 4.42578 80.34 6.70578 80.18C8.98578 80.02 10.9858 79.94 12.7058 79.94ZM13.3058 87.92C12.6258 87.92 11.9458 87.94 11.2658 87.98C10.6258 88.02 10.0658 88.06 9.58578 88.1V100.1H12.5258C15.7658 100.1 18.2058 99.66 19.8458 98.78C21.4858 97.9 22.3058 96.26 22.3058 93.86C22.3058 92.7 22.0858 91.74 21.6458 90.98C21.2458 90.22 20.6458 89.62 19.8458 89.18C19.0858 88.7 18.1458 88.38 17.0258 88.22C15.9058 88.02 14.6658 87.92 13.3058 87.92ZM66.2591 98.36C65.4591 98.16 64.5191 97.96 63.4391 97.76C62.3591 97.52 61.1991 97.4 59.9591 97.4C59.3991 97.4 58.7191 97.46 57.9191 97.58C57.1591 97.66 56.5791 97.76 56.1791 97.88V122H47.2391V92.12C48.8391 91.56 50.7191 91.04 52.8791 90.56C55.0791 90.04 57.5191 89.78 60.1991 89.78C60.6791 89.78 61.2591 89.82 61.9391 89.9C62.6191 89.94 63.2991 90.02 63.9791 90.14C64.6591 90.22 65.3391 90.34 66.0191 90.5C66.6991 90.62 67.2791 90.78 67.7591 90.98L66.2591 98.36ZM79.4656 106.46C79.4656 103.66 79.8856 101.22 80.7256 99.14C81.6056 97.02 82.7456 95.26 84.1456 93.86C85.5456 92.46 87.1456 91.4 88.9456 90.68C90.7856 89.96 92.6656 89.6 94.5856 89.6C99.0656 89.6 102.606 90.98 105.206 93.74C107.806 96.46 109.106 100.48 109.106 105.8C109.106 106.32 109.086 106.9 109.046 107.54C109.006 108.14 108.966 108.68 108.926 109.16H88.6456C88.8456 111 89.7056 112.46 91.2256 113.54C92.7456 114.62 94.7856 115.16 97.3456 115.16C98.9856 115.16 100.586 115.02 102.146 114.74C103.746 114.42 105.046 114.04 106.046 113.6L107.246 120.86C106.766 121.1 106.126 121.34 105.326 121.58C104.526 121.82 103.626 122.02 102.626 122.18C101.666 122.38 100.626 122.54 99.5056 122.66C98.3856 122.78 97.2656 122.84 96.1456 122.84C93.3056 122.84 90.8256 122.42 88.7056 121.58C86.6256 120.74 84.8856 119.6 83.4856 118.16C82.1256 116.68 81.1056 114.94 80.4256 112.94C79.7856 110.94 79.4656 108.78 79.4656 106.46ZM100.466 103.04C100.426 102.28 100.286 101.54 100.046 100.82C99.8456 100.1 99.5056 99.46 99.0256 98.9C98.5856 98.34 98.0056 97.88 97.2856 97.52C96.6056 97.16 95.7456 96.98 94.7056 96.98C93.7056 96.98 92.8456 97.16 92.1256 97.52C91.4056 97.84 90.8056 98.28 90.3256 98.84C89.8456 99.4 89.4656 100.06 89.1856 100.82C88.9456 101.54 88.7656 102.28 88.6456 103.04H100.466ZM134.065 115.58C135.705 115.58 136.865 115.42 137.545 115.1C138.225 114.78 138.565 114.16 138.565 113.24C138.565 112.52 138.125 111.9 137.245 111.38C136.365 110.82 135.025 110.2 133.225 109.52C131.825 109 130.545 108.46 129.385 107.9C128.265 107.34 127.305 106.68 126.505 105.92C125.705 105.12 125.085 104.18 124.645 103.1C124.205 102.02 123.985 100.72 123.985 99.2C123.985 96.24 125.085 93.9 127.285 92.18C129.485 90.46 132.505 89.6 136.345 89.6C138.265 89.6 140.105 89.78 141.865 90.14C143.625 90.46 145.025 90.82 146.065 91.22L144.505 98.18C143.465 97.82 142.325 97.5 141.085 97.22C139.885 96.94 138.525 96.8 137.005 96.8C134.205 96.8 132.805 97.58 132.805 99.14C132.805 99.5 132.865 99.82 132.985 100.1C133.105 100.38 133.345 100.66 133.705 100.94C134.065 101.18 134.545 101.46 135.145 101.78C135.785 102.06 136.585 102.38 137.545 102.74C139.505 103.46 141.125 104.18 142.405 104.9C143.685 105.58 144.685 106.34 145.405 107.18C146.165 107.98 146.685 108.88 146.965 109.88C147.285 110.88 147.445 112.04 147.445 113.36C147.445 116.48 146.265 118.84 143.905 120.44C141.585 122.04 138.285 122.84 134.005 122.84C131.205 122.84 128.865 122.6 126.985 122.12C125.145 121.64 123.865 121.24 123.145 120.92L124.645 113.66C126.165 114.26 127.725 114.74 129.325 115.1C130.925 115.42 132.505 115.58 134.065 115.58ZM161.626 106.22C161.626 103.94 161.986 101.8 162.706 99.8C163.466 97.76 164.546 96 165.946 94.52C167.346 93 169.046 91.8 171.046 90.92C173.046 90.04 175.326 89.6 177.886 89.6C179.566 89.6 181.106 89.76 182.506 90.08C183.906 90.36 185.266 90.78 186.586 91.34L184.726 98.48C183.886 98.16 182.966 97.88 181.966 97.64C180.966 97.4 179.846 97.28 178.606 97.28C175.966 97.28 173.986 98.1 172.666 99.74C171.386 101.38 170.746 103.54 170.746 106.22C170.746 109.06 171.346 111.26 172.546 112.82C173.786 114.38 175.926 115.16 178.966 115.16C180.046 115.16 181.206 115.06 182.446 114.86C183.686 114.66 184.826 114.34 185.866 113.9L187.126 121.22C186.086 121.66 184.786 122.04 183.226 122.36C181.666 122.68 179.946 122.84 178.066 122.84C175.186 122.84 172.706 122.42 170.626 121.58C168.546 120.7 166.826 119.52 165.466 118.04C164.146 116.56 163.166 114.82 162.526 112.82C161.926 110.78 161.626 108.58 161.626 106.22ZM221.146 98.36C220.346 98.16 219.406 97.96 218.326 97.76C217.246 97.52 216.086 97.4 214.846 97.4C214.286 97.4 213.606 97.46 212.806 97.58C212.046 97.66 211.466 97.76 211.066 97.88V122H202.126V92.12C203.726 91.56 205.606 91.04 207.766 90.56C209.966 90.04 212.406 89.78 215.086 89.78C215.566 89.78 216.146 89.82 216.826 89.9C217.506 89.94 218.186 90.02 218.866 90.14C219.546 90.22 220.226 90.34 220.906 90.5C221.586 90.62 222.166 90.78 222.646 90.98L221.146 98.36ZM245.378 122H236.438V90.44H245.378V122ZM246.218 81.32C246.218 82.96 245.678 84.26 244.598 85.22C243.558 86.14 242.318 86.6 240.878 86.6C239.438 86.6 238.178 86.14 237.098 85.22C236.058 84.26 235.538 82.96 235.538 81.32C235.538 79.68 236.058 78.4 237.098 77.48C238.178 76.52 239.438 76.04 240.878 76.04C242.318 76.04 243.558 76.52 244.598 77.48C245.678 78.4 246.218 79.68 246.218 81.32ZM283.002 106.46C283.002 103.7 282.382 101.5 281.142 99.86C279.902 98.18 278.062 97.34 275.622 97.34C274.822 97.34 274.082 97.38 273.402 97.46C272.722 97.5 272.162 97.56 271.722 97.64V113.78C272.282 114.14 273.002 114.44 273.882 114.68C274.802 114.92 275.722 115.04 276.642 115.04C280.882 115.04 283.002 112.18 283.002 106.46ZM292.122 106.22C292.122 108.66 291.822 110.88 291.222 112.88C290.622 114.88 289.742 116.6 288.582 118.04C287.422 119.48 285.982 120.6 284.262 121.4C282.542 122.2 280.562 122.6 278.322 122.6C277.082 122.6 275.922 122.48 274.842 122.24C273.762 122 272.722 121.66 271.722 121.22V133.1H262.782V91.52C263.582 91.28 264.502 91.06 265.542 90.86C266.582 90.62 267.662 90.42 268.782 90.26C269.942 90.1 271.102 89.98 272.262 89.9C273.462 89.78 274.602 89.72 275.682 89.72C278.282 89.72 280.602 90.12 282.642 90.92C284.682 91.68 286.402 92.78 287.802 94.22C289.202 95.62 290.262 97.34 290.982 99.38C291.742 101.42 292.122 103.7 292.122 106.22ZM307.693 82.58L316.633 81.14V90.44H327.373V97.88H316.633V108.98C316.633 110.86 316.953 112.36 317.593 113.48C318.273 114.6 319.613 115.16 321.613 115.16C322.573 115.16 323.553 115.08 324.553 114.92C325.593 114.72 326.533 114.46 327.373 114.14L328.633 121.1C327.553 121.54 326.353 121.92 325.033 122.24C323.713 122.56 322.093 122.72 320.173 122.72C317.733 122.72 315.713 122.4 314.113 121.76C312.513 121.08 311.233 120.16 310.273 119C309.313 117.8 308.633 116.36 308.233 114.68C307.873 113 307.693 111.14 307.693 109.1V82.58ZM352.593 122H343.653V90.44H352.593V122ZM353.433 81.32C353.433 82.96 352.893 84.26 351.813 85.22C350.773 86.14 349.533 86.6 348.093 86.6C346.653 86.6 345.393 86.14 344.313 85.22C343.273 84.26 342.753 82.96 342.753 81.32C342.753 79.68 343.273 78.4 344.313 77.48C345.393 76.52 346.653 76.04 348.093 76.04C349.533 76.04 350.773 76.52 351.813 77.48C352.893 78.4 353.433 79.68 353.433 81.32ZM399.517 106.16C399.517 108.64 399.157 110.92 398.437 113C397.717 115.04 396.677 116.8 395.317 118.28C393.957 119.72 392.317 120.84 390.397 121.64C388.517 122.44 386.397 122.84 384.037 122.84C381.717 122.84 379.597 122.44 377.677 121.64C375.797 120.84 374.177 119.72 372.817 118.28C371.457 116.8 370.397 115.04 369.637 113C368.877 110.92 368.497 108.64 368.497 106.16C368.497 103.68 368.877 101.42 369.637 99.38C370.437 97.34 371.517 95.6 372.877 94.16C374.277 92.72 375.917 91.6 377.797 90.8C379.717 90 381.797 89.6 384.037 89.6C386.317 89.6 388.397 90 390.277 90.8C392.197 91.6 393.837 92.72 395.197 94.16C396.557 95.6 397.617 97.34 398.377 99.38C399.137 101.42 399.517 103.68 399.517 106.16ZM390.397 106.16C390.397 103.4 389.837 101.24 388.717 99.68C387.637 98.08 386.077 97.28 384.037 97.28C381.997 97.28 380.417 98.08 379.297 99.68C378.177 101.24 377.617 103.4 377.617 106.16C377.617 108.92 378.177 111.12 379.297 112.76C380.417 114.36 381.997 115.16 384.037 115.16C386.077 115.16 387.637 114.36 388.717 112.76C389.837 111.12 390.397 108.92 390.397 106.16ZM415.442 91.52C416.962 91.08 418.922 90.68 421.322 90.32C423.722 89.92 426.242 89.72 428.882 89.72C431.562 89.72 433.782 90.08 435.542 90.8C437.342 91.48 438.762 92.46 439.802 93.74C440.842 95.02 441.582 96.54 442.022 98.3C442.462 100.06 442.682 102.02 442.682 104.18V122H433.742V105.26C433.742 102.38 433.362 100.34 432.602 99.14C431.842 97.94 430.422 97.34 428.342 97.34C427.702 97.34 427.022 97.38 426.302 97.46C425.582 97.5 424.942 97.56 424.382 97.64V122H415.442V91.52Z" fill="#1B93C7"/>
</svg>
